G75*
%MOIN*%
%OFA0B0*%
%FSLAX25Y25*%
%IPPOS*%
%LPD*%
%AMOC8*
5,1,8,0,0,1.08239X$1,22.5*
%
%ADD10C,0.10500*%
%ADD11OC8,0.10500*%
%ADD12C,0.07550*%
%ADD13C,0.08177*%
%ADD14OC8,0.05300*%
%ADD15C,0.09500*%
%ADD16R,0.07100X0.07100*%
%ADD17C,0.07100*%
%ADD18OC8,0.06500*%
%ADD19C,0.06500*%
%ADD20C,0.04262*%
%ADD21C,0.03200*%
%ADD22C,0.14343*%
D10*
X0026049Y0207746D03*
X0084216Y0292617D03*
D11*
X0104216Y0292617D03*
X0026049Y0187746D03*
D12*
X0061603Y0030407D02*
X0061603Y0023357D01*
X0081288Y0023357D02*
X0081288Y0030407D01*
D13*
X0045462Y0272697D03*
X0045462Y0295532D03*
X0026565Y0284508D03*
D14*
X0105755Y0033214D03*
X0115755Y0033214D03*
D15*
X0011682Y0013417D03*
X0011682Y0054917D03*
X0011682Y0073417D03*
X0041682Y0063417D03*
X0041682Y0013417D03*
D16*
X0077272Y0215150D03*
D17*
X0077272Y0205150D03*
X0077272Y0195150D03*
X0077272Y0185150D03*
X0077272Y0175150D03*
X0077272Y0165150D03*
X0077272Y0155150D03*
X0077272Y0145150D03*
X0077272Y0135150D03*
X0077272Y0125150D03*
X0077272Y0115150D03*
X0077272Y0105150D03*
X0077272Y0095150D03*
X0077272Y0085150D03*
X0061459Y0054661D03*
X0101459Y0054661D03*
X0107272Y0085150D03*
X0107272Y0095150D03*
X0107272Y0105150D03*
X0107272Y0115150D03*
X0107272Y0125150D03*
X0107272Y0135150D03*
X0107272Y0145150D03*
X0107272Y0155150D03*
X0107272Y0165150D03*
X0107272Y0175150D03*
X0107272Y0185150D03*
X0107272Y0195150D03*
X0107272Y0205150D03*
X0107272Y0215150D03*
D18*
X0062128Y0112323D03*
X0062128Y0102323D03*
X0062128Y0092323D03*
X0052128Y0092323D03*
X0052128Y0102323D03*
X0052128Y0112323D03*
D19*
X0055794Y0194312D02*
X0061794Y0194312D01*
X0061794Y0204312D02*
X0055794Y0204312D01*
X0055794Y0214312D02*
X0061794Y0214312D01*
X0061794Y0224312D02*
X0055794Y0224312D01*
X0043463Y0248307D02*
X0043463Y0254307D01*
X0033463Y0254307D02*
X0033463Y0248307D01*
X0023463Y0248307D02*
X0023463Y0254307D01*
D20*
X0009133Y0240309D03*
X0010799Y0289305D03*
X0040796Y0203646D03*
X0059461Y0239976D03*
X0067793Y0270306D03*
X0121455Y0276639D03*
X0125788Y0232644D03*
X0127121Y0200647D03*
X0128121Y0120655D03*
X0125121Y0053328D03*
X0074126Y0014665D03*
X0031130Y0028331D03*
X0008466Y0111989D03*
X0010466Y0175649D03*
X0045796Y0124321D03*
D21*
X0047129Y0139320D03*
X0064127Y0168650D03*
D22*
X0013799Y0091658D03*
X0013799Y0306969D03*
X0123788Y0306969D03*
X0123788Y0012999D03*
M02*
