%
M48
M72
T01C0.0130
T02C0.0236
T03C0.0320
T04C0.0400
T05C0.0440
T06C0.0470
T07C0.0512
T08C0.0984
%
T01
X4713Y13932
X6413Y16865
T02
X4580Y12432
X4080Y20365
X5946Y23998
X6779Y27031
X12145Y27664
X12579Y23264
X12712Y20065
X12812Y12065
X12512Y5333
X7413Y1467
X3113Y2833
X847Y11199
X1047Y17565
X913Y24031
X1080Y28930
T03
X10576Y3321
X11576Y3321
T04
X6213Y9232
X6213Y10232
X6213Y11232
X5213Y11232
X5213Y10232
X5213Y9232
X2605Y18775
X2605Y20775
X2346Y25131
X3346Y25131
X4346Y25131
X5879Y22431
X5879Y21431
X5879Y20431
X5879Y19431
X8422Y29262
X10422Y29262
T05
X10727Y21515
X10727Y20515
X10727Y19515
X10727Y18515
X10727Y17515
X10727Y16515
X10727Y15515
X10727Y14515
X10727Y13515
X10727Y12515
X10727Y11515
X10727Y10515
X10727Y9515
X10727Y8515
X10146Y5466
X7727Y8515
X7727Y9515
X7727Y10515
X7727Y11515
X7727Y12515
X7727Y13515
X7727Y14515
X7727Y15515
X7727Y16515
X7727Y17515
X7727Y18515
X7727Y19515
X7727Y20515
X7727Y21515
X6146Y5466
T06
X6160Y2688
X8129Y2688
T07
X1168Y1342
X1168Y5492
X1168Y7342
X4168Y6342
X4168Y1342
X4546Y27270
X4546Y29553
X2656Y28451
T08
X1380Y30697
X1380Y9166
X12379Y1300
X12379Y30697
M30
