G75*
%MOIN*%
%OFA0B0*%
%FSLAX25Y25*%
%IPPOS*%
%LPD*%
%AMOC8*
5,1,8,0,0,1.08239X$1,22.5*
%
%ADD10C,0.10000*%
%ADD11OC8,0.10000*%
%ADD12C,0.07050*%
%ADD13C,0.07677*%
%ADD14OC8,0.04800*%
%ADD15C,0.09000*%
%ADD16R,0.06600X0.06600*%
%ADD17C,0.06600*%
%ADD18OC8,0.06000*%
%ADD19C,0.06000*%
%ADD20C,0.01600*%
%ADD21C,0.03762*%
%ADD22C,0.02700*%
%ADD23C,0.13843*%
D10*
X0026049Y0207746D03*
X0084216Y0292617D03*
D11*
X0104216Y0292617D03*
X0056475Y0211385D03*
X0055711Y0194622D03*
X0026049Y0187746D03*
D12*
X0061603Y0030407D02*
X0061603Y0023357D01*
X0081288Y0023357D02*
X0081288Y0030407D01*
D13*
X0042107Y0262981D03*
X0042107Y0285816D03*
X0023209Y0274792D03*
D14*
X0105755Y0033214D03*
X0115755Y0033214D03*
D15*
X0041682Y0013417D03*
X0041682Y0063417D03*
X0011682Y0054917D03*
X0011682Y0073417D03*
X0011682Y0013417D03*
D16*
X0077272Y0215150D03*
D17*
X0077272Y0205150D03*
X0077272Y0195150D03*
X0077272Y0185150D03*
X0077272Y0175150D03*
X0077272Y0165150D03*
X0077272Y0155150D03*
X0077272Y0145150D03*
X0077272Y0135150D03*
X0077272Y0125150D03*
X0077272Y0115150D03*
X0077272Y0105150D03*
X0077272Y0095150D03*
X0077272Y0085150D03*
X0061459Y0054661D03*
X0101459Y0054661D03*
X0107272Y0085150D03*
X0107272Y0095150D03*
X0107272Y0105150D03*
X0107272Y0115150D03*
X0107272Y0125150D03*
X0107272Y0135150D03*
X0107272Y0145150D03*
X0107272Y0155150D03*
X0107272Y0165150D03*
X0107272Y0175150D03*
X0107272Y0185150D03*
X0107272Y0195150D03*
X0107272Y0205150D03*
X0107272Y0215150D03*
D18*
X0062128Y0112323D03*
X0062128Y0102323D03*
X0062128Y0092323D03*
X0052128Y0092323D03*
X0052128Y0102323D03*
X0052128Y0112323D03*
D19*
X0043463Y0237975D02*
X0043463Y0243975D01*
X0033463Y0243975D02*
X0033463Y0237975D01*
X0023463Y0237975D02*
X0023463Y0243975D01*
D20*
X0004100Y0315668D02*
X0004100Y0004300D01*
X0132820Y0004300D01*
X0132820Y0315668D01*
X0004100Y0315668D01*
X0004100Y0315308D02*
X0132820Y0315308D01*
X0132820Y0313710D02*
X0128816Y0313710D01*
X0128501Y0314024D02*
X0130842Y0311683D01*
X0132109Y0308625D01*
X0132109Y0305314D01*
X0130842Y0302256D01*
X0128501Y0299915D01*
X0125443Y0298648D01*
X0122133Y0298648D01*
X0119074Y0299915D01*
X0116733Y0302256D01*
X0115467Y0305314D01*
X0115467Y0308625D01*
X0116733Y0311683D01*
X0119074Y0314024D01*
X0122133Y0315291D01*
X0125443Y0315291D01*
X0128501Y0314024D01*
X0130414Y0312111D02*
X0132820Y0312111D01*
X0132820Y0310513D02*
X0131327Y0310513D01*
X0131989Y0308914D02*
X0132820Y0308914D01*
X0132820Y0307316D02*
X0132109Y0307316D01*
X0132109Y0305717D02*
X0132820Y0305717D01*
X0132820Y0304119D02*
X0131614Y0304119D01*
X0130952Y0302520D02*
X0132820Y0302520D01*
X0132820Y0300922D02*
X0129508Y0300922D01*
X0127072Y0299323D02*
X0132820Y0299323D01*
X0132820Y0297724D02*
X0108726Y0297724D01*
X0110324Y0296126D02*
X0132820Y0296126D01*
X0132820Y0294527D02*
X0111016Y0294527D01*
X0111016Y0295434D02*
X0107033Y0299417D01*
X0104416Y0299417D01*
X0104416Y0292817D01*
X0111016Y0292817D01*
X0111016Y0295434D01*
X0111016Y0292929D02*
X0132820Y0292929D01*
X0132820Y0291330D02*
X0111016Y0291330D01*
X0111016Y0292417D02*
X0104416Y0292417D01*
X0104416Y0285817D01*
X0107033Y0285817D01*
X0111016Y0289801D01*
X0111016Y0292417D01*
X0110948Y0289732D02*
X0132820Y0289732D01*
X0132820Y0288133D02*
X0109349Y0288133D01*
X0107751Y0286535D02*
X0132820Y0286535D01*
X0132820Y0284936D02*
X0047346Y0284936D01*
X0047346Y0284774D02*
X0046548Y0282848D01*
X0045074Y0281375D01*
X0043149Y0280577D01*
X0041065Y0280577D01*
X0039140Y0281375D01*
X0037666Y0282848D01*
X0036868Y0284774D01*
X0036868Y0286858D01*
X0037666Y0288783D01*
X0039140Y0290257D01*
X0041065Y0291054D01*
X0043149Y0291054D01*
X0045074Y0290257D01*
X0046548Y0288783D01*
X0047346Y0286858D01*
X0047346Y0284774D01*
X0046751Y0283338D02*
X0132820Y0283338D01*
X0132820Y0281739D02*
X0045439Y0281739D01*
X0047346Y0286535D02*
X0082176Y0286535D01*
X0082943Y0286217D02*
X0085489Y0286217D01*
X0087841Y0287192D01*
X0089642Y0288992D01*
X0090616Y0291344D01*
X0090616Y0293890D01*
X0089642Y0296243D01*
X0087841Y0298043D01*
X0085489Y0299017D01*
X0082943Y0299017D01*
X0080591Y0298043D01*
X0078791Y0296243D01*
X0077816Y0293890D01*
X0077816Y0291344D01*
X0078791Y0288992D01*
X0080591Y0287192D01*
X0082943Y0286217D01*
X0086256Y0286535D02*
X0100682Y0286535D01*
X0101400Y0285817D02*
X0104016Y0285817D01*
X0104016Y0292417D01*
X0104416Y0292417D01*
X0104416Y0292817D01*
X0104016Y0292817D01*
X0104016Y0292417D01*
X0097416Y0292417D01*
X0097416Y0289801D01*
X0101400Y0285817D01*
X0104016Y0286535D02*
X0104416Y0286535D01*
X0104416Y0288133D02*
X0104016Y0288133D01*
X0104016Y0289732D02*
X0104416Y0289732D01*
X0104416Y0291330D02*
X0104016Y0291330D01*
X0104016Y0292817D02*
X0097416Y0292817D01*
X0097416Y0295434D01*
X0101400Y0299417D01*
X0104016Y0299417D01*
X0104016Y0292817D01*
X0104016Y0292929D02*
X0104416Y0292929D01*
X0104416Y0294527D02*
X0104016Y0294527D01*
X0104016Y0296126D02*
X0104416Y0296126D01*
X0104416Y0297724D02*
X0104016Y0297724D01*
X0104016Y0299323D02*
X0104416Y0299323D01*
X0107127Y0299323D02*
X0120503Y0299323D01*
X0118068Y0300922D02*
X0019519Y0300922D01*
X0018512Y0299915D02*
X0020853Y0302256D01*
X0022120Y0305314D01*
X0022120Y0308625D01*
X0020853Y0311683D01*
X0018512Y0314024D01*
X0015454Y0315291D01*
X0012144Y0315291D01*
X0009085Y0314024D01*
X0006744Y0311683D01*
X0005478Y0308625D01*
X0005478Y0305314D01*
X0006744Y0302256D01*
X0009085Y0299915D01*
X0012144Y0298648D01*
X0015454Y0298648D01*
X0018512Y0299915D01*
X0017083Y0299323D02*
X0101305Y0299323D01*
X0099707Y0297724D02*
X0088160Y0297724D01*
X0089690Y0296126D02*
X0098108Y0296126D01*
X0097416Y0294527D02*
X0090352Y0294527D01*
X0090616Y0292929D02*
X0097416Y0292929D01*
X0097416Y0291330D02*
X0090610Y0291330D01*
X0089948Y0289732D02*
X0097485Y0289732D01*
X0099083Y0288133D02*
X0088783Y0288133D01*
X0079649Y0288133D02*
X0046817Y0288133D01*
X0045599Y0289732D02*
X0078484Y0289732D01*
X0077822Y0291330D02*
X0004100Y0291330D01*
X0004100Y0289732D02*
X0038615Y0289732D01*
X0037397Y0288133D02*
X0004100Y0288133D01*
X0004100Y0286535D02*
X0036868Y0286535D01*
X0036868Y0284936D02*
X0004100Y0284936D01*
X0004100Y0283338D02*
X0037463Y0283338D01*
X0038775Y0281739D02*
X0004100Y0281739D01*
X0004100Y0280141D02*
X0132820Y0280141D01*
X0132820Y0278542D02*
X0026867Y0278542D01*
X0026177Y0279233D02*
X0024251Y0280031D01*
X0022167Y0280031D01*
X0020242Y0279233D01*
X0018768Y0277759D01*
X0017971Y0275834D01*
X0017971Y0273750D01*
X0018768Y0271825D01*
X0020242Y0270351D01*
X0022167Y0269553D01*
X0024251Y0269553D01*
X0026177Y0270351D01*
X0027650Y0271825D01*
X0028448Y0273750D01*
X0028448Y0275834D01*
X0027650Y0277759D01*
X0026177Y0279233D01*
X0027988Y0276944D02*
X0132820Y0276944D01*
X0132820Y0275345D02*
X0028448Y0275345D01*
X0028447Y0273747D02*
X0132820Y0273747D01*
X0132820Y0272148D02*
X0027784Y0272148D01*
X0026376Y0270550D02*
X0132820Y0270550D01*
X0132820Y0268951D02*
X0004100Y0268951D01*
X0004100Y0267353D02*
X0038531Y0267353D01*
X0038434Y0267282D02*
X0037806Y0266654D01*
X0037284Y0265936D01*
X0036881Y0265145D01*
X0036607Y0264301D01*
X0036474Y0263460D01*
X0041627Y0263460D01*
X0041627Y0262501D01*
X0036474Y0262501D01*
X0036607Y0261661D01*
X0036881Y0260816D01*
X0037284Y0260026D01*
X0037806Y0259308D01*
X0038434Y0258680D01*
X0039152Y0258158D01*
X0039943Y0257755D01*
X0040787Y0257481D01*
X0041627Y0257348D01*
X0041627Y0262501D01*
X0042587Y0262501D01*
X0042587Y0263460D01*
X0047740Y0263460D01*
X0047607Y0264301D01*
X0047332Y0265145D01*
X0046930Y0265936D01*
X0046408Y0266654D01*
X0045780Y0267282D01*
X0045062Y0267803D01*
X0044271Y0268206D01*
X0043427Y0268481D01*
X0042587Y0268614D01*
X0042587Y0263461D01*
X0041627Y0263461D01*
X0041627Y0268614D01*
X0040787Y0268481D01*
X0039943Y0268206D01*
X0039152Y0267803D01*
X0038434Y0267282D01*
X0037192Y0265754D02*
X0004100Y0265754D01*
X0004100Y0264156D02*
X0036584Y0264156D01*
X0036835Y0260959D02*
X0004100Y0260959D01*
X0004100Y0262557D02*
X0041627Y0262557D01*
X0042587Y0262557D02*
X0132820Y0262557D01*
X0132820Y0260959D02*
X0047379Y0260959D01*
X0047332Y0260816D02*
X0047607Y0261661D01*
X0047740Y0262501D01*
X0042587Y0262501D01*
X0042587Y0257348D01*
X0043427Y0257481D01*
X0044271Y0257755D01*
X0045062Y0258158D01*
X0045780Y0258680D01*
X0046408Y0259308D01*
X0046930Y0260026D01*
X0047332Y0260816D01*
X0046446Y0259360D02*
X0132820Y0259360D01*
X0132820Y0257762D02*
X0044284Y0257762D01*
X0042587Y0257762D02*
X0041627Y0257762D01*
X0041627Y0259360D02*
X0042587Y0259360D01*
X0042587Y0260959D02*
X0041627Y0260959D01*
X0041627Y0264156D02*
X0042587Y0264156D01*
X0042587Y0265754D02*
X0041627Y0265754D01*
X0041627Y0267353D02*
X0042587Y0267353D01*
X0045683Y0267353D02*
X0132820Y0267353D01*
X0132820Y0265754D02*
X0047022Y0265754D01*
X0047630Y0264156D02*
X0132820Y0264156D01*
X0132820Y0256163D02*
X0004100Y0256163D01*
X0004100Y0254565D02*
X0132820Y0254565D01*
X0132820Y0252966D02*
X0004100Y0252966D01*
X0004100Y0251368D02*
X0132820Y0251368D01*
X0132820Y0249769D02*
X0004100Y0249769D01*
X0004100Y0248171D02*
X0022095Y0248171D01*
X0022588Y0248375D02*
X0020971Y0247705D01*
X0019733Y0246467D01*
X0019063Y0244850D01*
X0019063Y0237100D01*
X0019733Y0235483D01*
X0020971Y0234245D01*
X0022588Y0233575D01*
X0024339Y0233575D01*
X0025956Y0234245D01*
X0027194Y0235483D01*
X0027863Y0237100D01*
X0027863Y0244850D01*
X0027194Y0246467D01*
X0025956Y0247705D01*
X0024339Y0248375D01*
X0022588Y0248375D01*
X0024832Y0248171D02*
X0031125Y0248171D01*
X0030948Y0248080D02*
X0030337Y0247636D01*
X0029802Y0247102D01*
X0029358Y0246491D01*
X0029015Y0245818D01*
X0028782Y0245099D01*
X0028663Y0244353D01*
X0028663Y0241175D01*
X0033263Y0241175D01*
X0033263Y0240775D01*
X0028663Y0240775D01*
X0028663Y0237597D01*
X0028782Y0236851D01*
X0029015Y0236132D01*
X0029358Y0235459D01*
X0029802Y0234848D01*
X0030337Y0234314D01*
X0030948Y0233870D01*
X0031621Y0233527D01*
X0032339Y0233293D01*
X0033086Y0233175D01*
X0033263Y0233175D01*
X0033263Y0240775D01*
X0033663Y0240775D01*
X0033663Y0233175D01*
X0033841Y0233175D01*
X0034588Y0233293D01*
X0035306Y0233527D01*
X0035979Y0233870D01*
X0036590Y0234314D01*
X0037125Y0234848D01*
X0037569Y0235459D01*
X0037912Y0236132D01*
X0038145Y0236851D01*
X0038263Y0237597D01*
X0038263Y0240775D01*
X0033664Y0240775D01*
X0033664Y0241175D01*
X0038263Y0241175D01*
X0038263Y0244353D01*
X0038145Y0245099D01*
X0037912Y0245818D01*
X0037569Y0246491D01*
X0037125Y0247102D01*
X0036590Y0247636D01*
X0035979Y0248080D01*
X0035306Y0248423D01*
X0034588Y0248657D01*
X0033841Y0248775D01*
X0033663Y0248775D01*
X0033663Y0241175D01*
X0033263Y0241175D01*
X0033263Y0248775D01*
X0033086Y0248775D01*
X0032339Y0248657D01*
X0031621Y0248423D01*
X0030948Y0248080D01*
X0029417Y0246572D02*
X0027089Y0246572D01*
X0027812Y0244974D02*
X0028762Y0244974D01*
X0028663Y0243375D02*
X0027863Y0243375D01*
X0027863Y0241777D02*
X0028663Y0241777D01*
X0028663Y0240178D02*
X0027863Y0240178D01*
X0027863Y0238580D02*
X0028663Y0238580D01*
X0028761Y0236981D02*
X0027814Y0236981D01*
X0027094Y0235383D02*
X0029414Y0235383D01*
X0031116Y0233784D02*
X0024843Y0233784D01*
X0022084Y0233784D02*
X0004100Y0233784D01*
X0004100Y0232186D02*
X0132820Y0232186D01*
X0132820Y0233784D02*
X0044843Y0233784D01*
X0044339Y0233575D02*
X0045956Y0234245D01*
X0047194Y0235483D01*
X0047863Y0237100D01*
X0047863Y0244850D01*
X0047194Y0246467D01*
X0045956Y0247705D01*
X0044339Y0248375D01*
X0042588Y0248375D01*
X0040971Y0247705D01*
X0039733Y0246467D01*
X0039063Y0244850D01*
X0039063Y0237100D01*
X0039733Y0235483D01*
X0040971Y0234245D01*
X0042588Y0233575D01*
X0044339Y0233575D01*
X0042084Y0233784D02*
X0035811Y0233784D01*
X0037513Y0235383D02*
X0039833Y0235383D01*
X0039113Y0236981D02*
X0038166Y0236981D01*
X0038263Y0238580D02*
X0039063Y0238580D01*
X0039063Y0240178D02*
X0038263Y0240178D01*
X0038263Y0241777D02*
X0039063Y0241777D01*
X0039063Y0243375D02*
X0038263Y0243375D01*
X0038165Y0244974D02*
X0039115Y0244974D01*
X0039838Y0246572D02*
X0037510Y0246572D01*
X0035802Y0248171D02*
X0042095Y0248171D01*
X0044832Y0248171D02*
X0132820Y0248171D01*
X0132820Y0246572D02*
X0047089Y0246572D01*
X0047812Y0244974D02*
X0132820Y0244974D01*
X0132820Y0243375D02*
X0047863Y0243375D01*
X0047863Y0241777D02*
X0132820Y0241777D01*
X0132820Y0240178D02*
X0047863Y0240178D01*
X0047863Y0238580D02*
X0132820Y0238580D01*
X0132820Y0236981D02*
X0047814Y0236981D01*
X0047094Y0235383D02*
X0132820Y0235383D01*
X0132820Y0230587D02*
X0004100Y0230587D01*
X0004100Y0228989D02*
X0132820Y0228989D01*
X0132820Y0227390D02*
X0004100Y0227390D01*
X0004100Y0225791D02*
X0049498Y0225791D01*
X0050217Y0226511D02*
X0046218Y0222511D01*
X0044929Y0221223D01*
X0044929Y0141009D01*
X0044797Y0140877D01*
X0044379Y0139867D01*
X0044379Y0138772D01*
X0044797Y0137762D01*
X0045571Y0136988D01*
X0046582Y0136570D01*
X0047676Y0136570D01*
X0048687Y0136988D01*
X0049460Y0137762D01*
X0049879Y0138772D01*
X0049879Y0139867D01*
X0049460Y0140877D01*
X0049329Y0141009D01*
X0049329Y0191953D01*
X0053060Y0188222D01*
X0058362Y0188222D01*
X0062069Y0191928D01*
X0062260Y0191736D01*
X0062260Y0179071D01*
X0066927Y0174405D01*
X0068215Y0173116D01*
X0073028Y0173116D01*
X0073288Y0172487D01*
X0074610Y0171165D01*
X0076338Y0170450D01*
X0078207Y0170450D01*
X0079935Y0171165D01*
X0081257Y0172487D01*
X0081972Y0174215D01*
X0081972Y0176084D01*
X0081257Y0177812D01*
X0079935Y0179134D01*
X0078207Y0179849D01*
X0076338Y0179849D01*
X0074610Y0179134D01*
X0073288Y0177812D01*
X0073165Y0177516D01*
X0070038Y0177516D01*
X0066660Y0180893D01*
X0066660Y0193559D01*
X0065372Y0194847D01*
X0063398Y0196822D01*
X0062111Y0196822D01*
X0062111Y0197273D01*
X0058362Y0201022D01*
X0053060Y0201022D01*
X0049329Y0197290D01*
X0049329Y0219400D01*
X0052040Y0222111D01*
X0058216Y0222111D01*
X0067378Y0212950D01*
X0072572Y0212950D01*
X0072572Y0211270D01*
X0073393Y0210450D01*
X0081152Y0210450D01*
X0081972Y0211270D01*
X0081972Y0219029D01*
X0081152Y0219849D01*
X0073393Y0219849D01*
X0072572Y0219029D01*
X0072572Y0217349D01*
X0069200Y0217349D01*
X0061328Y0225222D01*
X0060039Y0226511D01*
X0050217Y0226511D01*
X0051128Y0224311D02*
X0047129Y0220311D01*
X0047129Y0139320D01*
X0049879Y0139472D02*
X0075426Y0139472D01*
X0074610Y0139134D02*
X0076338Y0139849D01*
X0078207Y0139849D01*
X0079935Y0139134D01*
X0081257Y0137812D01*
X0081972Y0136084D01*
X0081972Y0134215D01*
X0081257Y0132487D01*
X0079935Y0131165D01*
X0078207Y0130450D01*
X0076338Y0130450D01*
X0074610Y0131165D01*
X0073288Y0132487D01*
X0072572Y0134215D01*
X0072572Y0136084D01*
X0073288Y0137812D01*
X0074610Y0139134D01*
X0075315Y0140423D02*
X0076078Y0140175D01*
X0076871Y0140050D01*
X0076972Y0140050D01*
X0076972Y0144849D01*
X0077572Y0144849D01*
X0077572Y0140050D01*
X0077674Y0140050D01*
X0078467Y0140175D01*
X0079230Y0140423D01*
X0079945Y0140788D01*
X0080595Y0141259D01*
X0081162Y0141827D01*
X0081634Y0142477D01*
X0081999Y0143192D01*
X0082247Y0143955D01*
X0082372Y0144748D01*
X0082372Y0144849D01*
X0077573Y0144849D01*
X0077573Y0145450D01*
X0082372Y0145450D01*
X0082372Y0145551D01*
X0082247Y0146344D01*
X0081999Y0147107D01*
X0081634Y0147822D01*
X0081162Y0148472D01*
X0080595Y0149040D01*
X0079945Y0149511D01*
X0079230Y0149876D01*
X0078467Y0150124D01*
X0077674Y0150249D01*
X0077572Y0150249D01*
X0077572Y0145450D01*
X0076972Y0145450D01*
X0076972Y0150249D01*
X0076871Y0150249D01*
X0076078Y0150124D01*
X0075315Y0149876D01*
X0074599Y0149511D01*
X0073950Y0149040D01*
X0073382Y0148472D01*
X0072911Y0147822D01*
X0072546Y0147107D01*
X0072298Y0146344D01*
X0072172Y0145551D01*
X0072172Y0145450D01*
X0076972Y0145450D01*
X0076972Y0144849D01*
X0072172Y0144849D01*
X0072172Y0144748D01*
X0072298Y0143955D01*
X0072546Y0143192D01*
X0072911Y0142477D01*
X0073382Y0141827D01*
X0073950Y0141259D01*
X0074599Y0140788D01*
X0075315Y0140423D01*
X0074210Y0141070D02*
X0049329Y0141070D01*
X0049329Y0142669D02*
X0072813Y0142669D01*
X0072249Y0144267D02*
X0049329Y0144267D01*
X0049329Y0145866D02*
X0072222Y0145866D01*
X0072728Y0147464D02*
X0049329Y0147464D01*
X0049329Y0149063D02*
X0073982Y0149063D01*
X0074610Y0151165D02*
X0076338Y0150450D01*
X0078207Y0150450D01*
X0079935Y0151165D01*
X0081257Y0152487D01*
X0081448Y0152950D01*
X0092381Y0152950D01*
X0101093Y0144238D01*
X0102381Y0142950D01*
X0103096Y0142950D01*
X0103288Y0142487D01*
X0104610Y0141165D01*
X0106338Y0140450D01*
X0108207Y0140450D01*
X0109935Y0141165D01*
X0111257Y0142487D01*
X0111972Y0144215D01*
X0111972Y0146084D01*
X0111257Y0147812D01*
X0109935Y0149134D01*
X0108207Y0149849D01*
X0106338Y0149849D01*
X0104610Y0149134D01*
X0103515Y0148039D01*
X0095493Y0156061D01*
X0094204Y0157349D01*
X0081448Y0157349D01*
X0081257Y0157812D01*
X0079935Y0159134D01*
X0078207Y0159849D01*
X0076338Y0159849D01*
X0074610Y0159134D01*
X0073288Y0157812D01*
X0073096Y0157349D01*
X0070873Y0157349D01*
X0066327Y0161895D01*
X0066327Y0166961D01*
X0066458Y0167092D01*
X0066877Y0168103D01*
X0066877Y0169197D01*
X0066458Y0170208D01*
X0065685Y0170981D01*
X0064674Y0171400D01*
X0063580Y0171400D01*
X0062569Y0170981D01*
X0061796Y0170208D01*
X0061377Y0169197D01*
X0061377Y0168103D01*
X0061796Y0167092D01*
X0061927Y0166961D01*
X0061927Y0160073D01*
X0069050Y0152950D01*
X0073096Y0152950D01*
X0073288Y0152487D01*
X0074610Y0151165D01*
X0075826Y0150661D02*
X0049329Y0150661D01*
X0049329Y0152260D02*
X0073515Y0152260D01*
X0069962Y0155150D02*
X0064127Y0160984D01*
X0064127Y0168650D01*
X0064127Y0168650D01*
X0061927Y0166647D02*
X0049329Y0166647D01*
X0049329Y0168245D02*
X0061377Y0168245D01*
X0061645Y0169844D02*
X0049329Y0169844D01*
X0049329Y0171442D02*
X0074333Y0171442D01*
X0073059Y0173041D02*
X0049329Y0173041D01*
X0049329Y0174639D02*
X0066692Y0174639D01*
X0065094Y0176238D02*
X0049329Y0176238D01*
X0049329Y0177836D02*
X0063495Y0177836D01*
X0062260Y0179435D02*
X0049329Y0179435D01*
X0049329Y0181033D02*
X0062260Y0181033D01*
X0062260Y0182632D02*
X0049329Y0182632D01*
X0049329Y0184230D02*
X0062260Y0184230D01*
X0062260Y0185829D02*
X0049329Y0185829D01*
X0049329Y0187427D02*
X0062260Y0187427D01*
X0062260Y0189026D02*
X0059166Y0189026D01*
X0060765Y0190624D02*
X0062260Y0190624D01*
X0064460Y0192648D02*
X0062486Y0194622D01*
X0055711Y0194622D01*
X0052254Y0200215D02*
X0049329Y0200215D01*
X0049329Y0198617D02*
X0050655Y0198617D01*
X0049329Y0201814D02*
X0067593Y0201814D01*
X0067593Y0203412D02*
X0049329Y0203412D01*
X0049329Y0205011D02*
X0053798Y0205011D01*
X0053824Y0204985D02*
X0059126Y0204985D01*
X0062875Y0208734D01*
X0062875Y0209185D01*
X0064143Y0209185D01*
X0067593Y0205735D01*
X0067593Y0186403D01*
X0069593Y0184404D01*
X0070882Y0183115D01*
X0073028Y0183115D01*
X0073288Y0182487D01*
X0074610Y0181165D01*
X0076338Y0180450D01*
X0078207Y0180450D01*
X0079935Y0181165D01*
X0081257Y0182487D01*
X0081972Y0184215D01*
X0081972Y0186084D01*
X0081257Y0187812D01*
X0079935Y0189134D01*
X0078207Y0189849D01*
X0076338Y0189849D01*
X0074610Y0189134D01*
X0073288Y0187812D01*
X0073165Y0187515D01*
X0072704Y0187515D01*
X0071993Y0188226D01*
X0071993Y0207557D01*
X0070704Y0208846D01*
X0065965Y0213585D01*
X0062875Y0213585D01*
X0062875Y0214036D01*
X0059126Y0217785D01*
X0053824Y0217785D01*
X0050075Y0214036D01*
X0050075Y0208734D01*
X0053824Y0204985D01*
X0052200Y0206609D02*
X0049329Y0206609D01*
X0049329Y0208208D02*
X0050601Y0208208D01*
X0050075Y0209806D02*
X0049329Y0209806D01*
X0049329Y0211405D02*
X0050075Y0211405D01*
X0050075Y0213003D02*
X0049329Y0213003D01*
X0049329Y0214602D02*
X0050641Y0214602D01*
X0049329Y0216200D02*
X0052239Y0216200D01*
X0050925Y0220996D02*
X0059331Y0220996D01*
X0060930Y0219397D02*
X0049329Y0219397D01*
X0049329Y0217799D02*
X0062528Y0217799D01*
X0064127Y0216200D02*
X0060710Y0216200D01*
X0062309Y0214602D02*
X0065725Y0214602D01*
X0066547Y0213003D02*
X0067324Y0213003D01*
X0068146Y0211405D02*
X0072572Y0211405D01*
X0074610Y0209134D02*
X0073288Y0207812D01*
X0072572Y0206084D01*
X0072572Y0204215D01*
X0073288Y0202487D01*
X0074610Y0201165D01*
X0076338Y0200450D01*
X0078207Y0200450D01*
X0079935Y0201165D01*
X0081257Y0202487D01*
X0081972Y0204215D01*
X0081972Y0206084D01*
X0081257Y0207812D01*
X0079935Y0209134D01*
X0078207Y0209849D01*
X0076338Y0209849D01*
X0074610Y0209134D01*
X0073684Y0208208D02*
X0071343Y0208208D01*
X0071993Y0206609D02*
X0072790Y0206609D01*
X0072572Y0205011D02*
X0071993Y0205011D01*
X0071993Y0203412D02*
X0072905Y0203412D01*
X0071993Y0201814D02*
X0073961Y0201814D01*
X0071993Y0200215D02*
X0132820Y0200215D01*
X0132820Y0198617D02*
X0110452Y0198617D01*
X0109935Y0199134D02*
X0108207Y0199849D01*
X0106338Y0199849D01*
X0104610Y0199134D01*
X0103288Y0197812D01*
X0102572Y0196084D01*
X0102572Y0194215D01*
X0103288Y0192487D01*
X0104610Y0191165D01*
X0106338Y0190450D01*
X0108207Y0190450D01*
X0109935Y0191165D01*
X0111257Y0192487D01*
X0111448Y0192950D01*
X0113709Y0192950D01*
X0120588Y0186070D01*
X0120588Y0178723D01*
X0120663Y0178648D01*
X0120663Y0068572D01*
X0105802Y0051862D01*
X0105306Y0051862D01*
X0105443Y0051999D01*
X0106159Y0053726D01*
X0106159Y0055596D01*
X0105443Y0057324D01*
X0104121Y0058646D01*
X0102394Y0059361D01*
X0100524Y0059361D01*
X0098796Y0058646D01*
X0097474Y0057324D01*
X0096759Y0055596D01*
X0096759Y0053726D01*
X0097474Y0051999D01*
X0097611Y0051862D01*
X0065306Y0051862D01*
X0065443Y0051999D01*
X0066159Y0053726D01*
X0066159Y0055596D01*
X0065443Y0057324D01*
X0064121Y0058646D01*
X0062394Y0059361D01*
X0060524Y0059361D01*
X0058796Y0058646D01*
X0057474Y0057324D01*
X0056759Y0055596D01*
X0056759Y0053726D01*
X0057474Y0051999D01*
X0057611Y0051862D01*
X0037302Y0051862D01*
X0037270Y0051888D01*
X0037005Y0051862D01*
X0035954Y0051862D01*
X0035538Y0052043D01*
X0035079Y0051862D01*
X0034585Y0051862D01*
X0034331Y0051608D01*
X0033885Y0051577D01*
X0033859Y0051547D01*
X0033821Y0051543D01*
X0033607Y0051282D01*
X0033292Y0051158D01*
X0033064Y0050633D01*
X0010072Y0024210D01*
X0009482Y0023620D01*
X0009482Y0023532D01*
X0009424Y0023465D01*
X0009482Y0022632D01*
X0009482Y0018892D01*
X0008340Y0018419D01*
X0006680Y0016759D01*
X0005782Y0014591D01*
X0005782Y0012244D01*
X0006680Y0010075D01*
X0008340Y0008415D01*
X0010508Y0007517D01*
X0012855Y0007517D01*
X0015024Y0008415D01*
X0016684Y0010075D01*
X0017582Y0012244D01*
X0017582Y0014591D01*
X0016684Y0016759D01*
X0015024Y0018419D01*
X0013882Y0018892D01*
X0013882Y0021885D01*
X0036033Y0047343D01*
X0037224Y0047462D01*
X0105953Y0047462D01*
X0106008Y0047412D01*
X0106854Y0047462D01*
X0107701Y0047462D01*
X0107753Y0047514D01*
X0107828Y0047519D01*
X0108391Y0048152D01*
X0108989Y0048751D01*
X0108989Y0048825D01*
X0124464Y0066225D01*
X0125063Y0066824D01*
X0125063Y0066898D01*
X0125112Y0066954D01*
X0125063Y0067799D01*
X0125063Y0180470D01*
X0124988Y0180545D01*
X0124988Y0187893D01*
X0123699Y0189181D01*
X0115531Y0197349D01*
X0111448Y0197349D01*
X0111257Y0197812D01*
X0109935Y0199134D01*
X0109935Y0201165D02*
X0111257Y0202487D01*
X0111972Y0204215D01*
X0111972Y0206084D01*
X0111257Y0207812D01*
X0109935Y0209134D01*
X0108207Y0209849D01*
X0106338Y0209849D01*
X0104610Y0209134D01*
X0103288Y0207812D01*
X0102572Y0206084D01*
X0102572Y0204215D01*
X0103288Y0202487D01*
X0104610Y0201165D01*
X0106338Y0200450D01*
X0108207Y0200450D01*
X0109935Y0201165D01*
X0110584Y0201814D02*
X0132820Y0201814D01*
X0132820Y0203412D02*
X0111640Y0203412D01*
X0111972Y0205011D02*
X0132820Y0205011D01*
X0132820Y0206609D02*
X0111755Y0206609D01*
X0110861Y0208208D02*
X0132820Y0208208D01*
X0132820Y0209806D02*
X0108311Y0209806D01*
X0108207Y0210450D02*
X0109935Y0211165D01*
X0111257Y0212487D01*
X0111972Y0214215D01*
X0111972Y0216084D01*
X0111257Y0217812D01*
X0109935Y0219134D01*
X0108207Y0219849D01*
X0106338Y0219849D01*
X0104610Y0219134D01*
X0103288Y0217812D01*
X0102572Y0216084D01*
X0102572Y0214215D01*
X0103288Y0212487D01*
X0104610Y0211165D01*
X0106338Y0210450D01*
X0108207Y0210450D01*
X0106233Y0209806D02*
X0078311Y0209806D01*
X0077272Y0215150D02*
X0068289Y0215150D01*
X0059128Y0224311D01*
X0051128Y0224311D01*
X0047899Y0224193D02*
X0004100Y0224193D01*
X0004100Y0222594D02*
X0046301Y0222594D01*
X0044929Y0220996D02*
X0004100Y0220996D01*
X0004100Y0219397D02*
X0044929Y0219397D01*
X0044929Y0217799D02*
X0004100Y0217799D01*
X0004100Y0216200D02*
X0044929Y0216200D01*
X0044929Y0214602D02*
X0004100Y0214602D01*
X0004100Y0213003D02*
X0022256Y0213003D01*
X0022424Y0213171D02*
X0020624Y0211371D01*
X0019649Y0209019D01*
X0019649Y0206473D01*
X0020624Y0204120D01*
X0022424Y0202320D01*
X0024776Y0201346D01*
X0027322Y0201346D01*
X0029675Y0202320D01*
X0031475Y0204120D01*
X0032449Y0206473D01*
X0032449Y0209019D01*
X0031475Y0211371D01*
X0029675Y0213171D01*
X0027322Y0214146D01*
X0024776Y0214146D01*
X0022424Y0213171D01*
X0020657Y0211405D02*
X0004100Y0211405D01*
X0004100Y0209806D02*
X0019976Y0209806D01*
X0019649Y0208208D02*
X0004100Y0208208D01*
X0004100Y0206609D02*
X0019649Y0206609D01*
X0020255Y0205011D02*
X0004100Y0205011D01*
X0004100Y0203412D02*
X0021332Y0203412D01*
X0023646Y0201814D02*
X0004100Y0201814D01*
X0004100Y0200215D02*
X0044929Y0200215D01*
X0044929Y0198617D02*
X0004100Y0198617D01*
X0004100Y0197018D02*
X0044929Y0197018D01*
X0044929Y0195420D02*
X0004100Y0195420D01*
X0004100Y0193821D02*
X0022508Y0193821D01*
X0023233Y0194546D02*
X0019249Y0190562D01*
X0019249Y0187946D01*
X0025849Y0187946D01*
X0025849Y0194546D01*
X0023233Y0194546D01*
X0020910Y0192223D02*
X0004100Y0192223D01*
X0004100Y0190624D02*
X0019311Y0190624D01*
X0019249Y0189026D02*
X0004100Y0189026D01*
X0004100Y0187427D02*
X0019249Y0187427D01*
X0019249Y0187546D02*
X0019249Y0184929D01*
X0023233Y0180946D01*
X0025849Y0180946D01*
X0025849Y0187546D01*
X0019249Y0187546D01*
X0019249Y0185829D02*
X0004100Y0185829D01*
X0004100Y0184230D02*
X0019948Y0184230D01*
X0021547Y0182632D02*
X0004100Y0182632D01*
X0004100Y0181033D02*
X0023145Y0181033D01*
X0025849Y0181033D02*
X0026249Y0181033D01*
X0026249Y0180946D02*
X0028866Y0180946D01*
X0032849Y0184929D01*
X0032849Y0187546D01*
X0026249Y0187546D01*
X0026249Y0187946D01*
X0025849Y0187946D01*
X0025849Y0187546D01*
X0026249Y0187546D01*
X0026249Y0180946D01*
X0026249Y0182632D02*
X0025849Y0182632D01*
X0025849Y0184230D02*
X0026249Y0184230D01*
X0026249Y0185829D02*
X0025849Y0185829D01*
X0025849Y0187427D02*
X0026249Y0187427D01*
X0026249Y0187946D02*
X0032849Y0187946D01*
X0032849Y0190562D01*
X0028866Y0194546D01*
X0026249Y0194546D01*
X0026249Y0187946D01*
X0026249Y0189026D02*
X0025849Y0189026D01*
X0025849Y0190624D02*
X0026249Y0190624D01*
X0026249Y0192223D02*
X0025849Y0192223D01*
X0025849Y0193821D02*
X0026249Y0193821D01*
X0029590Y0193821D02*
X0044929Y0193821D01*
X0044929Y0192223D02*
X0031189Y0192223D01*
X0032787Y0190624D02*
X0044929Y0190624D01*
X0044929Y0189026D02*
X0032849Y0189026D01*
X0032849Y0187427D02*
X0044929Y0187427D01*
X0044929Y0185829D02*
X0032849Y0185829D01*
X0032150Y0184230D02*
X0044929Y0184230D01*
X0044929Y0182632D02*
X0030552Y0182632D01*
X0028953Y0181033D02*
X0044929Y0181033D01*
X0044929Y0179435D02*
X0004100Y0179435D01*
X0004100Y0177836D02*
X0044929Y0177836D01*
X0044929Y0176238D02*
X0004100Y0176238D01*
X0004100Y0174639D02*
X0044929Y0174639D01*
X0044929Y0173041D02*
X0004100Y0173041D01*
X0004100Y0171442D02*
X0044929Y0171442D01*
X0044929Y0169844D02*
X0004100Y0169844D01*
X0004100Y0168245D02*
X0044929Y0168245D01*
X0044929Y0166647D02*
X0004100Y0166647D01*
X0004100Y0165048D02*
X0044929Y0165048D01*
X0044929Y0163450D02*
X0004100Y0163450D01*
X0004100Y0161851D02*
X0044929Y0161851D01*
X0044929Y0160253D02*
X0004100Y0160253D01*
X0004100Y0158654D02*
X0044929Y0158654D01*
X0044929Y0157055D02*
X0004100Y0157055D01*
X0004100Y0155457D02*
X0044929Y0155457D01*
X0044929Y0153858D02*
X0004100Y0153858D01*
X0004100Y0152260D02*
X0044929Y0152260D01*
X0044929Y0150661D02*
X0004100Y0150661D01*
X0004100Y0149063D02*
X0044929Y0149063D01*
X0044929Y0147464D02*
X0004100Y0147464D01*
X0004100Y0145866D02*
X0044929Y0145866D01*
X0044929Y0144267D02*
X0004100Y0144267D01*
X0004100Y0142669D02*
X0044929Y0142669D01*
X0044929Y0141070D02*
X0004100Y0141070D01*
X0004100Y0139472D02*
X0044379Y0139472D01*
X0044751Y0137873D02*
X0004100Y0137873D01*
X0004100Y0136275D02*
X0072651Y0136275D01*
X0072572Y0134676D02*
X0004100Y0134676D01*
X0004100Y0133078D02*
X0073043Y0133078D01*
X0074296Y0131479D02*
X0004100Y0131479D01*
X0004100Y0129881D02*
X0120663Y0129881D01*
X0120663Y0131479D02*
X0110249Y0131479D01*
X0109935Y0131165D02*
X0111257Y0132487D01*
X0111972Y0134215D01*
X0111972Y0136084D01*
X0111257Y0137812D01*
X0109935Y0139134D01*
X0108207Y0139849D01*
X0106338Y0139849D01*
X0104610Y0139134D01*
X0103288Y0137812D01*
X0102572Y0136084D01*
X0102572Y0134215D01*
X0103288Y0132487D01*
X0104610Y0131165D01*
X0106338Y0130450D01*
X0108207Y0130450D01*
X0109935Y0131165D01*
X0109935Y0129134D02*
X0108207Y0129849D01*
X0106338Y0129849D01*
X0104610Y0129134D01*
X0103288Y0127812D01*
X0102572Y0126084D01*
X0102572Y0124215D01*
X0102764Y0123752D01*
X0084547Y0105535D01*
X0083258Y0104247D01*
X0083258Y0076904D01*
X0083214Y0076859D01*
X0077370Y0076859D01*
X0073326Y0080903D01*
X0073326Y0082449D01*
X0074610Y0081165D01*
X0076338Y0080450D01*
X0078207Y0080450D01*
X0079935Y0081165D01*
X0081257Y0082487D01*
X0081972Y0084215D01*
X0081972Y0086084D01*
X0081257Y0087812D01*
X0079935Y0089134D01*
X0078207Y0089849D01*
X0076338Y0089849D01*
X0074610Y0089134D01*
X0073326Y0087850D01*
X0073326Y0092449D01*
X0074610Y0091165D01*
X0076338Y0090450D01*
X0078207Y0090450D01*
X0079935Y0091165D01*
X0081257Y0092487D01*
X0081972Y0094215D01*
X0081972Y0096084D01*
X0081257Y0097812D01*
X0079935Y0099134D01*
X0078207Y0099849D01*
X0076338Y0099849D01*
X0074610Y0099134D01*
X0073326Y0097850D01*
X0073326Y0101568D01*
X0070371Y0104523D01*
X0066150Y0104523D01*
X0063950Y0106723D01*
X0060305Y0106723D01*
X0057728Y0104146D01*
X0057728Y0100501D01*
X0060305Y0097923D01*
X0063950Y0097923D01*
X0066150Y0100123D01*
X0068549Y0100123D01*
X0068926Y0099745D01*
X0068926Y0080304D01*
X0064327Y0084903D01*
X0064328Y0088300D01*
X0066528Y0090501D01*
X0066528Y0094146D01*
X0063950Y0096723D01*
X0060305Y0096723D01*
X0057728Y0094146D01*
X0057728Y0090501D01*
X0059928Y0088301D01*
X0059927Y0084903D01*
X0059927Y0083912D01*
X0059927Y0083081D01*
X0059927Y0083080D01*
X0060620Y0082388D01*
X0061216Y0081792D01*
X0077214Y0065793D01*
X0092036Y0065793D01*
X0093324Y0067082D01*
X0097702Y0071459D01*
X0102368Y0071459D01*
X0103657Y0072748D01*
X0107034Y0076126D01*
X0114367Y0076126D01*
X0115655Y0077414D01*
X0115989Y0077748D01*
X0115989Y0112900D01*
X0114700Y0114189D01*
X0111539Y0117349D01*
X0111448Y0117349D01*
X0111257Y0117812D01*
X0109935Y0119134D01*
X0108207Y0119849D01*
X0106338Y0119849D01*
X0104610Y0119134D01*
X0103288Y0117812D01*
X0102572Y0116084D01*
X0102572Y0114215D01*
X0103288Y0112487D01*
X0104610Y0111165D01*
X0106338Y0110450D01*
X0108207Y0110450D01*
X0109935Y0111165D01*
X0110718Y0111948D01*
X0111589Y0111078D01*
X0111589Y0107011D01*
X0111257Y0107812D01*
X0109935Y0109134D01*
X0108207Y0109849D01*
X0106338Y0109849D01*
X0104610Y0109134D01*
X0103288Y0107812D01*
X0102572Y0106084D01*
X0102572Y0104215D01*
X0103288Y0102487D01*
X0104610Y0101165D01*
X0106338Y0100450D01*
X0108207Y0100450D01*
X0109935Y0101165D01*
X0111257Y0102487D01*
X0111589Y0103288D01*
X0111589Y0097011D01*
X0111257Y0097812D01*
X0109935Y0099134D01*
X0108207Y0099849D01*
X0106338Y0099849D01*
X0104610Y0099134D01*
X0103288Y0097812D01*
X0102572Y0096084D01*
X0102572Y0094215D01*
X0103288Y0092487D01*
X0104610Y0091165D01*
X0106338Y0090450D01*
X0108207Y0090450D01*
X0109935Y0091165D01*
X0111257Y0092487D01*
X0111589Y0093288D01*
X0111589Y0087011D01*
X0111257Y0087812D01*
X0109935Y0089134D01*
X0108207Y0089849D01*
X0106338Y0089849D01*
X0104610Y0089134D01*
X0103288Y0087812D01*
X0102572Y0086084D01*
X0102572Y0084215D01*
X0103288Y0082487D01*
X0104610Y0081165D01*
X0106154Y0080526D01*
X0105212Y0080526D01*
X0100545Y0075859D01*
X0095879Y0075859D01*
X0094590Y0074571D01*
X0090213Y0070193D01*
X0079037Y0070193D01*
X0076771Y0072459D01*
X0085036Y0072459D01*
X0086325Y0073748D01*
X0086370Y0073793D01*
X0087658Y0075081D01*
X0087658Y0102424D01*
X0105875Y0120641D01*
X0106338Y0120450D01*
X0108207Y0120450D01*
X0109935Y0121165D01*
X0111257Y0122487D01*
X0111972Y0124215D01*
X0111972Y0126084D01*
X0111257Y0127812D01*
X0109935Y0129134D01*
X0110786Y0128282D02*
X0120663Y0128282D01*
X0120663Y0126684D02*
X0111724Y0126684D01*
X0111972Y0125085D02*
X0120663Y0125085D01*
X0120663Y0123487D02*
X0111671Y0123487D01*
X0110658Y0121888D02*
X0120663Y0121888D01*
X0120663Y0120290D02*
X0105524Y0120290D01*
X0104167Y0118691D02*
X0103925Y0118691D01*
X0102990Y0117093D02*
X0102327Y0117093D01*
X0102572Y0115494D02*
X0100728Y0115494D01*
X0099130Y0113896D02*
X0102705Y0113896D01*
X0103478Y0112297D02*
X0097531Y0112297D01*
X0095933Y0110699D02*
X0105736Y0110699D01*
X0104576Y0109100D02*
X0094334Y0109100D01*
X0092736Y0107502D02*
X0103159Y0107502D01*
X0102572Y0105903D02*
X0091137Y0105903D01*
X0089539Y0104305D02*
X0102572Y0104305D01*
X0103197Y0102706D02*
X0087940Y0102706D01*
X0087658Y0101108D02*
X0104749Y0101108D01*
X0105516Y0099509D02*
X0087658Y0099509D01*
X0087658Y0097911D02*
X0103387Y0097911D01*
X0102667Y0096312D02*
X0087658Y0096312D01*
X0087658Y0094714D02*
X0102572Y0094714D01*
X0103028Y0093115D02*
X0087658Y0093115D01*
X0087658Y0091517D02*
X0104259Y0091517D01*
X0103796Y0088320D02*
X0087658Y0088320D01*
X0087658Y0089918D02*
X0111589Y0089918D01*
X0111589Y0088320D02*
X0110749Y0088320D01*
X0110286Y0091517D02*
X0111589Y0091517D01*
X0111589Y0093115D02*
X0111517Y0093115D01*
X0111589Y0097911D02*
X0111158Y0097911D01*
X0111589Y0099509D02*
X0109029Y0099509D01*
X0109796Y0101108D02*
X0111589Y0101108D01*
X0111589Y0102706D02*
X0111348Y0102706D01*
X0111385Y0107502D02*
X0111589Y0107502D01*
X0111589Y0109100D02*
X0109969Y0109100D01*
X0108809Y0110699D02*
X0111589Y0110699D01*
X0113789Y0111989D02*
X0110628Y0115150D01*
X0107272Y0115150D01*
X0110378Y0118691D02*
X0120663Y0118691D01*
X0120663Y0117093D02*
X0111796Y0117093D01*
X0113395Y0115494D02*
X0120663Y0115494D01*
X0120663Y0113896D02*
X0114993Y0113896D01*
X0115989Y0112297D02*
X0120663Y0112297D01*
X0120663Y0110699D02*
X0115989Y0110699D01*
X0115989Y0109100D02*
X0120663Y0109100D01*
X0120663Y0107502D02*
X0115989Y0107502D01*
X0115989Y0105903D02*
X0120663Y0105903D01*
X0120663Y0104305D02*
X0115989Y0104305D01*
X0115989Y0102706D02*
X0120663Y0102706D01*
X0120663Y0101108D02*
X0115989Y0101108D01*
X0115989Y0099509D02*
X0120663Y0099509D01*
X0120663Y0097911D02*
X0115989Y0097911D01*
X0115989Y0096312D02*
X0120663Y0096312D01*
X0120663Y0094714D02*
X0115989Y0094714D01*
X0115989Y0093115D02*
X0120663Y0093115D01*
X0120663Y0091517D02*
X0115989Y0091517D01*
X0115989Y0089918D02*
X0120663Y0089918D01*
X0120663Y0088320D02*
X0115989Y0088320D01*
X0115989Y0086721D02*
X0120663Y0086721D01*
X0120663Y0085122D02*
X0115989Y0085122D01*
X0115989Y0083524D02*
X0120663Y0083524D01*
X0120663Y0081925D02*
X0115989Y0081925D01*
X0115989Y0080327D02*
X0120663Y0080327D01*
X0120663Y0078728D02*
X0115989Y0078728D01*
X0115371Y0077130D02*
X0120663Y0077130D01*
X0120663Y0075531D02*
X0106440Y0075531D01*
X0104841Y0073933D02*
X0120663Y0073933D01*
X0120663Y0072334D02*
X0103243Y0072334D01*
X0101457Y0073659D02*
X0096790Y0073659D01*
X0091124Y0067993D01*
X0078126Y0067993D01*
X0062127Y0083992D01*
X0062128Y0092323D01*
X0064361Y0096312D02*
X0068926Y0096312D01*
X0068926Y0094714D02*
X0065960Y0094714D01*
X0066528Y0093115D02*
X0068926Y0093115D01*
X0068926Y0091517D02*
X0066528Y0091517D01*
X0065945Y0089918D02*
X0068926Y0089918D01*
X0068926Y0088320D02*
X0064347Y0088320D01*
X0064327Y0086721D02*
X0068926Y0086721D01*
X0068926Y0085122D02*
X0064327Y0085122D01*
X0065706Y0083524D02*
X0068926Y0083524D01*
X0068926Y0081925D02*
X0067305Y0081925D01*
X0068903Y0080327D02*
X0068926Y0080327D01*
X0071126Y0079992D02*
X0071126Y0100657D01*
X0069460Y0102323D01*
X0063128Y0102323D01*
X0062128Y0102323D01*
X0065536Y0099509D02*
X0068926Y0099509D01*
X0068926Y0097911D02*
X0019314Y0097911D01*
X0018512Y0098712D02*
X0020853Y0096371D01*
X0022120Y0093313D01*
X0022120Y0090002D01*
X0020853Y0086944D01*
X0018512Y0084603D01*
X0015454Y0083336D01*
X0012144Y0083336D01*
X0009085Y0084603D01*
X0006744Y0086944D01*
X0005478Y0090002D01*
X0005478Y0093313D01*
X0006744Y0096371D01*
X0009085Y0098712D01*
X0012144Y0099979D01*
X0015454Y0099979D01*
X0018512Y0098712D01*
X0016588Y0099509D02*
X0048719Y0099509D01*
X0047728Y0100501D02*
X0050305Y0097923D01*
X0053950Y0097923D01*
X0056528Y0100501D01*
X0056528Y0104146D01*
X0053950Y0106723D01*
X0050305Y0106723D01*
X0047728Y0104146D01*
X0047728Y0100501D01*
X0047728Y0101108D02*
X0004100Y0101108D01*
X0004100Y0102706D02*
X0047728Y0102706D01*
X0047887Y0104305D02*
X0004100Y0104305D01*
X0004100Y0105903D02*
X0049485Y0105903D01*
X0050140Y0107523D02*
X0047328Y0110335D01*
X0047328Y0112123D01*
X0051928Y0112123D01*
X0052328Y0112123D01*
X0052328Y0112523D01*
X0056928Y0112523D01*
X0056928Y0114311D01*
X0054116Y0117123D01*
X0052328Y0117123D01*
X0052328Y0112523D01*
X0051928Y0112523D01*
X0051928Y0112123D01*
X0051928Y0107523D01*
X0050140Y0107523D01*
X0048563Y0109100D02*
X0004100Y0109100D01*
X0004100Y0107502D02*
X0073159Y0107502D01*
X0073288Y0107812D02*
X0072572Y0106084D01*
X0072572Y0104215D01*
X0073288Y0102487D01*
X0074610Y0101165D01*
X0076338Y0100450D01*
X0078207Y0100450D01*
X0079935Y0101165D01*
X0081257Y0102487D01*
X0081972Y0104215D01*
X0081972Y0106084D01*
X0081257Y0107812D01*
X0079935Y0109134D01*
X0078207Y0109849D01*
X0076338Y0109849D01*
X0074610Y0109134D01*
X0073288Y0107812D01*
X0074576Y0109100D02*
X0065127Y0109100D01*
X0063950Y0107923D02*
X0066528Y0110501D01*
X0066528Y0114146D01*
X0063950Y0116723D01*
X0060305Y0116723D01*
X0057728Y0114146D01*
X0057728Y0110501D01*
X0060305Y0107923D01*
X0063950Y0107923D01*
X0064770Y0105903D02*
X0072572Y0105903D01*
X0072572Y0104305D02*
X0070590Y0104305D01*
X0072188Y0102706D02*
X0073197Y0102706D01*
X0073326Y0101108D02*
X0074749Y0101108D01*
X0075516Y0099509D02*
X0073326Y0099509D01*
X0073326Y0097911D02*
X0073387Y0097911D01*
X0073326Y0091517D02*
X0074259Y0091517D01*
X0073326Y0089918D02*
X0083258Y0089918D01*
X0083258Y0088320D02*
X0080749Y0088320D01*
X0081709Y0086721D02*
X0083258Y0086721D01*
X0083258Y0085122D02*
X0081972Y0085122D01*
X0081686Y0083524D02*
X0083258Y0083524D01*
X0083258Y0081925D02*
X0080695Y0081925D01*
X0083258Y0080327D02*
X0073903Y0080327D01*
X0073850Y0081925D02*
X0073326Y0081925D01*
X0071126Y0079992D02*
X0076459Y0074659D01*
X0084125Y0074659D01*
X0085458Y0075993D01*
X0085458Y0103335D01*
X0107272Y0125150D01*
X0104296Y0131479D02*
X0080249Y0131479D01*
X0081502Y0133078D02*
X0103043Y0133078D01*
X0102572Y0134676D02*
X0081972Y0134676D01*
X0081894Y0136275D02*
X0102651Y0136275D01*
X0103349Y0137873D02*
X0081195Y0137873D01*
X0080335Y0141070D02*
X0104839Y0141070D01*
X0105426Y0139472D02*
X0079119Y0139472D01*
X0077572Y0141070D02*
X0076972Y0141070D01*
X0076972Y0142669D02*
X0077572Y0142669D01*
X0077572Y0144267D02*
X0076972Y0144267D01*
X0076972Y0145866D02*
X0077572Y0145866D01*
X0077572Y0147464D02*
X0076972Y0147464D01*
X0076972Y0149063D02*
X0077572Y0149063D01*
X0078719Y0150661D02*
X0094669Y0150661D01*
X0096268Y0149063D02*
X0080563Y0149063D01*
X0081817Y0147464D02*
X0097866Y0147464D01*
X0099465Y0145866D02*
X0082323Y0145866D01*
X0082296Y0144267D02*
X0101063Y0144267D01*
X0103293Y0145150D02*
X0107272Y0145150D01*
X0106972Y0150050D02*
X0106972Y0154849D01*
X0107572Y0154849D01*
X0107572Y0150050D01*
X0107674Y0150050D01*
X0108467Y0150175D01*
X0109230Y0150423D01*
X0109945Y0150788D01*
X0110595Y0151259D01*
X0111162Y0151827D01*
X0111634Y0152477D01*
X0111999Y0153192D01*
X0112247Y0153955D01*
X0112372Y0154748D01*
X0112372Y0154849D01*
X0107573Y0154849D01*
X0107573Y0155450D01*
X0112372Y0155450D01*
X0112372Y0155551D01*
X0112247Y0156344D01*
X0111999Y0157107D01*
X0111634Y0157822D01*
X0111162Y0158472D01*
X0110595Y0159040D01*
X0109945Y0159511D01*
X0109230Y0159876D01*
X0108467Y0160124D01*
X0107674Y0160249D01*
X0107572Y0160249D01*
X0107572Y0155450D01*
X0106972Y0155450D01*
X0106972Y0160249D01*
X0106871Y0160249D01*
X0106078Y0160124D01*
X0105315Y0159876D01*
X0104599Y0159511D01*
X0103950Y0159040D01*
X0103382Y0158472D01*
X0102911Y0157822D01*
X0102546Y0157107D01*
X0102298Y0156344D01*
X0102172Y0155551D01*
X0102172Y0155450D01*
X0106972Y0155450D01*
X0106972Y0154849D01*
X0102172Y0154849D01*
X0102172Y0154748D01*
X0102298Y0153955D01*
X0102546Y0153192D01*
X0102911Y0152477D01*
X0103382Y0151827D01*
X0103950Y0151259D01*
X0104599Y0150788D01*
X0105315Y0150423D01*
X0106078Y0150175D01*
X0106871Y0150050D01*
X0106972Y0150050D01*
X0106972Y0150661D02*
X0107572Y0150661D01*
X0107572Y0152260D02*
X0106972Y0152260D01*
X0106972Y0153858D02*
X0107572Y0153858D01*
X0107572Y0155457D02*
X0106972Y0155457D01*
X0106972Y0157055D02*
X0107572Y0157055D01*
X0107572Y0158654D02*
X0106972Y0158654D01*
X0106338Y0160450D02*
X0108207Y0160450D01*
X0109935Y0161165D01*
X0111257Y0162487D01*
X0111972Y0164215D01*
X0111972Y0166084D01*
X0111257Y0167812D01*
X0109935Y0169134D01*
X0108207Y0169849D01*
X0106338Y0169849D01*
X0104610Y0169134D01*
X0103288Y0167812D01*
X0102572Y0166084D01*
X0102572Y0164215D01*
X0103288Y0162487D01*
X0104610Y0161165D01*
X0106338Y0160450D01*
X0103924Y0161851D02*
X0080621Y0161851D01*
X0081257Y0162487D02*
X0079935Y0161165D01*
X0078207Y0160450D01*
X0076338Y0160450D01*
X0074610Y0161165D01*
X0073288Y0162487D01*
X0072572Y0164215D01*
X0072572Y0166084D01*
X0073288Y0167812D01*
X0074610Y0169134D01*
X0076338Y0169849D01*
X0078207Y0169849D01*
X0079935Y0169134D01*
X0081257Y0167812D01*
X0081972Y0166084D01*
X0081972Y0164215D01*
X0081257Y0162487D01*
X0081656Y0163450D02*
X0102889Y0163450D01*
X0102572Y0165048D02*
X0081972Y0165048D01*
X0081740Y0166647D02*
X0102805Y0166647D01*
X0103721Y0168245D02*
X0080824Y0168245D01*
X0078222Y0169844D02*
X0106323Y0169844D01*
X0106338Y0170450D02*
X0108207Y0170450D01*
X0109935Y0171165D01*
X0111257Y0172487D01*
X0111972Y0174215D01*
X0111972Y0176084D01*
X0111257Y0177812D01*
X0109935Y0179134D01*
X0108207Y0179849D01*
X0106338Y0179849D01*
X0104610Y0179134D01*
X0103288Y0177812D01*
X0102572Y0176084D01*
X0102572Y0174215D01*
X0103288Y0172487D01*
X0104610Y0171165D01*
X0106338Y0170450D01*
X0108222Y0169844D02*
X0120663Y0169844D01*
X0120663Y0171442D02*
X0110212Y0171442D01*
X0111486Y0173041D02*
X0120663Y0173041D01*
X0120663Y0174639D02*
X0111972Y0174639D01*
X0111909Y0176238D02*
X0120663Y0176238D01*
X0120663Y0177836D02*
X0111233Y0177836D01*
X0109935Y0181165D02*
X0111257Y0182487D01*
X0111972Y0184215D01*
X0111972Y0186084D01*
X0111257Y0187812D01*
X0109935Y0189134D01*
X0108207Y0189849D01*
X0106338Y0189849D01*
X0104610Y0189134D01*
X0103288Y0187812D01*
X0102572Y0186084D01*
X0102572Y0184215D01*
X0103288Y0182487D01*
X0104610Y0181165D01*
X0106338Y0180450D01*
X0108207Y0180450D01*
X0109935Y0181165D01*
X0109616Y0181033D02*
X0120588Y0181033D01*
X0120588Y0179435D02*
X0109209Y0179435D01*
X0111317Y0182632D02*
X0120588Y0182632D01*
X0120588Y0184230D02*
X0111972Y0184230D01*
X0111972Y0185829D02*
X0120588Y0185829D01*
X0119231Y0187427D02*
X0111416Y0187427D01*
X0110043Y0189026D02*
X0117632Y0189026D01*
X0116034Y0190624D02*
X0108629Y0190624D01*
X0107272Y0195150D02*
X0114620Y0195150D01*
X0122788Y0186981D01*
X0122788Y0179634D01*
X0122863Y0179559D01*
X0122863Y0067735D01*
X0106790Y0049662D01*
X0035497Y0049662D01*
X0034946Y0049445D01*
X0036582Y0049609D01*
X0034946Y0049445D02*
X0011682Y0022709D01*
X0011682Y0013417D01*
X0014972Y0008394D02*
X0037878Y0008394D01*
X0037578Y0008612D02*
X0038380Y0008029D01*
X0039264Y0007579D01*
X0040207Y0007272D01*
X0041186Y0007117D01*
X0041202Y0007117D01*
X0041202Y0012938D01*
X0035382Y0012938D01*
X0035382Y0012921D01*
X0035537Y0011942D01*
X0035843Y0010999D01*
X0036294Y0010115D01*
X0036877Y0009313D01*
X0037578Y0008612D01*
X0036383Y0009992D02*
X0016601Y0009992D01*
X0017312Y0011591D02*
X0035651Y0011591D01*
X0035382Y0013897D02*
X0041202Y0013897D01*
X0041202Y0012938D01*
X0042161Y0012938D01*
X0042161Y0007117D01*
X0042178Y0007117D01*
X0043157Y0007272D01*
X0044100Y0007579D01*
X0044984Y0008029D01*
X0045786Y0008612D01*
X0046487Y0009313D01*
X0047070Y0010115D01*
X0047520Y0010999D01*
X0047827Y0011942D01*
X0047982Y0012921D01*
X0047982Y0012938D01*
X0042161Y0012938D01*
X0042161Y0013897D01*
X0041202Y0013897D01*
X0041202Y0019717D01*
X0041186Y0019717D01*
X0040207Y0019562D01*
X0039264Y0019256D01*
X0038380Y0018805D01*
X0037578Y0018223D01*
X0036877Y0017521D01*
X0036294Y0016719D01*
X0035843Y0015836D01*
X0035537Y0014892D01*
X0035382Y0013913D01*
X0035382Y0013897D01*
X0035520Y0014788D02*
X0017500Y0014788D01*
X0017582Y0013189D02*
X0041202Y0013189D01*
X0042161Y0013189D02*
X0115467Y0013189D01*
X0115467Y0014654D02*
X0115467Y0011344D01*
X0116733Y0008285D01*
X0119074Y0005944D01*
X0122133Y0004678D01*
X0125443Y0004678D01*
X0128501Y0005944D01*
X0130842Y0008285D01*
X0132109Y0011344D01*
X0132109Y0014654D01*
X0130842Y0017712D01*
X0128501Y0020053D01*
X0125443Y0021320D01*
X0122133Y0021320D01*
X0119074Y0020053D01*
X0116733Y0017712D01*
X0115467Y0014654D01*
X0115522Y0014788D02*
X0047843Y0014788D01*
X0047827Y0014892D02*
X0047520Y0015836D01*
X0047070Y0016719D01*
X0046487Y0017521D01*
X0045786Y0018223D01*
X0044984Y0018805D01*
X0044100Y0019256D01*
X0043157Y0019562D01*
X0042178Y0019717D01*
X0042161Y0019717D01*
X0042161Y0013897D01*
X0047982Y0013897D01*
X0047982Y0013913D01*
X0047827Y0014892D01*
X0047240Y0016387D02*
X0116184Y0016387D01*
X0117006Y0017985D02*
X0046024Y0017985D01*
X0043022Y0019584D02*
X0058411Y0019584D01*
X0058813Y0019182D02*
X0060623Y0018432D01*
X0062583Y0018432D01*
X0064393Y0019182D01*
X0065778Y0020567D01*
X0066528Y0022377D01*
X0066528Y0031386D01*
X0065778Y0033197D01*
X0064393Y0034582D01*
X0062583Y0035332D01*
X0060623Y0035332D01*
X0058813Y0034582D01*
X0057428Y0033197D01*
X0056678Y0031386D01*
X0056678Y0022377D01*
X0057428Y0020567D01*
X0058813Y0019182D01*
X0057173Y0021182D02*
X0013882Y0021182D01*
X0013882Y0019584D02*
X0040342Y0019584D01*
X0041202Y0019584D02*
X0042161Y0019584D01*
X0042161Y0017985D02*
X0041202Y0017985D01*
X0041202Y0016387D02*
X0042161Y0016387D01*
X0042161Y0014788D02*
X0041202Y0014788D01*
X0041202Y0011591D02*
X0042161Y0011591D01*
X0042161Y0009992D02*
X0041202Y0009992D01*
X0041202Y0008394D02*
X0042161Y0008394D01*
X0045486Y0008394D02*
X0116688Y0008394D01*
X0116026Y0009992D02*
X0046981Y0009992D01*
X0047713Y0011591D02*
X0115467Y0011591D01*
X0118223Y0006795D02*
X0004100Y0006795D01*
X0004100Y0005197D02*
X0120879Y0005197D01*
X0126697Y0005197D02*
X0132820Y0005197D01*
X0132820Y0006795D02*
X0129352Y0006795D01*
X0130887Y0008394D02*
X0132820Y0008394D01*
X0132820Y0009992D02*
X0131549Y0009992D01*
X0132109Y0011591D02*
X0132820Y0011591D01*
X0132820Y0013189D02*
X0132109Y0013189D01*
X0132054Y0014788D02*
X0132820Y0014788D01*
X0132820Y0016387D02*
X0131391Y0016387D01*
X0130570Y0017985D02*
X0132820Y0017985D01*
X0132820Y0019584D02*
X0128971Y0019584D01*
X0125776Y0021182D02*
X0132820Y0021182D01*
X0132820Y0022781D02*
X0086213Y0022781D01*
X0086213Y0022377D02*
X0085463Y0020567D01*
X0084078Y0019182D01*
X0082268Y0018432D01*
X0080309Y0018432D01*
X0078498Y0019182D01*
X0077113Y0020567D01*
X0076363Y0022377D01*
X0076363Y0031386D01*
X0077113Y0033197D01*
X0078498Y0034582D01*
X0080309Y0035332D01*
X0082268Y0035332D01*
X0084078Y0034582D01*
X0085463Y0033197D01*
X0086213Y0031386D01*
X0086213Y0022377D01*
X0085718Y0021182D02*
X0121799Y0021182D01*
X0118604Y0019584D02*
X0084480Y0019584D01*
X0086213Y0024379D02*
X0132820Y0024379D01*
X0132820Y0025978D02*
X0086213Y0025978D01*
X0086213Y0027576D02*
X0132820Y0027576D01*
X0132820Y0029175D02*
X0107656Y0029175D01*
X0107495Y0029014D02*
X0109955Y0031474D01*
X0109955Y0033214D01*
X0109955Y0034954D01*
X0107495Y0037414D01*
X0105755Y0037414D01*
X0104016Y0037414D01*
X0101555Y0034954D01*
X0101555Y0033214D01*
X0101555Y0031474D01*
X0104016Y0029014D01*
X0105755Y0029014D01*
X0105755Y0033214D01*
X0105755Y0033214D01*
X0101555Y0033214D01*
X0105755Y0033214D01*
X0105755Y0037414D01*
X0105755Y0033214D01*
X0105755Y0033214D01*
X0105755Y0033214D01*
X0105755Y0029014D01*
X0107495Y0029014D01*
X0105755Y0029175D02*
X0105755Y0029175D01*
X0105755Y0030773D02*
X0105755Y0030773D01*
X0105755Y0032372D02*
X0105755Y0032372D01*
X0105755Y0033214D02*
X0105755Y0033214D01*
X0109955Y0033214D01*
X0105755Y0033214D01*
X0105755Y0033970D02*
X0105755Y0033970D01*
X0105755Y0035569D02*
X0105755Y0035569D01*
X0105755Y0037167D02*
X0105755Y0037167D01*
X0107742Y0037167D02*
X0132820Y0037167D01*
X0132820Y0035569D02*
X0118775Y0035569D01*
X0119555Y0034788D02*
X0117329Y0037014D01*
X0114181Y0037014D01*
X0111955Y0034788D01*
X0111955Y0031640D01*
X0114181Y0029414D01*
X0117329Y0029414D01*
X0119555Y0031640D01*
X0119555Y0034788D01*
X0119555Y0033970D02*
X0132820Y0033970D01*
X0132820Y0032372D02*
X0119555Y0032372D01*
X0118688Y0030773D02*
X0132820Y0030773D01*
X0132820Y0038766D02*
X0028570Y0038766D01*
X0029961Y0040364D02*
X0132820Y0040364D01*
X0132820Y0041963D02*
X0031352Y0041963D01*
X0032743Y0043561D02*
X0132820Y0043561D01*
X0132820Y0045160D02*
X0034134Y0045160D01*
X0035525Y0046758D02*
X0132820Y0046758D01*
X0132820Y0048357D02*
X0108596Y0048357D01*
X0109995Y0049955D02*
X0132820Y0049955D01*
X0132820Y0051554D02*
X0111416Y0051554D01*
X0112838Y0053152D02*
X0132820Y0053152D01*
X0132820Y0054751D02*
X0114260Y0054751D01*
X0115681Y0056349D02*
X0132820Y0056349D01*
X0132820Y0057948D02*
X0117103Y0057948D01*
X0118524Y0059546D02*
X0132820Y0059546D01*
X0132820Y0061145D02*
X0119946Y0061145D01*
X0121368Y0062743D02*
X0132820Y0062743D01*
X0132820Y0064342D02*
X0122789Y0064342D01*
X0124211Y0065940D02*
X0132820Y0065940D01*
X0132820Y0067539D02*
X0125078Y0067539D01*
X0125063Y0069137D02*
X0132820Y0069137D01*
X0132820Y0070736D02*
X0125063Y0070736D01*
X0125063Y0072334D02*
X0132820Y0072334D01*
X0132820Y0073933D02*
X0125063Y0073933D01*
X0125063Y0075531D02*
X0132820Y0075531D01*
X0132820Y0077130D02*
X0125063Y0077130D01*
X0125063Y0078728D02*
X0132820Y0078728D01*
X0132820Y0080327D02*
X0125063Y0080327D01*
X0125063Y0081925D02*
X0132820Y0081925D01*
X0132820Y0083524D02*
X0125063Y0083524D01*
X0125063Y0085122D02*
X0132820Y0085122D01*
X0132820Y0086721D02*
X0125063Y0086721D01*
X0125063Y0088320D02*
X0132820Y0088320D01*
X0132820Y0089918D02*
X0125063Y0089918D01*
X0125063Y0091517D02*
X0132820Y0091517D01*
X0132820Y0093115D02*
X0125063Y0093115D01*
X0125063Y0094714D02*
X0132820Y0094714D01*
X0132820Y0096312D02*
X0125063Y0096312D01*
X0125063Y0097911D02*
X0132820Y0097911D01*
X0132820Y0099509D02*
X0125063Y0099509D01*
X0125063Y0101108D02*
X0132820Y0101108D01*
X0132820Y0102706D02*
X0125063Y0102706D01*
X0125063Y0104305D02*
X0132820Y0104305D01*
X0132820Y0105903D02*
X0125063Y0105903D01*
X0125063Y0107502D02*
X0132820Y0107502D01*
X0132820Y0109100D02*
X0125063Y0109100D01*
X0125063Y0110699D02*
X0132820Y0110699D01*
X0132820Y0112297D02*
X0125063Y0112297D01*
X0125063Y0113896D02*
X0132820Y0113896D01*
X0132820Y0115494D02*
X0125063Y0115494D01*
X0125063Y0117093D02*
X0132820Y0117093D01*
X0132820Y0118691D02*
X0125063Y0118691D01*
X0125063Y0120290D02*
X0132820Y0120290D01*
X0132820Y0121888D02*
X0125063Y0121888D01*
X0125063Y0123487D02*
X0132820Y0123487D01*
X0132820Y0125085D02*
X0125063Y0125085D01*
X0125063Y0126684D02*
X0132820Y0126684D01*
X0132820Y0128282D02*
X0125063Y0128282D01*
X0125063Y0129881D02*
X0132820Y0129881D01*
X0132820Y0131479D02*
X0125063Y0131479D01*
X0125063Y0133078D02*
X0132820Y0133078D01*
X0132820Y0134676D02*
X0125063Y0134676D01*
X0125063Y0136275D02*
X0132820Y0136275D01*
X0132820Y0137873D02*
X0125063Y0137873D01*
X0125063Y0139472D02*
X0132820Y0139472D01*
X0132820Y0141070D02*
X0125063Y0141070D01*
X0125063Y0142669D02*
X0132820Y0142669D01*
X0132820Y0144267D02*
X0125063Y0144267D01*
X0125063Y0145866D02*
X0132820Y0145866D01*
X0132820Y0147464D02*
X0125063Y0147464D01*
X0125063Y0149063D02*
X0132820Y0149063D01*
X0132820Y0150661D02*
X0125063Y0150661D01*
X0125063Y0152260D02*
X0132820Y0152260D01*
X0132820Y0153858D02*
X0125063Y0153858D01*
X0125063Y0155457D02*
X0132820Y0155457D01*
X0132820Y0157055D02*
X0125063Y0157055D01*
X0125063Y0158654D02*
X0132820Y0158654D01*
X0132820Y0160253D02*
X0125063Y0160253D01*
X0125063Y0161851D02*
X0132820Y0161851D01*
X0132820Y0163450D02*
X0125063Y0163450D01*
X0125063Y0165048D02*
X0132820Y0165048D01*
X0132820Y0166647D02*
X0125063Y0166647D01*
X0125063Y0168245D02*
X0132820Y0168245D01*
X0132820Y0169844D02*
X0125063Y0169844D01*
X0125063Y0171442D02*
X0132820Y0171442D01*
X0132820Y0173041D02*
X0125063Y0173041D01*
X0125063Y0174639D02*
X0132820Y0174639D01*
X0132820Y0176238D02*
X0125063Y0176238D01*
X0125063Y0177836D02*
X0132820Y0177836D01*
X0132820Y0179435D02*
X0125063Y0179435D01*
X0124988Y0181033D02*
X0132820Y0181033D01*
X0132820Y0182632D02*
X0124988Y0182632D01*
X0124988Y0184230D02*
X0132820Y0184230D01*
X0132820Y0185829D02*
X0124988Y0185829D01*
X0124988Y0187427D02*
X0132820Y0187427D01*
X0132820Y0189026D02*
X0123855Y0189026D01*
X0122256Y0190624D02*
X0132820Y0190624D01*
X0132820Y0192223D02*
X0120658Y0192223D01*
X0119059Y0193821D02*
X0132820Y0193821D01*
X0132820Y0195420D02*
X0117461Y0195420D01*
X0115862Y0197018D02*
X0132820Y0197018D01*
X0132820Y0211405D02*
X0110175Y0211405D01*
X0111471Y0213003D02*
X0132820Y0213003D01*
X0132820Y0214602D02*
X0111972Y0214602D01*
X0111924Y0216200D02*
X0132820Y0216200D01*
X0132820Y0217799D02*
X0111262Y0217799D01*
X0109299Y0219397D02*
X0132820Y0219397D01*
X0132820Y0220996D02*
X0065554Y0220996D01*
X0063955Y0222594D02*
X0132820Y0222594D01*
X0132820Y0224193D02*
X0062357Y0224193D01*
X0060758Y0225791D02*
X0132820Y0225791D01*
X0114435Y0192223D02*
X0110992Y0192223D01*
X0105916Y0190624D02*
X0078629Y0190624D01*
X0078207Y0190450D02*
X0079935Y0191165D01*
X0081257Y0192487D01*
X0081972Y0194215D01*
X0081972Y0196084D01*
X0081257Y0197812D01*
X0079935Y0199134D01*
X0078207Y0199849D01*
X0076338Y0199849D01*
X0074610Y0199134D01*
X0073288Y0197812D01*
X0072572Y0196084D01*
X0072572Y0194215D01*
X0073288Y0192487D01*
X0074610Y0191165D01*
X0076338Y0190450D01*
X0078207Y0190450D01*
X0080043Y0189026D02*
X0104502Y0189026D01*
X0103129Y0187427D02*
X0081416Y0187427D01*
X0081972Y0185829D02*
X0102572Y0185829D01*
X0102572Y0184230D02*
X0081972Y0184230D01*
X0081317Y0182632D02*
X0103228Y0182632D01*
X0104928Y0181033D02*
X0079616Y0181033D01*
X0079209Y0179435D02*
X0105336Y0179435D01*
X0103312Y0177836D02*
X0081233Y0177836D01*
X0081909Y0176238D02*
X0102636Y0176238D01*
X0102572Y0174639D02*
X0081972Y0174639D01*
X0081486Y0173041D02*
X0103059Y0173041D01*
X0104333Y0171442D02*
X0080212Y0171442D01*
X0077272Y0175150D02*
X0077106Y0175316D01*
X0069127Y0175316D01*
X0064460Y0179982D01*
X0064460Y0192648D01*
X0066660Y0192223D02*
X0067593Y0192223D01*
X0067593Y0193821D02*
X0066398Y0193821D01*
X0067593Y0195420D02*
X0064799Y0195420D01*
X0066660Y0190624D02*
X0067593Y0190624D01*
X0067593Y0189026D02*
X0066660Y0189026D01*
X0066660Y0187427D02*
X0067593Y0187427D01*
X0068168Y0185829D02*
X0066660Y0185829D01*
X0066660Y0184230D02*
X0069766Y0184230D01*
X0071793Y0185315D02*
X0069793Y0187315D01*
X0069793Y0206646D01*
X0065054Y0211385D01*
X0056475Y0211385D01*
X0059151Y0205011D02*
X0067593Y0205011D01*
X0066719Y0206609D02*
X0060750Y0206609D01*
X0062348Y0208208D02*
X0065120Y0208208D01*
X0067593Y0200215D02*
X0059168Y0200215D01*
X0060767Y0198617D02*
X0067593Y0198617D01*
X0067593Y0197018D02*
X0062111Y0197018D01*
X0069744Y0209806D02*
X0076233Y0209806D01*
X0072572Y0217799D02*
X0068751Y0217799D01*
X0067152Y0219397D02*
X0072940Y0219397D01*
X0081604Y0219397D02*
X0105246Y0219397D01*
X0103283Y0217799D02*
X0081972Y0217799D01*
X0081972Y0216200D02*
X0102621Y0216200D01*
X0102572Y0214602D02*
X0081972Y0214602D01*
X0081972Y0213003D02*
X0103074Y0213003D01*
X0104370Y0211405D02*
X0081972Y0211405D01*
X0080861Y0208208D02*
X0103684Y0208208D01*
X0102790Y0206609D02*
X0081755Y0206609D01*
X0081972Y0205011D02*
X0102572Y0205011D01*
X0102905Y0203412D02*
X0081640Y0203412D01*
X0080584Y0201814D02*
X0103961Y0201814D01*
X0104093Y0198617D02*
X0080452Y0198617D01*
X0081586Y0197018D02*
X0102959Y0197018D01*
X0102572Y0195420D02*
X0081972Y0195420D01*
X0081809Y0193821D02*
X0102735Y0193821D01*
X0103552Y0192223D02*
X0080992Y0192223D01*
X0077107Y0185315D02*
X0077272Y0185150D01*
X0077107Y0185315D02*
X0071793Y0185315D01*
X0073228Y0182632D02*
X0066660Y0182632D01*
X0066660Y0181033D02*
X0074928Y0181033D01*
X0075336Y0179435D02*
X0068119Y0179435D01*
X0069718Y0177836D02*
X0073312Y0177836D01*
X0076323Y0169844D02*
X0066609Y0169844D01*
X0066877Y0168245D02*
X0073721Y0168245D01*
X0072805Y0166647D02*
X0066327Y0166647D01*
X0066327Y0165048D02*
X0072572Y0165048D01*
X0072889Y0163450D02*
X0066327Y0163450D01*
X0066371Y0161851D02*
X0073924Y0161851D01*
X0074130Y0158654D02*
X0069568Y0158654D01*
X0067970Y0160253D02*
X0120663Y0160253D01*
X0120663Y0161851D02*
X0110621Y0161851D01*
X0111656Y0163450D02*
X0120663Y0163450D01*
X0120663Y0165048D02*
X0111972Y0165048D01*
X0111740Y0166647D02*
X0120663Y0166647D01*
X0120663Y0168245D02*
X0110824Y0168245D01*
X0110980Y0158654D02*
X0120663Y0158654D01*
X0120663Y0157055D02*
X0112016Y0157055D01*
X0112372Y0155457D02*
X0120663Y0155457D01*
X0120663Y0153858D02*
X0112215Y0153858D01*
X0111477Y0152260D02*
X0120663Y0152260D01*
X0120663Y0150661D02*
X0109698Y0150661D01*
X0110006Y0149063D02*
X0120663Y0149063D01*
X0120663Y0147464D02*
X0111401Y0147464D01*
X0111972Y0145866D02*
X0120663Y0145866D01*
X0120663Y0144267D02*
X0111972Y0144267D01*
X0111332Y0142669D02*
X0120663Y0142669D01*
X0120663Y0141070D02*
X0109706Y0141070D01*
X0109119Y0139472D02*
X0120663Y0139472D01*
X0120663Y0137873D02*
X0111195Y0137873D01*
X0111894Y0136275D02*
X0120663Y0136275D01*
X0120663Y0134676D02*
X0111972Y0134676D01*
X0111502Y0133078D02*
X0120663Y0133078D01*
X0113789Y0111989D02*
X0113789Y0078659D01*
X0113455Y0078326D01*
X0106123Y0078326D01*
X0101457Y0073659D01*
X0101816Y0077130D02*
X0087658Y0077130D01*
X0087658Y0078728D02*
X0103414Y0078728D01*
X0105013Y0080327D02*
X0087658Y0080327D01*
X0087658Y0081925D02*
X0103850Y0081925D01*
X0102859Y0083524D02*
X0087658Y0083524D01*
X0087658Y0085122D02*
X0102572Y0085122D01*
X0102836Y0086721D02*
X0087658Y0086721D01*
X0083258Y0091517D02*
X0080286Y0091517D01*
X0081517Y0093115D02*
X0083258Y0093115D01*
X0083258Y0094714D02*
X0081972Y0094714D01*
X0081878Y0096312D02*
X0083258Y0096312D01*
X0083258Y0097911D02*
X0081158Y0097911D01*
X0083258Y0099509D02*
X0079029Y0099509D01*
X0079796Y0101108D02*
X0083258Y0101108D01*
X0083258Y0102706D02*
X0081348Y0102706D01*
X0081972Y0104305D02*
X0083316Y0104305D01*
X0084547Y0105535D02*
X0084547Y0105535D01*
X0084915Y0105903D02*
X0081972Y0105903D01*
X0081385Y0107502D02*
X0086513Y0107502D01*
X0088112Y0109100D02*
X0079969Y0109100D01*
X0078809Y0110699D02*
X0089710Y0110699D01*
X0091309Y0112297D02*
X0081067Y0112297D01*
X0081257Y0112487D02*
X0081972Y0114215D01*
X0081972Y0116084D01*
X0081257Y0117812D01*
X0079935Y0119134D01*
X0078207Y0119849D01*
X0076338Y0119849D01*
X0074610Y0119134D01*
X0073288Y0117812D01*
X0072572Y0116084D01*
X0072572Y0114215D01*
X0073288Y0112487D01*
X0074610Y0111165D01*
X0076338Y0110450D01*
X0078207Y0110450D01*
X0079935Y0111165D01*
X0081257Y0112487D01*
X0081840Y0113896D02*
X0092907Y0113896D01*
X0094506Y0115494D02*
X0081972Y0115494D01*
X0081555Y0117093D02*
X0096104Y0117093D01*
X0097703Y0118691D02*
X0080378Y0118691D01*
X0079935Y0121165D02*
X0078207Y0120450D01*
X0076338Y0120450D01*
X0074610Y0121165D01*
X0073288Y0122487D01*
X0072572Y0124215D01*
X0072572Y0126084D01*
X0073288Y0127812D01*
X0074610Y0129134D01*
X0076338Y0129849D01*
X0078207Y0129849D01*
X0079935Y0129134D01*
X0081257Y0127812D01*
X0081972Y0126084D01*
X0081972Y0124215D01*
X0081257Y0122487D01*
X0079935Y0121165D01*
X0080658Y0121888D02*
X0100900Y0121888D01*
X0099301Y0120290D02*
X0004100Y0120290D01*
X0004100Y0121888D02*
X0073887Y0121888D01*
X0072874Y0123487D02*
X0004100Y0123487D01*
X0004100Y0125085D02*
X0072572Y0125085D01*
X0072821Y0126684D02*
X0004100Y0126684D01*
X0004100Y0128282D02*
X0073758Y0128282D01*
X0074167Y0118691D02*
X0004100Y0118691D01*
X0004100Y0117093D02*
X0050109Y0117093D01*
X0050140Y0117123D02*
X0047328Y0114311D01*
X0047328Y0112523D01*
X0051928Y0112523D01*
X0051928Y0117123D01*
X0050140Y0117123D01*
X0051928Y0117093D02*
X0052328Y0117093D01*
X0052328Y0115494D02*
X0051928Y0115494D01*
X0051928Y0113896D02*
X0052328Y0113896D01*
X0052328Y0112297D02*
X0057728Y0112297D01*
X0056928Y0112123D02*
X0052328Y0112123D01*
X0052328Y0107523D01*
X0054116Y0107523D01*
X0056928Y0110335D01*
X0056928Y0112123D01*
X0056928Y0110699D02*
X0057728Y0110699D01*
X0059128Y0109100D02*
X0055693Y0109100D01*
X0054770Y0105903D02*
X0059485Y0105903D01*
X0057887Y0104305D02*
X0056369Y0104305D01*
X0056528Y0102706D02*
X0057728Y0102706D01*
X0057728Y0101108D02*
X0056528Y0101108D01*
X0055536Y0099509D02*
X0058719Y0099509D01*
X0059894Y0096312D02*
X0054361Y0096312D01*
X0053950Y0096723D02*
X0050305Y0096723D01*
X0047728Y0094146D01*
X0047728Y0090501D01*
X0050305Y0087923D01*
X0053950Y0087923D01*
X0056528Y0090501D01*
X0056528Y0094146D01*
X0053950Y0096723D01*
X0055960Y0094714D02*
X0058296Y0094714D01*
X0057728Y0093115D02*
X0056528Y0093115D01*
X0056528Y0091517D02*
X0057728Y0091517D01*
X0058310Y0089918D02*
X0055945Y0089918D01*
X0054347Y0088320D02*
X0059909Y0088320D01*
X0059928Y0086721D02*
X0020630Y0086721D01*
X0021423Y0088320D02*
X0049909Y0088320D01*
X0048310Y0089918D02*
X0022085Y0089918D01*
X0022120Y0091517D02*
X0047728Y0091517D01*
X0047728Y0093115D02*
X0022120Y0093115D01*
X0021540Y0094714D02*
X0048296Y0094714D01*
X0049894Y0096312D02*
X0020878Y0096312D01*
X0019032Y0085122D02*
X0059927Y0085122D01*
X0059927Y0084903D02*
X0059927Y0084903D01*
X0059927Y0083524D02*
X0015907Y0083524D01*
X0014100Y0079256D02*
X0013157Y0079562D01*
X0012178Y0079717D01*
X0012161Y0079717D01*
X0012161Y0073897D01*
X0011202Y0073897D01*
X0011202Y0072938D01*
X0005382Y0072938D01*
X0005382Y0072921D01*
X0005537Y0071942D01*
X0005843Y0070999D01*
X0006294Y0070115D01*
X0006877Y0069313D01*
X0007578Y0068612D01*
X0008380Y0068029D01*
X0009264Y0067579D01*
X0010207Y0067272D01*
X0011186Y0067117D01*
X0011202Y0067117D01*
X0011202Y0072938D01*
X0012161Y0072938D01*
X0012161Y0067117D01*
X0012178Y0067117D01*
X0013157Y0067272D01*
X0014100Y0067579D01*
X0014984Y0068029D01*
X0015786Y0068612D01*
X0016487Y0069313D01*
X0017070Y0070115D01*
X0017520Y0070999D01*
X0017827Y0071942D01*
X0017982Y0072921D01*
X0017982Y0072938D01*
X0012161Y0072938D01*
X0012161Y0073897D01*
X0017982Y0073897D01*
X0017982Y0073913D01*
X0017827Y0074892D01*
X0017520Y0075836D01*
X0017070Y0076719D01*
X0016487Y0077521D01*
X0015786Y0078223D01*
X0014984Y0078805D01*
X0014100Y0079256D01*
X0015090Y0078728D02*
X0064279Y0078728D01*
X0062681Y0080327D02*
X0004100Y0080327D01*
X0004100Y0081925D02*
X0061082Y0081925D01*
X0061216Y0081792D02*
X0061216Y0081792D01*
X0059927Y0083080D02*
X0059927Y0083080D01*
X0065878Y0077130D02*
X0016772Y0077130D01*
X0017619Y0075531D02*
X0067476Y0075531D01*
X0069075Y0073933D02*
X0017979Y0073933D01*
X0017889Y0072334D02*
X0070673Y0072334D01*
X0072272Y0070736D02*
X0017386Y0070736D01*
X0016312Y0069137D02*
X0040074Y0069137D01*
X0040508Y0069317D02*
X0038340Y0068419D01*
X0036680Y0066759D01*
X0035782Y0064591D01*
X0035782Y0062244D01*
X0036680Y0060075D01*
X0038340Y0058415D01*
X0040508Y0057517D01*
X0042855Y0057517D01*
X0045024Y0058415D01*
X0046684Y0060075D01*
X0047582Y0062244D01*
X0047582Y0064591D01*
X0046684Y0066759D01*
X0045024Y0068419D01*
X0042855Y0069317D01*
X0040508Y0069317D01*
X0043290Y0069137D02*
X0073870Y0069137D01*
X0075469Y0067539D02*
X0045904Y0067539D01*
X0047023Y0065940D02*
X0077067Y0065940D01*
X0078494Y0070736D02*
X0090756Y0070736D01*
X0092354Y0072334D02*
X0076896Y0072334D01*
X0077100Y0077130D02*
X0083258Y0077130D01*
X0083258Y0078728D02*
X0075501Y0078728D01*
X0073796Y0088320D02*
X0073326Y0088320D01*
X0075736Y0110699D02*
X0066528Y0110699D01*
X0066528Y0112297D02*
X0073478Y0112297D01*
X0072705Y0113896D02*
X0066528Y0113896D01*
X0065179Y0115494D02*
X0072572Y0115494D01*
X0072990Y0117093D02*
X0054147Y0117093D01*
X0055745Y0115494D02*
X0059076Y0115494D01*
X0057728Y0113896D02*
X0056928Y0113896D01*
X0052328Y0110699D02*
X0051928Y0110699D01*
X0051928Y0112297D02*
X0004100Y0112297D01*
X0004100Y0110699D02*
X0047328Y0110699D01*
X0047328Y0113896D02*
X0004100Y0113896D01*
X0004100Y0115494D02*
X0048511Y0115494D01*
X0051928Y0109100D02*
X0052328Y0109100D01*
X0049506Y0137873D02*
X0073349Y0137873D01*
X0080786Y0128282D02*
X0103758Y0128282D01*
X0102821Y0126684D02*
X0081724Y0126684D01*
X0081972Y0125085D02*
X0102572Y0125085D01*
X0102498Y0123487D02*
X0081671Y0123487D01*
X0081732Y0142669D02*
X0103213Y0142669D01*
X0103293Y0145150D02*
X0093293Y0155150D01*
X0077272Y0155150D01*
X0069962Y0155150D01*
X0068141Y0153858D02*
X0049329Y0153858D01*
X0049329Y0155457D02*
X0066543Y0155457D01*
X0064944Y0157055D02*
X0049329Y0157055D01*
X0049329Y0158654D02*
X0063346Y0158654D01*
X0061927Y0160253D02*
X0049329Y0160253D01*
X0049329Y0161851D02*
X0061927Y0161851D01*
X0061927Y0163450D02*
X0049329Y0163450D01*
X0049329Y0165048D02*
X0061927Y0165048D01*
X0052256Y0189026D02*
X0049329Y0189026D01*
X0049329Y0190624D02*
X0050657Y0190624D01*
X0044929Y0201814D02*
X0028452Y0201814D01*
X0030767Y0203412D02*
X0044929Y0203412D01*
X0044929Y0205011D02*
X0031844Y0205011D01*
X0032449Y0206609D02*
X0044929Y0206609D01*
X0044929Y0208208D02*
X0032449Y0208208D01*
X0032123Y0209806D02*
X0044929Y0209806D01*
X0044929Y0211405D02*
X0031441Y0211405D01*
X0029843Y0213003D02*
X0044929Y0213003D01*
X0033663Y0233784D02*
X0033263Y0233784D01*
X0033263Y0235383D02*
X0033663Y0235383D01*
X0033663Y0236981D02*
X0033263Y0236981D01*
X0033263Y0238580D02*
X0033663Y0238580D01*
X0033663Y0240178D02*
X0033263Y0240178D01*
X0033263Y0241777D02*
X0033663Y0241777D01*
X0033663Y0243375D02*
X0033263Y0243375D01*
X0033263Y0244974D02*
X0033663Y0244974D01*
X0033663Y0246572D02*
X0033263Y0246572D01*
X0033263Y0248171D02*
X0033663Y0248171D01*
X0037768Y0259360D02*
X0004100Y0259360D01*
X0004100Y0257762D02*
X0039930Y0257762D01*
X0020963Y0302520D02*
X0116624Y0302520D01*
X0115962Y0304119D02*
X0021625Y0304119D01*
X0022120Y0305717D02*
X0115467Y0305717D01*
X0115467Y0307316D02*
X0022120Y0307316D01*
X0022000Y0308914D02*
X0115586Y0308914D01*
X0116249Y0310513D02*
X0021338Y0310513D01*
X0020425Y0312111D02*
X0117161Y0312111D01*
X0118760Y0313710D02*
X0018827Y0313710D01*
X0010514Y0299323D02*
X0004100Y0299323D01*
X0004100Y0297724D02*
X0080272Y0297724D01*
X0078742Y0296126D02*
X0004100Y0296126D01*
X0004100Y0294527D02*
X0078080Y0294527D01*
X0077816Y0292929D02*
X0004100Y0292929D01*
X0004100Y0300922D02*
X0008079Y0300922D01*
X0006635Y0302520D02*
X0004100Y0302520D01*
X0004100Y0304119D02*
X0005973Y0304119D01*
X0005478Y0305717D02*
X0004100Y0305717D01*
X0004100Y0307316D02*
X0005478Y0307316D01*
X0005597Y0308914D02*
X0004100Y0308914D01*
X0004100Y0310513D02*
X0006260Y0310513D01*
X0007172Y0312111D02*
X0004100Y0312111D01*
X0004100Y0313710D02*
X0008771Y0313710D01*
X0004100Y0278542D02*
X0019551Y0278542D01*
X0018430Y0276944D02*
X0004100Y0276944D01*
X0004100Y0275345D02*
X0017971Y0275345D01*
X0017972Y0273747D02*
X0004100Y0273747D01*
X0004100Y0272148D02*
X0018634Y0272148D01*
X0020043Y0270550D02*
X0004100Y0270550D01*
X0004100Y0246572D02*
X0019838Y0246572D01*
X0019115Y0244974D02*
X0004100Y0244974D01*
X0004100Y0243375D02*
X0019063Y0243375D01*
X0019063Y0241777D02*
X0004100Y0241777D01*
X0004100Y0240178D02*
X0019063Y0240178D01*
X0019063Y0238580D02*
X0004100Y0238580D01*
X0004100Y0236981D02*
X0019113Y0236981D01*
X0019833Y0235383D02*
X0004100Y0235383D01*
X0004100Y0099509D02*
X0011009Y0099509D01*
X0008284Y0097911D02*
X0004100Y0097911D01*
X0004100Y0096312D02*
X0006720Y0096312D01*
X0006058Y0094714D02*
X0004100Y0094714D01*
X0004100Y0093115D02*
X0005478Y0093115D01*
X0005478Y0091517D02*
X0004100Y0091517D01*
X0004100Y0089918D02*
X0005512Y0089918D01*
X0006175Y0088320D02*
X0004100Y0088320D01*
X0004100Y0086721D02*
X0006967Y0086721D01*
X0008566Y0085122D02*
X0004100Y0085122D01*
X0004100Y0083524D02*
X0011691Y0083524D01*
X0011202Y0079717D02*
X0011186Y0079717D01*
X0010207Y0079562D01*
X0009264Y0079256D01*
X0008380Y0078805D01*
X0007578Y0078223D01*
X0006877Y0077521D01*
X0006294Y0076719D01*
X0005843Y0075836D01*
X0005537Y0074892D01*
X0005382Y0073913D01*
X0005382Y0073897D01*
X0011202Y0073897D01*
X0011202Y0079717D01*
X0011202Y0078728D02*
X0012161Y0078728D01*
X0012161Y0077130D02*
X0011202Y0077130D01*
X0011202Y0075531D02*
X0012161Y0075531D01*
X0012161Y0073933D02*
X0011202Y0073933D01*
X0011202Y0072334D02*
X0012161Y0072334D01*
X0012161Y0070736D02*
X0011202Y0070736D01*
X0011202Y0069137D02*
X0012161Y0069137D01*
X0012161Y0067539D02*
X0011202Y0067539D01*
X0009386Y0067539D02*
X0004100Y0067539D01*
X0004100Y0069137D02*
X0007052Y0069137D01*
X0005977Y0070736D02*
X0004100Y0070736D01*
X0004100Y0072334D02*
X0005475Y0072334D01*
X0005385Y0073933D02*
X0004100Y0073933D01*
X0004100Y0075531D02*
X0005745Y0075531D01*
X0006592Y0077130D02*
X0004100Y0077130D01*
X0004100Y0078728D02*
X0008274Y0078728D01*
X0013977Y0067539D02*
X0037460Y0067539D01*
X0036341Y0065940D02*
X0004100Y0065940D01*
X0004100Y0064342D02*
X0035782Y0064342D01*
X0035782Y0062743D02*
X0004100Y0062743D01*
X0004100Y0061145D02*
X0036237Y0061145D01*
X0037209Y0059546D02*
X0015397Y0059546D01*
X0015024Y0059919D02*
X0012855Y0060817D01*
X0010508Y0060817D01*
X0008340Y0059919D01*
X0006680Y0058259D01*
X0005782Y0056091D01*
X0005782Y0053744D01*
X0006680Y0051575D01*
X0008340Y0049915D01*
X0010508Y0049017D01*
X0012855Y0049017D01*
X0015024Y0049915D01*
X0016684Y0051575D01*
X0017582Y0053744D01*
X0017582Y0056091D01*
X0016684Y0058259D01*
X0015024Y0059919D01*
X0016813Y0057948D02*
X0039469Y0057948D01*
X0043895Y0057948D02*
X0058098Y0057948D01*
X0057071Y0056349D02*
X0017475Y0056349D01*
X0017582Y0054751D02*
X0056759Y0054751D01*
X0056997Y0053152D02*
X0017337Y0053152D01*
X0016662Y0051554D02*
X0033865Y0051554D01*
X0032474Y0049955D02*
X0015064Y0049955D01*
X0008300Y0049955D02*
X0004100Y0049955D01*
X0004100Y0048357D02*
X0031083Y0048357D01*
X0029692Y0046758D02*
X0004100Y0046758D01*
X0004100Y0045160D02*
X0028301Y0045160D01*
X0026910Y0043561D02*
X0004100Y0043561D01*
X0004100Y0041963D02*
X0025519Y0041963D01*
X0024129Y0040364D02*
X0004100Y0040364D01*
X0004100Y0038766D02*
X0022738Y0038766D01*
X0021347Y0037167D02*
X0004100Y0037167D01*
X0004100Y0035569D02*
X0019956Y0035569D01*
X0018565Y0033970D02*
X0004100Y0033970D01*
X0004100Y0032372D02*
X0017174Y0032372D01*
X0015783Y0030773D02*
X0004100Y0030773D01*
X0004100Y0029175D02*
X0014392Y0029175D01*
X0013001Y0027576D02*
X0004100Y0027576D01*
X0004100Y0025978D02*
X0011610Y0025978D01*
X0010219Y0024379D02*
X0004100Y0024379D01*
X0004100Y0022781D02*
X0009472Y0022781D01*
X0009482Y0021182D02*
X0004100Y0021182D01*
X0004100Y0019584D02*
X0009482Y0019584D01*
X0007906Y0017985D02*
X0004100Y0017985D01*
X0004100Y0016387D02*
X0006526Y0016387D01*
X0005864Y0014788D02*
X0004100Y0014788D01*
X0004100Y0013189D02*
X0005782Y0013189D01*
X0006052Y0011591D02*
X0004100Y0011591D01*
X0004100Y0009992D02*
X0006763Y0009992D01*
X0008392Y0008394D02*
X0004100Y0008394D01*
X0014661Y0022781D02*
X0056678Y0022781D01*
X0056678Y0024379D02*
X0016052Y0024379D01*
X0017443Y0025978D02*
X0056678Y0025978D01*
X0056678Y0027576D02*
X0018834Y0027576D01*
X0020224Y0029175D02*
X0056678Y0029175D01*
X0056678Y0030773D02*
X0021615Y0030773D01*
X0023006Y0032372D02*
X0057086Y0032372D01*
X0058202Y0033970D02*
X0024397Y0033970D01*
X0025788Y0035569D02*
X0102170Y0035569D01*
X0101555Y0033970D02*
X0084690Y0033970D01*
X0085805Y0032372D02*
X0101555Y0032372D01*
X0102257Y0030773D02*
X0086213Y0030773D01*
X0086213Y0029175D02*
X0103855Y0029175D01*
X0103769Y0037167D02*
X0027179Y0037167D01*
X0036124Y0016387D02*
X0016838Y0016387D01*
X0015458Y0017985D02*
X0037340Y0017985D01*
X0046155Y0059546D02*
X0112636Y0059546D01*
X0111214Y0057948D02*
X0104819Y0057948D01*
X0105847Y0056349D02*
X0109793Y0056349D01*
X0108371Y0054751D02*
X0106159Y0054751D01*
X0105921Y0053152D02*
X0106950Y0053152D01*
X0114058Y0061145D02*
X0047127Y0061145D01*
X0047582Y0062743D02*
X0115479Y0062743D01*
X0116901Y0064342D02*
X0047582Y0064342D01*
X0064819Y0057948D02*
X0098098Y0057948D01*
X0097071Y0056349D02*
X0065847Y0056349D01*
X0066159Y0054751D02*
X0096759Y0054751D01*
X0096997Y0053152D02*
X0065921Y0053152D01*
X0065005Y0033970D02*
X0077887Y0033970D01*
X0076771Y0032372D02*
X0066120Y0032372D01*
X0066528Y0030773D02*
X0076363Y0030773D01*
X0076363Y0029175D02*
X0066528Y0029175D01*
X0066528Y0027576D02*
X0076363Y0027576D01*
X0076363Y0025978D02*
X0066528Y0025978D01*
X0066528Y0024379D02*
X0076363Y0024379D01*
X0076363Y0022781D02*
X0066528Y0022781D01*
X0066033Y0021182D02*
X0076858Y0021182D01*
X0078096Y0019584D02*
X0064795Y0019584D01*
X0086370Y0073793D02*
X0086370Y0073793D01*
X0086510Y0073933D02*
X0093953Y0073933D01*
X0094590Y0074571D02*
X0094590Y0074571D01*
X0095551Y0075531D02*
X0087658Y0075531D01*
X0092183Y0065940D02*
X0118323Y0065940D01*
X0119744Y0067539D02*
X0093781Y0067539D01*
X0093324Y0067082D02*
X0093324Y0067082D01*
X0095380Y0069137D02*
X0120663Y0069137D01*
X0120663Y0070736D02*
X0096978Y0070736D01*
X0109340Y0035569D02*
X0112736Y0035569D01*
X0111955Y0033970D02*
X0109955Y0033970D01*
X0109955Y0032372D02*
X0111955Y0032372D01*
X0112822Y0030773D02*
X0109254Y0030773D01*
X0104539Y0149063D02*
X0102490Y0149063D01*
X0100892Y0150661D02*
X0104847Y0150661D01*
X0103068Y0152260D02*
X0099293Y0152260D01*
X0097695Y0153858D02*
X0102329Y0153858D01*
X0102172Y0155457D02*
X0096096Y0155457D01*
X0094498Y0157055D02*
X0102529Y0157055D01*
X0103564Y0158654D02*
X0080415Y0158654D01*
X0081030Y0152260D02*
X0093071Y0152260D01*
X0075916Y0190624D02*
X0071993Y0190624D01*
X0071993Y0189026D02*
X0074502Y0189026D01*
X0073552Y0192223D02*
X0071993Y0192223D01*
X0071993Y0193821D02*
X0072735Y0193821D01*
X0072572Y0195420D02*
X0071993Y0195420D01*
X0071993Y0197018D02*
X0072959Y0197018D01*
X0071993Y0198617D02*
X0074093Y0198617D01*
X0007967Y0059546D02*
X0004100Y0059546D01*
X0004100Y0057948D02*
X0006551Y0057948D01*
X0005889Y0056349D02*
X0004100Y0056349D01*
X0004100Y0054751D02*
X0005782Y0054751D01*
X0006027Y0053152D02*
X0004100Y0053152D01*
X0004100Y0051554D02*
X0006701Y0051554D01*
D21*
X0031130Y0028331D03*
X0008466Y0111989D03*
X0010466Y0175649D03*
X0009133Y0240309D03*
X0010799Y0289305D03*
X0059461Y0239976D03*
X0067793Y0270306D03*
X0115455Y0272640D03*
X0125121Y0224644D03*
X0125121Y0196647D03*
X0128121Y0120655D03*
X0125121Y0053328D03*
X0074126Y0014665D03*
X0045796Y0124321D03*
D22*
X0047129Y0139320D03*
X0064127Y0168650D03*
D23*
X0013799Y0091658D03*
X0013799Y0306969D03*
X0123788Y0306969D03*
X0123788Y0012999D03*
M02*
