G75*
%MOIN*%
%OFA0B0*%
%FSLAX25Y25*%
%IPPOS*%
%LPD*%
%AMOC8*
5,1,8,0,0,1.08239X$1,22.5*
%
%ADD10R,0.04331X0.03937*%
%ADD11C,0.10000*%
%ADD12OC8,0.10000*%
%ADD13C,0.07050*%
%ADD14C,0.07677*%
%ADD15R,0.03150X0.03150*%
%ADD16OC8,0.04800*%
%ADD17R,0.21000X0.07600*%
%ADD18R,0.06000X0.03000*%
%ADD19C,0.09000*%
%ADD20R,0.06600X0.06600*%
%ADD21C,0.06600*%
%ADD22OC8,0.06000*%
%ADD23C,0.06000*%
%ADD24C,0.01600*%
%ADD25C,0.03762*%
%ADD26C,0.01200*%
%ADD27C,0.02700*%
%ADD28C,0.13843*%
D10*
X0056278Y0136055D03*
X0056278Y0142748D03*
X0055829Y0170940D03*
X0055829Y0177633D03*
X0076262Y0226102D03*
X0082955Y0226102D03*
X0100610Y0226436D03*
X0107303Y0226436D03*
X0107581Y0071449D03*
X0107581Y0064756D03*
D11*
X0026049Y0207746D03*
X0084216Y0292617D03*
D12*
X0104216Y0292617D03*
X0056475Y0211385D03*
X0055711Y0194622D03*
X0026049Y0187746D03*
D13*
X0061603Y0030407D02*
X0061603Y0023357D01*
X0081288Y0023357D02*
X0081288Y0030407D01*
D14*
X0042107Y0262981D03*
X0042107Y0285816D03*
X0023209Y0274792D03*
D15*
X0049774Y0157107D03*
X0055679Y0157107D03*
D16*
X0105755Y0033214D03*
X0115755Y0033214D03*
D17*
X0114540Y0248653D03*
X0076540Y0248653D03*
D18*
X0034611Y0166658D03*
X0034611Y0151658D03*
X0012611Y0151658D03*
X0012611Y0166658D03*
D19*
X0011682Y0073417D03*
X0011682Y0054917D03*
X0011682Y0013417D03*
X0041682Y0013417D03*
X0041682Y0063417D03*
D20*
X0077272Y0215150D03*
D21*
X0077272Y0205150D03*
X0077272Y0195150D03*
X0077272Y0185150D03*
X0077272Y0175150D03*
X0077272Y0165150D03*
X0077272Y0155150D03*
X0077272Y0145150D03*
X0077272Y0135150D03*
X0077272Y0125150D03*
X0077272Y0115150D03*
X0077272Y0105150D03*
X0077272Y0095150D03*
X0077272Y0085150D03*
X0061459Y0054661D03*
X0101459Y0054661D03*
X0107272Y0085150D03*
X0107272Y0095150D03*
X0107272Y0105150D03*
X0107272Y0115150D03*
X0107272Y0125150D03*
X0107272Y0135150D03*
X0107272Y0145150D03*
X0107272Y0155150D03*
X0107272Y0165150D03*
X0107272Y0175150D03*
X0107272Y0185150D03*
X0107272Y0195150D03*
X0107272Y0205150D03*
X0107272Y0215150D03*
D22*
X0062128Y0112323D03*
X0062128Y0102323D03*
X0062128Y0092323D03*
X0052128Y0092323D03*
X0052128Y0102323D03*
X0052128Y0112323D03*
D23*
X0043463Y0237975D02*
X0043463Y0243975D01*
X0033463Y0243975D02*
X0033463Y0237975D01*
X0023463Y0237975D02*
X0023463Y0243975D01*
D24*
X0004100Y0315668D02*
X0004100Y0004300D01*
X0132820Y0004300D01*
X0132820Y0315668D01*
X0004100Y0315668D01*
X0004100Y0315308D02*
X0132820Y0315308D01*
X0132820Y0313710D02*
X0128816Y0313710D01*
X0128501Y0314024D02*
X0130842Y0311683D01*
X0132109Y0308625D01*
X0132109Y0305314D01*
X0130842Y0302256D01*
X0128501Y0299915D01*
X0125443Y0298648D01*
X0122133Y0298648D01*
X0119074Y0299915D01*
X0116733Y0302256D01*
X0115467Y0305314D01*
X0115467Y0308625D01*
X0116733Y0311683D01*
X0119074Y0314024D01*
X0122133Y0315291D01*
X0125443Y0315291D01*
X0128501Y0314024D01*
X0130414Y0312111D02*
X0132820Y0312111D01*
X0132820Y0310513D02*
X0131327Y0310513D01*
X0131989Y0308914D02*
X0132820Y0308914D01*
X0132820Y0307316D02*
X0132109Y0307316D01*
X0132109Y0305717D02*
X0132820Y0305717D01*
X0132820Y0304119D02*
X0131614Y0304119D01*
X0130952Y0302520D02*
X0132820Y0302520D01*
X0132820Y0300922D02*
X0129508Y0300922D01*
X0127072Y0299323D02*
X0132820Y0299323D01*
X0132820Y0297724D02*
X0108726Y0297724D01*
X0110324Y0296126D02*
X0132820Y0296126D01*
X0132820Y0294527D02*
X0111016Y0294527D01*
X0111016Y0295434D02*
X0107033Y0299417D01*
X0104416Y0299417D01*
X0104416Y0292817D01*
X0111016Y0292817D01*
X0111016Y0295434D01*
X0111016Y0292929D02*
X0132820Y0292929D01*
X0132820Y0291330D02*
X0111016Y0291330D01*
X0111016Y0292417D02*
X0104416Y0292417D01*
X0104416Y0285817D01*
X0107033Y0285817D01*
X0111016Y0289801D01*
X0111016Y0292417D01*
X0110948Y0289732D02*
X0132820Y0289732D01*
X0132820Y0288133D02*
X0109349Y0288133D01*
X0107751Y0286535D02*
X0132820Y0286535D01*
X0132820Y0284936D02*
X0079647Y0284936D01*
X0078326Y0283616D02*
X0081518Y0286808D01*
X0082943Y0286217D01*
X0085489Y0286217D01*
X0087841Y0287192D01*
X0089642Y0288992D01*
X0090616Y0291344D01*
X0090616Y0293890D01*
X0089642Y0296243D01*
X0087841Y0298043D01*
X0085489Y0299017D01*
X0082943Y0299017D01*
X0080591Y0298043D01*
X0078791Y0296243D01*
X0077816Y0293890D01*
X0077816Y0291344D01*
X0078407Y0289919D01*
X0076503Y0288016D01*
X0046866Y0288016D01*
X0046548Y0288783D01*
X0045074Y0290257D01*
X0043149Y0291054D01*
X0041065Y0291054D01*
X0039140Y0290257D01*
X0037666Y0288783D01*
X0036868Y0286858D01*
X0036868Y0284774D01*
X0037666Y0282848D01*
X0039140Y0281375D01*
X0039929Y0281047D01*
X0039929Y0276884D01*
X0021263Y0258218D01*
X0021263Y0247826D01*
X0020971Y0247705D01*
X0019733Y0246467D01*
X0019063Y0244850D01*
X0019063Y0239686D01*
X0012554Y0233177D01*
X0011266Y0231888D01*
X0011266Y0181071D01*
X0021931Y0170405D01*
X0021931Y0093769D01*
X0020853Y0096371D01*
X0018512Y0098712D01*
X0015454Y0099979D01*
X0012144Y0099979D01*
X0009085Y0098712D01*
X0006744Y0096371D01*
X0005478Y0093313D01*
X0005478Y0090002D01*
X0006744Y0086944D01*
X0009085Y0084603D01*
X0012144Y0083336D01*
X0015454Y0083336D01*
X0018512Y0084603D01*
X0020853Y0086944D01*
X0021931Y0089546D01*
X0021931Y0057117D01*
X0017157Y0057117D01*
X0016684Y0058259D01*
X0015024Y0059919D01*
X0012855Y0060817D01*
X0010508Y0060817D01*
X0008340Y0059919D01*
X0006680Y0058259D01*
X0005782Y0056091D01*
X0005782Y0053744D01*
X0006680Y0051575D01*
X0008340Y0049915D01*
X0010508Y0049017D01*
X0012855Y0049017D01*
X0015024Y0049915D01*
X0016684Y0051575D01*
X0017157Y0052717D01*
X0057177Y0052717D01*
X0057474Y0051999D01*
X0058796Y0050677D01*
X0059403Y0050426D01*
X0059403Y0034826D01*
X0058813Y0034582D01*
X0057428Y0033197D01*
X0056678Y0031386D01*
X0056678Y0022377D01*
X0057428Y0020567D01*
X0058813Y0019182D01*
X0060623Y0018432D01*
X0062583Y0018432D01*
X0064393Y0019182D01*
X0065778Y0020567D01*
X0066528Y0022377D01*
X0066528Y0031386D01*
X0065778Y0033197D01*
X0064393Y0034582D01*
X0063803Y0034826D01*
X0063803Y0050545D01*
X0064121Y0050677D01*
X0065443Y0051999D01*
X0066159Y0053726D01*
X0066159Y0055596D01*
X0065443Y0057324D01*
X0064121Y0058646D01*
X0062394Y0059361D01*
X0060524Y0059361D01*
X0058796Y0058646D01*
X0057474Y0057324D01*
X0057389Y0057117D01*
X0026331Y0057117D01*
X0026331Y0172228D01*
X0025042Y0173516D01*
X0015665Y0182893D01*
X0015665Y0230066D01*
X0020408Y0234808D01*
X0020971Y0234245D01*
X0022588Y0233575D01*
X0024339Y0233575D01*
X0025956Y0234245D01*
X0027194Y0235483D01*
X0027863Y0237100D01*
X0027863Y0244850D01*
X0027194Y0246467D01*
X0025956Y0247705D01*
X0025663Y0247826D01*
X0025663Y0256395D01*
X0044329Y0275061D01*
X0044329Y0281066D01*
X0045074Y0281375D01*
X0046548Y0282848D01*
X0046866Y0283616D01*
X0078326Y0283616D01*
X0077415Y0285816D02*
X0084216Y0292617D01*
X0086256Y0286535D02*
X0100682Y0286535D01*
X0101400Y0285817D02*
X0104016Y0285817D01*
X0104016Y0292417D01*
X0104416Y0292417D01*
X0104416Y0292817D01*
X0104016Y0292817D01*
X0104016Y0292417D01*
X0097416Y0292417D01*
X0097416Y0289801D01*
X0101400Y0285817D01*
X0104016Y0286535D02*
X0104416Y0286535D01*
X0104416Y0288133D02*
X0104016Y0288133D01*
X0104016Y0289732D02*
X0104416Y0289732D01*
X0104416Y0291330D02*
X0104016Y0291330D01*
X0104016Y0292817D02*
X0097416Y0292817D01*
X0097416Y0295434D01*
X0101400Y0299417D01*
X0104016Y0299417D01*
X0104016Y0292817D01*
X0104016Y0292929D02*
X0104416Y0292929D01*
X0104416Y0294527D02*
X0104016Y0294527D01*
X0104016Y0296126D02*
X0104416Y0296126D01*
X0104416Y0297724D02*
X0104016Y0297724D01*
X0104016Y0299323D02*
X0104416Y0299323D01*
X0107127Y0299323D02*
X0120503Y0299323D01*
X0118068Y0300922D02*
X0019519Y0300922D01*
X0018512Y0299915D02*
X0020853Y0302256D01*
X0022120Y0305314D01*
X0022120Y0308625D01*
X0020853Y0311683D01*
X0018512Y0314024D01*
X0015454Y0315291D01*
X0012144Y0315291D01*
X0009085Y0314024D01*
X0006744Y0311683D01*
X0005478Y0308625D01*
X0005478Y0305314D01*
X0006744Y0302256D01*
X0009085Y0299915D01*
X0012144Y0298648D01*
X0015454Y0298648D01*
X0018512Y0299915D01*
X0017083Y0299323D02*
X0101305Y0299323D01*
X0099707Y0297724D02*
X0088160Y0297724D01*
X0089690Y0296126D02*
X0098108Y0296126D01*
X0097416Y0294527D02*
X0090352Y0294527D01*
X0090616Y0292929D02*
X0097416Y0292929D01*
X0097416Y0291330D02*
X0090610Y0291330D01*
X0089948Y0289732D02*
X0097485Y0289732D01*
X0099083Y0288133D02*
X0088783Y0288133D01*
X0082176Y0286535D02*
X0081245Y0286535D01*
X0078220Y0289732D02*
X0045599Y0289732D01*
X0046817Y0288133D02*
X0076621Y0288133D01*
X0077415Y0285816D02*
X0042107Y0285816D01*
X0042129Y0285793D01*
X0042129Y0275973D01*
X0023463Y0257307D01*
X0023463Y0240975D01*
X0013466Y0230977D01*
X0013466Y0181982D01*
X0024131Y0171316D01*
X0024131Y0054917D01*
X0061203Y0054917D01*
X0061459Y0054661D01*
X0061603Y0054517D01*
X0061603Y0026882D01*
X0058202Y0033970D02*
X0004100Y0033970D01*
X0004100Y0032372D02*
X0057086Y0032372D01*
X0056678Y0030773D02*
X0004100Y0030773D01*
X0004100Y0029175D02*
X0056678Y0029175D01*
X0056678Y0027576D02*
X0004100Y0027576D01*
X0004100Y0025978D02*
X0056678Y0025978D01*
X0056678Y0024379D02*
X0004100Y0024379D01*
X0004100Y0022781D02*
X0056678Y0022781D01*
X0057173Y0021182D02*
X0004100Y0021182D01*
X0004100Y0019584D02*
X0040342Y0019584D01*
X0040207Y0019562D02*
X0039264Y0019256D01*
X0038380Y0018805D01*
X0037578Y0018223D01*
X0036877Y0017521D01*
X0036294Y0016719D01*
X0035843Y0015836D01*
X0035537Y0014892D01*
X0035382Y0013913D01*
X0035382Y0013897D01*
X0041202Y0013897D01*
X0041202Y0012938D01*
X0035382Y0012938D01*
X0035382Y0012921D01*
X0035537Y0011942D01*
X0035843Y0010999D01*
X0036294Y0010115D01*
X0036877Y0009313D01*
X0037578Y0008612D01*
X0038380Y0008029D01*
X0039264Y0007579D01*
X0040207Y0007272D01*
X0041186Y0007117D01*
X0041202Y0007117D01*
X0041202Y0012938D01*
X0042161Y0012938D01*
X0042161Y0007117D01*
X0042178Y0007117D01*
X0043157Y0007272D01*
X0044100Y0007579D01*
X0044984Y0008029D01*
X0045786Y0008612D01*
X0046487Y0009313D01*
X0047070Y0010115D01*
X0047520Y0010999D01*
X0047827Y0011942D01*
X0047982Y0012921D01*
X0047982Y0012938D01*
X0042161Y0012938D01*
X0042161Y0013897D01*
X0041202Y0013897D01*
X0041202Y0019717D01*
X0041186Y0019717D01*
X0040207Y0019562D01*
X0041202Y0019584D02*
X0042161Y0019584D01*
X0042161Y0019717D02*
X0042161Y0013897D01*
X0047982Y0013897D01*
X0047982Y0013913D01*
X0047827Y0014892D01*
X0047520Y0015836D01*
X0047070Y0016719D01*
X0046487Y0017521D01*
X0045786Y0018223D01*
X0044984Y0018805D01*
X0044100Y0019256D01*
X0043157Y0019562D01*
X0042178Y0019717D01*
X0042161Y0019717D01*
X0043022Y0019584D02*
X0058411Y0019584D01*
X0064795Y0019584D02*
X0078096Y0019584D01*
X0078498Y0019182D02*
X0080309Y0018432D01*
X0082268Y0018432D01*
X0084078Y0019182D01*
X0085463Y0020567D01*
X0086213Y0022377D01*
X0086213Y0031386D01*
X0085463Y0033197D01*
X0084078Y0034582D01*
X0083488Y0034826D01*
X0083488Y0036581D01*
X0089369Y0042462D01*
X0101035Y0042462D01*
X0102323Y0043751D01*
X0103659Y0045086D01*
X0103659Y0050485D01*
X0104121Y0050677D01*
X0105443Y0051999D01*
X0106159Y0053726D01*
X0106159Y0055596D01*
X0105443Y0057324D01*
X0104121Y0058646D01*
X0103659Y0058837D01*
X0103659Y0061903D01*
X0102370Y0063192D01*
X0102370Y0063192D01*
X0100990Y0064572D01*
X0099702Y0065860D01*
X0047056Y0065860D01*
X0046684Y0066759D01*
X0045024Y0068419D01*
X0042855Y0069317D01*
X0040508Y0069317D01*
X0038340Y0068419D01*
X0036680Y0066759D01*
X0035782Y0064591D01*
X0035782Y0062244D01*
X0036680Y0060075D01*
X0038340Y0058415D01*
X0040508Y0057517D01*
X0042855Y0057517D01*
X0045024Y0058415D01*
X0046684Y0060075D01*
X0047257Y0061460D01*
X0097879Y0061460D01*
X0099259Y0060081D01*
X0099259Y0058837D01*
X0098796Y0058646D01*
X0097474Y0057324D01*
X0096759Y0055596D01*
X0096759Y0053726D01*
X0097474Y0051999D01*
X0098796Y0050677D01*
X0099259Y0050485D01*
X0099259Y0046909D01*
X0099212Y0046862D01*
X0087547Y0046862D01*
X0086258Y0045574D01*
X0086258Y0045574D01*
X0079088Y0038404D01*
X0079088Y0034826D01*
X0078498Y0034582D01*
X0077113Y0033197D01*
X0076363Y0031386D01*
X0076363Y0022377D01*
X0077113Y0020567D01*
X0078498Y0019182D01*
X0076858Y0021182D02*
X0066033Y0021182D01*
X0066528Y0022781D02*
X0076363Y0022781D01*
X0076363Y0024379D02*
X0066528Y0024379D01*
X0066528Y0025978D02*
X0076363Y0025978D01*
X0076363Y0027576D02*
X0066528Y0027576D01*
X0066528Y0029175D02*
X0076363Y0029175D01*
X0076363Y0030773D02*
X0066528Y0030773D01*
X0066120Y0032372D02*
X0076771Y0032372D01*
X0077887Y0033970D02*
X0065005Y0033970D01*
X0063803Y0035569D02*
X0079088Y0035569D01*
X0079088Y0037167D02*
X0063803Y0037167D01*
X0063803Y0038766D02*
X0079450Y0038766D01*
X0081288Y0037492D02*
X0088458Y0044662D01*
X0100123Y0044662D01*
X0101459Y0045998D01*
X0101459Y0054661D01*
X0101459Y0060992D01*
X0098790Y0063660D01*
X0041925Y0063660D01*
X0041682Y0063417D01*
X0043895Y0057948D02*
X0058098Y0057948D01*
X0057919Y0051554D02*
X0016662Y0051554D01*
X0015064Y0049955D02*
X0059403Y0049955D01*
X0059403Y0048357D02*
X0004100Y0048357D01*
X0004100Y0049955D02*
X0008300Y0049955D01*
X0006701Y0051554D02*
X0004100Y0051554D01*
X0004100Y0053152D02*
X0006027Y0053152D01*
X0005782Y0054751D02*
X0004100Y0054751D01*
X0004100Y0056349D02*
X0005889Y0056349D01*
X0006551Y0057948D02*
X0004100Y0057948D01*
X0004100Y0059546D02*
X0007967Y0059546D01*
X0010207Y0067272D02*
X0009264Y0067579D01*
X0008380Y0068029D01*
X0007578Y0068612D01*
X0006877Y0069313D01*
X0006294Y0070115D01*
X0005843Y0070999D01*
X0005537Y0071942D01*
X0005382Y0072921D01*
X0005382Y0072938D01*
X0011202Y0072938D01*
X0011202Y0073897D01*
X0005382Y0073897D01*
X0005382Y0073913D01*
X0005537Y0074892D01*
X0005843Y0075836D01*
X0006294Y0076719D01*
X0006877Y0077521D01*
X0007578Y0078223D01*
X0008380Y0078805D01*
X0009264Y0079256D01*
X0010207Y0079562D01*
X0011186Y0079717D01*
X0011202Y0079717D01*
X0011202Y0073897D01*
X0012161Y0073897D01*
X0012161Y0079717D01*
X0012178Y0079717D01*
X0013157Y0079562D01*
X0014100Y0079256D01*
X0014984Y0078805D01*
X0015786Y0078223D01*
X0016487Y0077521D01*
X0017070Y0076719D01*
X0017520Y0075836D01*
X0017827Y0074892D01*
X0017982Y0073913D01*
X0017982Y0073897D01*
X0012161Y0073897D01*
X0012161Y0072938D01*
X0012161Y0067117D01*
X0012178Y0067117D01*
X0013157Y0067272D01*
X0014100Y0067579D01*
X0014984Y0068029D01*
X0015786Y0068612D01*
X0016487Y0069313D01*
X0017070Y0070115D01*
X0017520Y0070999D01*
X0017827Y0071942D01*
X0017982Y0072921D01*
X0017982Y0072938D01*
X0012161Y0072938D01*
X0011202Y0072938D01*
X0011202Y0067117D01*
X0011186Y0067117D01*
X0010207Y0067272D01*
X0009386Y0067539D02*
X0004100Y0067539D01*
X0004100Y0069137D02*
X0007052Y0069137D01*
X0005977Y0070736D02*
X0004100Y0070736D01*
X0004100Y0072334D02*
X0005475Y0072334D01*
X0005385Y0073933D02*
X0004100Y0073933D01*
X0004100Y0075531D02*
X0005745Y0075531D01*
X0006592Y0077130D02*
X0004100Y0077130D01*
X0004100Y0078728D02*
X0008274Y0078728D01*
X0011202Y0078728D02*
X0012161Y0078728D01*
X0012161Y0077130D02*
X0011202Y0077130D01*
X0011202Y0075531D02*
X0012161Y0075531D01*
X0012161Y0073933D02*
X0011202Y0073933D01*
X0011202Y0072334D02*
X0012161Y0072334D01*
X0012161Y0070736D02*
X0011202Y0070736D01*
X0011202Y0069137D02*
X0012161Y0069137D01*
X0012161Y0067539D02*
X0011202Y0067539D01*
X0013977Y0067539D02*
X0021931Y0067539D01*
X0021931Y0069137D02*
X0016312Y0069137D01*
X0017386Y0070736D02*
X0021931Y0070736D01*
X0021931Y0072334D02*
X0017889Y0072334D01*
X0017979Y0073933D02*
X0021931Y0073933D01*
X0021931Y0075531D02*
X0017619Y0075531D01*
X0016772Y0077130D02*
X0021931Y0077130D01*
X0021931Y0078728D02*
X0015090Y0078728D01*
X0015907Y0083524D02*
X0021931Y0083524D01*
X0021931Y0085122D02*
X0019032Y0085122D01*
X0020630Y0086721D02*
X0021931Y0086721D01*
X0021931Y0088320D02*
X0021423Y0088320D01*
X0021540Y0094714D02*
X0021931Y0094714D01*
X0021931Y0096312D02*
X0020878Y0096312D01*
X0021931Y0097911D02*
X0019314Y0097911D01*
X0021931Y0099509D02*
X0016588Y0099509D01*
X0021931Y0101108D02*
X0004100Y0101108D01*
X0004100Y0102706D02*
X0021931Y0102706D01*
X0021931Y0104305D02*
X0004100Y0104305D01*
X0004100Y0105903D02*
X0021931Y0105903D01*
X0021931Y0107502D02*
X0004100Y0107502D01*
X0004100Y0109100D02*
X0021931Y0109100D01*
X0021931Y0110699D02*
X0004100Y0110699D01*
X0004100Y0112297D02*
X0021931Y0112297D01*
X0021931Y0113896D02*
X0004100Y0113896D01*
X0004100Y0115494D02*
X0021931Y0115494D01*
X0021931Y0117093D02*
X0004100Y0117093D01*
X0004100Y0118691D02*
X0021931Y0118691D01*
X0021931Y0120290D02*
X0004100Y0120290D01*
X0004100Y0121888D02*
X0021931Y0121888D01*
X0021931Y0123487D02*
X0004100Y0123487D01*
X0004100Y0125085D02*
X0021931Y0125085D01*
X0021931Y0126684D02*
X0004100Y0126684D01*
X0004100Y0128282D02*
X0021931Y0128282D01*
X0021931Y0129881D02*
X0004100Y0129881D01*
X0004100Y0131479D02*
X0021931Y0131479D01*
X0021931Y0133078D02*
X0004100Y0133078D01*
X0004100Y0134676D02*
X0021931Y0134676D01*
X0021931Y0136275D02*
X0004100Y0136275D01*
X0004100Y0137873D02*
X0021931Y0137873D01*
X0021931Y0139472D02*
X0004100Y0139472D01*
X0004100Y0141070D02*
X0021931Y0141070D01*
X0021931Y0142669D02*
X0004100Y0142669D01*
X0004100Y0144267D02*
X0021931Y0144267D01*
X0021931Y0145866D02*
X0004100Y0145866D01*
X0004100Y0147464D02*
X0021931Y0147464D01*
X0021931Y0149063D02*
X0016496Y0149063D01*
X0016191Y0148758D02*
X0017011Y0149578D01*
X0017011Y0153738D01*
X0016191Y0154558D01*
X0009031Y0154558D01*
X0008211Y0153738D01*
X0008211Y0149578D01*
X0009031Y0148758D01*
X0016191Y0148758D01*
X0017011Y0150661D02*
X0021931Y0150661D01*
X0021931Y0152260D02*
X0017011Y0152260D01*
X0016890Y0153858D02*
X0021931Y0153858D01*
X0021931Y0155457D02*
X0004100Y0155457D01*
X0004100Y0157055D02*
X0021931Y0157055D01*
X0021931Y0158654D02*
X0004100Y0158654D01*
X0004100Y0160253D02*
X0021931Y0160253D01*
X0021931Y0161851D02*
X0004100Y0161851D01*
X0004100Y0163450D02*
X0021931Y0163450D01*
X0021931Y0165048D02*
X0017011Y0165048D01*
X0017011Y0164578D02*
X0017011Y0168738D01*
X0016191Y0169558D01*
X0009031Y0169558D01*
X0008211Y0168738D01*
X0008211Y0164578D01*
X0009031Y0163758D01*
X0016191Y0163758D01*
X0017011Y0164578D01*
X0017011Y0166647D02*
X0021931Y0166647D01*
X0021931Y0168245D02*
X0017011Y0168245D01*
X0019296Y0173041D02*
X0004100Y0173041D01*
X0004100Y0174639D02*
X0017697Y0174639D01*
X0016098Y0176238D02*
X0004100Y0176238D01*
X0004100Y0177836D02*
X0014500Y0177836D01*
X0012901Y0179435D02*
X0004100Y0179435D01*
X0004100Y0181033D02*
X0011303Y0181033D01*
X0011266Y0182632D02*
X0004100Y0182632D01*
X0004100Y0184230D02*
X0011266Y0184230D01*
X0011266Y0185829D02*
X0004100Y0185829D01*
X0004100Y0187427D02*
X0011266Y0187427D01*
X0011266Y0189026D02*
X0004100Y0189026D01*
X0004100Y0190624D02*
X0011266Y0190624D01*
X0011266Y0192223D02*
X0004100Y0192223D01*
X0004100Y0193821D02*
X0011266Y0193821D01*
X0011266Y0195420D02*
X0004100Y0195420D01*
X0004100Y0197018D02*
X0011266Y0197018D01*
X0011266Y0198617D02*
X0004100Y0198617D01*
X0004100Y0200215D02*
X0011266Y0200215D01*
X0011266Y0201814D02*
X0004100Y0201814D01*
X0004100Y0203412D02*
X0011266Y0203412D01*
X0011266Y0205011D02*
X0004100Y0205011D01*
X0004100Y0206609D02*
X0011266Y0206609D01*
X0011266Y0208208D02*
X0004100Y0208208D01*
X0004100Y0209806D02*
X0011266Y0209806D01*
X0011266Y0211405D02*
X0004100Y0211405D01*
X0004100Y0213003D02*
X0011266Y0213003D01*
X0011266Y0214602D02*
X0004100Y0214602D01*
X0004100Y0216200D02*
X0011266Y0216200D01*
X0011266Y0217799D02*
X0004100Y0217799D01*
X0004100Y0219397D02*
X0011266Y0219397D01*
X0011266Y0220996D02*
X0004100Y0220996D01*
X0004100Y0222594D02*
X0011266Y0222594D01*
X0011266Y0224193D02*
X0004100Y0224193D01*
X0004100Y0225791D02*
X0011266Y0225791D01*
X0011266Y0227390D02*
X0004100Y0227390D01*
X0004100Y0228989D02*
X0011266Y0228989D01*
X0011266Y0230587D02*
X0004100Y0230587D01*
X0004100Y0232186D02*
X0011563Y0232186D01*
X0013161Y0233784D02*
X0004100Y0233784D01*
X0004100Y0235383D02*
X0014760Y0235383D01*
X0016358Y0236981D02*
X0004100Y0236981D01*
X0004100Y0238580D02*
X0017957Y0238580D01*
X0019063Y0240178D02*
X0004100Y0240178D01*
X0004100Y0241777D02*
X0019063Y0241777D01*
X0019063Y0243375D02*
X0004100Y0243375D01*
X0004100Y0244974D02*
X0019115Y0244974D01*
X0019838Y0246572D02*
X0004100Y0246572D01*
X0004100Y0248171D02*
X0021263Y0248171D01*
X0021263Y0249769D02*
X0004100Y0249769D01*
X0004100Y0251368D02*
X0021263Y0251368D01*
X0021263Y0252966D02*
X0004100Y0252966D01*
X0004100Y0254565D02*
X0021263Y0254565D01*
X0021263Y0256163D02*
X0004100Y0256163D01*
X0004100Y0257762D02*
X0021263Y0257762D01*
X0022406Y0259360D02*
X0004100Y0259360D01*
X0004100Y0260959D02*
X0024004Y0260959D01*
X0025603Y0262557D02*
X0004100Y0262557D01*
X0004100Y0264156D02*
X0027201Y0264156D01*
X0024251Y0269553D02*
X0026177Y0270351D01*
X0027650Y0271825D01*
X0028448Y0273750D01*
X0028448Y0275834D01*
X0027650Y0277759D01*
X0026177Y0279233D01*
X0024251Y0280031D01*
X0022167Y0280031D01*
X0020242Y0279233D01*
X0018768Y0277759D01*
X0017971Y0275834D01*
X0017971Y0273750D01*
X0018768Y0271825D01*
X0020242Y0270351D01*
X0022167Y0269553D01*
X0024251Y0269553D01*
X0026376Y0270550D02*
X0033595Y0270550D01*
X0031997Y0268951D02*
X0004100Y0268951D01*
X0004100Y0267353D02*
X0030398Y0267353D01*
X0028800Y0265754D02*
X0004100Y0265754D01*
X0004100Y0270550D02*
X0020043Y0270550D01*
X0018634Y0272148D02*
X0004100Y0272148D01*
X0004100Y0273747D02*
X0017972Y0273747D01*
X0017971Y0275345D02*
X0004100Y0275345D01*
X0004100Y0276944D02*
X0018430Y0276944D01*
X0019551Y0278542D02*
X0004100Y0278542D01*
X0004100Y0280141D02*
X0039929Y0280141D01*
X0039929Y0278542D02*
X0026867Y0278542D01*
X0027988Y0276944D02*
X0039929Y0276944D01*
X0038391Y0275345D02*
X0028448Y0275345D01*
X0028447Y0273747D02*
X0036792Y0273747D01*
X0035194Y0272148D02*
X0027784Y0272148D01*
X0031825Y0262557D02*
X0041627Y0262557D01*
X0041627Y0262501D02*
X0036474Y0262501D01*
X0036607Y0261661D01*
X0036881Y0260816D01*
X0037284Y0260026D01*
X0037806Y0259308D01*
X0038434Y0258680D01*
X0039152Y0258158D01*
X0039943Y0257755D01*
X0040787Y0257481D01*
X0041627Y0257348D01*
X0041627Y0262501D01*
X0041627Y0263460D01*
X0036474Y0263460D01*
X0036607Y0264301D01*
X0036881Y0265145D01*
X0037284Y0265936D01*
X0037806Y0266654D01*
X0038434Y0267282D01*
X0039152Y0267803D01*
X0039943Y0268206D01*
X0040787Y0268481D01*
X0041627Y0268614D01*
X0041627Y0263461D01*
X0042587Y0263461D01*
X0042587Y0268614D01*
X0043427Y0268481D01*
X0044271Y0268206D01*
X0045062Y0267803D01*
X0045780Y0267282D01*
X0046408Y0266654D01*
X0046930Y0265936D01*
X0047332Y0265145D01*
X0047607Y0264301D01*
X0047740Y0263460D01*
X0042587Y0263460D01*
X0042587Y0262501D01*
X0047740Y0262501D01*
X0047607Y0261661D01*
X0047332Y0260816D01*
X0046930Y0260026D01*
X0046408Y0259308D01*
X0045780Y0258680D01*
X0045062Y0258158D01*
X0044271Y0257755D01*
X0043427Y0257481D01*
X0042587Y0257348D01*
X0042587Y0262501D01*
X0041627Y0262501D01*
X0042587Y0262557D02*
X0132820Y0262557D01*
X0132820Y0260959D02*
X0047379Y0260959D01*
X0046446Y0259360D02*
X0132820Y0259360D01*
X0132820Y0257762D02*
X0044284Y0257762D01*
X0042587Y0257762D02*
X0041627Y0257762D01*
X0041627Y0259360D02*
X0042587Y0259360D01*
X0042587Y0260959D02*
X0041627Y0260959D01*
X0041627Y0264156D02*
X0042587Y0264156D01*
X0042587Y0265754D02*
X0041627Y0265754D01*
X0041627Y0267353D02*
X0042587Y0267353D01*
X0041416Y0272148D02*
X0132820Y0272148D01*
X0132820Y0270550D02*
X0039818Y0270550D01*
X0038531Y0267353D02*
X0036621Y0267353D01*
X0037192Y0265754D02*
X0035022Y0265754D01*
X0036584Y0264156D02*
X0033424Y0264156D01*
X0030227Y0260959D02*
X0036835Y0260959D01*
X0037768Y0259360D02*
X0028628Y0259360D01*
X0027030Y0257762D02*
X0039930Y0257762D01*
X0042588Y0248375D02*
X0040971Y0247705D01*
X0039733Y0246467D01*
X0039063Y0244850D01*
X0039063Y0237100D01*
X0039733Y0235483D01*
X0040971Y0234245D01*
X0041263Y0234124D01*
X0041263Y0212558D01*
X0035463Y0206758D01*
X0033564Y0208657D01*
X0032275Y0209946D01*
X0032065Y0209946D01*
X0031475Y0211371D01*
X0029675Y0213171D01*
X0027322Y0214146D01*
X0024776Y0214146D01*
X0022424Y0213171D01*
X0020624Y0211371D01*
X0019649Y0209019D01*
X0019649Y0206473D01*
X0020624Y0204120D01*
X0022424Y0202320D01*
X0024776Y0201346D01*
X0027322Y0201346D01*
X0029675Y0202320D01*
X0031475Y0204120D01*
X0031593Y0204405D01*
X0034552Y0201446D01*
X0053629Y0182369D01*
X0053629Y0181001D01*
X0053084Y0181001D01*
X0052264Y0180181D01*
X0052264Y0175084D01*
X0053062Y0174286D01*
X0052264Y0173488D01*
X0052264Y0168391D01*
X0053084Y0167571D01*
X0053673Y0167571D01*
X0053677Y0160082D01*
X0053524Y0160082D01*
X0052950Y0159508D01*
X0052789Y0159787D01*
X0052454Y0160122D01*
X0052043Y0160359D01*
X0051585Y0160482D01*
X0049774Y0160482D01*
X0049774Y0157107D01*
X0049774Y0153732D01*
X0051585Y0153732D01*
X0052043Y0153855D01*
X0052454Y0154092D01*
X0052789Y0154427D01*
X0052950Y0154707D01*
X0053524Y0154132D01*
X0057834Y0154132D01*
X0058654Y0154953D01*
X0058654Y0159262D01*
X0057834Y0160082D01*
X0057677Y0160082D01*
X0057673Y0167571D01*
X0058574Y0167571D01*
X0059395Y0168391D01*
X0059395Y0173488D01*
X0058596Y0174286D01*
X0059395Y0175084D01*
X0059395Y0175449D01*
X0060549Y0175449D01*
X0061927Y0174071D01*
X0061927Y0170339D01*
X0061796Y0170208D01*
X0061377Y0169197D01*
X0061377Y0168103D01*
X0061796Y0167092D01*
X0062569Y0166319D01*
X0063580Y0165900D01*
X0064674Y0165900D01*
X0065593Y0166281D01*
X0065593Y0129062D01*
X0065491Y0128927D01*
X0065593Y0128171D01*
X0065593Y0127409D01*
X0065714Y0127289D01*
X0065736Y0127121D01*
X0066343Y0126660D01*
X0066882Y0126121D01*
X0067052Y0126121D01*
X0070514Y0123488D01*
X0071053Y0122950D01*
X0071223Y0122950D01*
X0071358Y0122847D01*
X0072113Y0122950D01*
X0073096Y0122950D01*
X0073288Y0122487D01*
X0074610Y0121165D01*
X0076338Y0120450D01*
X0078207Y0120450D01*
X0079935Y0121165D01*
X0081257Y0122487D01*
X0081972Y0124215D01*
X0081972Y0126084D01*
X0081257Y0127812D01*
X0079935Y0129134D01*
X0078207Y0129849D01*
X0076338Y0129849D01*
X0074610Y0129134D01*
X0073288Y0127812D01*
X0073096Y0127349D01*
X0072706Y0127349D01*
X0069993Y0129412D01*
X0069993Y0129874D01*
X0069993Y0237398D01*
X0070704Y0238109D01*
X0072548Y0238109D01*
X0080755Y0229903D01*
X0080755Y0229471D01*
X0080209Y0229471D01*
X0079885Y0229146D01*
X0079867Y0229176D01*
X0079532Y0229511D01*
X0079122Y0229748D01*
X0078664Y0229871D01*
X0076446Y0229871D01*
X0076446Y0226287D01*
X0076077Y0226287D01*
X0076077Y0225918D01*
X0072296Y0225918D01*
X0072296Y0223897D01*
X0072419Y0223439D01*
X0072656Y0223029D01*
X0072991Y0222694D01*
X0073402Y0222457D01*
X0073859Y0222334D01*
X0076077Y0222334D01*
X0076077Y0225918D01*
X0076446Y0225918D01*
X0076446Y0222334D01*
X0078664Y0222334D01*
X0079122Y0222457D01*
X0079532Y0222694D01*
X0079867Y0223029D01*
X0079885Y0223059D01*
X0080209Y0222734D01*
X0085700Y0222734D01*
X0086520Y0223554D01*
X0086520Y0228651D01*
X0085700Y0229471D01*
X0085155Y0229471D01*
X0085155Y0231725D01*
X0076904Y0239976D01*
X0078740Y0241812D01*
X0078740Y0243453D01*
X0087620Y0243453D01*
X0088440Y0244274D01*
X0088440Y0253033D01*
X0087620Y0253853D01*
X0065460Y0253853D01*
X0064640Y0253033D01*
X0064640Y0244274D01*
X0065460Y0243453D01*
X0074159Y0243453D01*
X0073215Y0242509D01*
X0068882Y0242509D01*
X0065593Y0239221D01*
X0065593Y0176628D01*
X0063661Y0178560D01*
X0062372Y0179849D01*
X0059395Y0179849D01*
X0059395Y0180181D01*
X0058574Y0181001D01*
X0058029Y0181001D01*
X0058029Y0184192D01*
X0053999Y0188222D01*
X0058362Y0188222D01*
X0062111Y0191971D01*
X0062111Y0197273D01*
X0058362Y0201022D01*
X0053060Y0201022D01*
X0049311Y0197273D01*
X0049311Y0192910D01*
X0038575Y0203646D01*
X0044375Y0209447D01*
X0045663Y0210735D01*
X0045663Y0234124D01*
X0045956Y0234245D01*
X0047194Y0235483D01*
X0047863Y0237100D01*
X0047863Y0244850D01*
X0047194Y0246467D01*
X0045956Y0247705D01*
X0044339Y0248375D01*
X0042588Y0248375D01*
X0042095Y0248171D02*
X0035802Y0248171D01*
X0035979Y0248080D02*
X0035306Y0248423D01*
X0034588Y0248657D01*
X0033841Y0248775D01*
X0033663Y0248775D01*
X0033663Y0241175D01*
X0033263Y0241175D01*
X0033263Y0240775D01*
X0028663Y0240775D01*
X0028663Y0237597D01*
X0028782Y0236851D01*
X0029015Y0236132D01*
X0029358Y0235459D01*
X0029802Y0234848D01*
X0030337Y0234314D01*
X0030948Y0233870D01*
X0031621Y0233527D01*
X0032339Y0233293D01*
X0033086Y0233175D01*
X0033263Y0233175D01*
X0033263Y0240775D01*
X0033663Y0240775D01*
X0033663Y0233175D01*
X0033841Y0233175D01*
X0034588Y0233293D01*
X0035306Y0233527D01*
X0035979Y0233870D01*
X0036590Y0234314D01*
X0037125Y0234848D01*
X0037569Y0235459D01*
X0037912Y0236132D01*
X0038145Y0236851D01*
X0038263Y0237597D01*
X0038263Y0240775D01*
X0033664Y0240775D01*
X0033664Y0241175D01*
X0038263Y0241175D01*
X0038263Y0244353D01*
X0038145Y0245099D01*
X0037912Y0245818D01*
X0037569Y0246491D01*
X0037125Y0247102D01*
X0036590Y0247636D01*
X0035979Y0248080D01*
X0037510Y0246572D02*
X0039838Y0246572D01*
X0039115Y0244974D02*
X0038165Y0244974D01*
X0038263Y0243375D02*
X0039063Y0243375D01*
X0039063Y0241777D02*
X0038263Y0241777D01*
X0038263Y0240178D02*
X0039063Y0240178D01*
X0039063Y0238580D02*
X0038263Y0238580D01*
X0038166Y0236981D02*
X0039113Y0236981D01*
X0039833Y0235383D02*
X0037513Y0235383D01*
X0035811Y0233784D02*
X0041263Y0233784D01*
X0041263Y0232186D02*
X0017785Y0232186D01*
X0016187Y0230587D02*
X0041263Y0230587D01*
X0041263Y0228989D02*
X0015665Y0228989D01*
X0015665Y0227390D02*
X0041263Y0227390D01*
X0041263Y0225791D02*
X0015665Y0225791D01*
X0015665Y0224193D02*
X0041263Y0224193D01*
X0041263Y0222594D02*
X0015665Y0222594D01*
X0015665Y0220996D02*
X0041263Y0220996D01*
X0041263Y0219397D02*
X0015665Y0219397D01*
X0015665Y0217799D02*
X0041263Y0217799D01*
X0041263Y0216200D02*
X0015665Y0216200D01*
X0015665Y0214602D02*
X0041263Y0214602D01*
X0041263Y0213003D02*
X0029843Y0213003D01*
X0031441Y0211405D02*
X0040111Y0211405D01*
X0038512Y0209806D02*
X0032415Y0209806D01*
X0034013Y0208208D02*
X0036914Y0208208D01*
X0035463Y0203646D02*
X0031364Y0207746D01*
X0026049Y0207746D01*
X0023646Y0201814D02*
X0015665Y0201814D01*
X0015665Y0203412D02*
X0021332Y0203412D01*
X0020255Y0205011D02*
X0015665Y0205011D01*
X0015665Y0206609D02*
X0019649Y0206609D01*
X0019649Y0208208D02*
X0015665Y0208208D01*
X0015665Y0209806D02*
X0019976Y0209806D01*
X0020657Y0211405D02*
X0015665Y0211405D01*
X0015665Y0213003D02*
X0022256Y0213003D01*
X0028452Y0201814D02*
X0034185Y0201814D01*
X0035463Y0203646D02*
X0055829Y0183280D01*
X0055829Y0177633D01*
X0055846Y0177649D01*
X0061461Y0177649D01*
X0064127Y0174983D01*
X0064127Y0168650D01*
X0062241Y0166647D02*
X0057674Y0166647D01*
X0057675Y0165048D02*
X0065593Y0165048D01*
X0065593Y0163450D02*
X0057676Y0163450D01*
X0057677Y0161851D02*
X0065593Y0161851D01*
X0065593Y0160253D02*
X0057677Y0160253D01*
X0058654Y0158654D02*
X0065593Y0158654D01*
X0065593Y0157055D02*
X0058654Y0157055D01*
X0058654Y0155457D02*
X0065593Y0155457D01*
X0065593Y0153858D02*
X0052049Y0153858D01*
X0049774Y0153858D02*
X0049773Y0153858D01*
X0049773Y0153732D02*
X0049773Y0157107D01*
X0046399Y0157107D01*
X0046399Y0155295D01*
X0046521Y0154838D01*
X0046758Y0154427D01*
X0047093Y0154092D01*
X0047504Y0153855D01*
X0047962Y0153732D01*
X0049773Y0153732D01*
X0049773Y0155457D02*
X0049774Y0155457D01*
X0049773Y0157055D02*
X0049774Y0157055D01*
X0049773Y0157107D02*
X0049774Y0157107D01*
X0049773Y0157107D01*
X0049773Y0157107D01*
X0046399Y0157107D01*
X0046399Y0158919D01*
X0046521Y0159377D01*
X0046758Y0159787D01*
X0047093Y0160122D01*
X0047504Y0160359D01*
X0047962Y0160482D01*
X0049773Y0160482D01*
X0049773Y0157107D01*
X0049773Y0158654D02*
X0049774Y0158654D01*
X0049773Y0160253D02*
X0049774Y0160253D01*
X0052228Y0160253D02*
X0053677Y0160253D01*
X0053677Y0161851D02*
X0026331Y0161851D01*
X0026331Y0160253D02*
X0047319Y0160253D01*
X0046399Y0158654D02*
X0026331Y0158654D01*
X0026331Y0157055D02*
X0046399Y0157055D01*
X0046399Y0155457D02*
X0026331Y0155457D01*
X0026331Y0153858D02*
X0030332Y0153858D01*
X0030211Y0153738D02*
X0030211Y0149578D01*
X0031031Y0148758D01*
X0038191Y0148758D01*
X0038891Y0149458D01*
X0041212Y0149458D01*
X0048928Y0141741D01*
X0050217Y0140452D01*
X0052713Y0140452D01*
X0052713Y0140200D01*
X0053511Y0139401D01*
X0052713Y0138603D01*
X0052713Y0138255D01*
X0051305Y0138255D01*
X0049879Y0139681D01*
X0049879Y0139867D01*
X0049460Y0140877D01*
X0048687Y0141651D01*
X0047676Y0142069D01*
X0046582Y0142069D01*
X0045571Y0141651D01*
X0044797Y0140877D01*
X0044379Y0139867D01*
X0044379Y0138772D01*
X0044797Y0137762D01*
X0045571Y0136988D01*
X0046582Y0136570D01*
X0046768Y0136570D01*
X0049482Y0133855D01*
X0052713Y0133855D01*
X0052713Y0133507D01*
X0053533Y0132687D01*
X0054078Y0132687D01*
X0054078Y0127259D01*
X0059927Y0121410D01*
X0059927Y0116345D01*
X0057728Y0114146D01*
X0057728Y0110501D01*
X0060305Y0107923D01*
X0063950Y0107923D01*
X0066528Y0110501D01*
X0066528Y0114146D01*
X0064327Y0116346D01*
X0064327Y0123232D01*
X0063039Y0124521D01*
X0058478Y0129082D01*
X0058478Y0132687D01*
X0059023Y0132687D01*
X0059843Y0133507D01*
X0059843Y0138603D01*
X0059045Y0139401D01*
X0059843Y0140200D01*
X0059843Y0140869D01*
X0060038Y0141064D01*
X0060675Y0141648D01*
X0060677Y0141703D01*
X0060716Y0141741D01*
X0060716Y0142605D01*
X0060752Y0143469D01*
X0060716Y0143509D01*
X0060716Y0143564D01*
X0060104Y0144175D01*
X0059843Y0144459D01*
X0059843Y0145296D01*
X0059023Y0146116D01*
X0053533Y0146116D01*
X0052713Y0145296D01*
X0052713Y0144852D01*
X0052040Y0144852D01*
X0043034Y0153858D01*
X0038891Y0153858D01*
X0038191Y0154558D01*
X0031031Y0154558D01*
X0030211Y0153738D01*
X0030211Y0152260D02*
X0026331Y0152260D01*
X0026331Y0150661D02*
X0030211Y0150661D01*
X0030726Y0149063D02*
X0026331Y0149063D01*
X0026331Y0147464D02*
X0043205Y0147464D01*
X0044804Y0145866D02*
X0026331Y0145866D01*
X0026331Y0144267D02*
X0046402Y0144267D01*
X0044991Y0141070D02*
X0026331Y0141070D01*
X0026331Y0139472D02*
X0044379Y0139472D01*
X0044751Y0137873D02*
X0026331Y0137873D01*
X0026331Y0136275D02*
X0047062Y0136275D01*
X0048661Y0134676D02*
X0026331Y0134676D01*
X0026331Y0133078D02*
X0053141Y0133078D01*
X0054078Y0131479D02*
X0026331Y0131479D01*
X0026331Y0129881D02*
X0054078Y0129881D01*
X0054078Y0128282D02*
X0026331Y0128282D01*
X0026331Y0126684D02*
X0054653Y0126684D01*
X0056278Y0128171D02*
X0062127Y0122321D01*
X0062127Y0112324D01*
X0062128Y0112323D01*
X0063950Y0106723D02*
X0060305Y0106723D01*
X0057728Y0104146D01*
X0057728Y0100501D01*
X0060305Y0097923D01*
X0063950Y0097923D01*
X0066528Y0100501D01*
X0066528Y0104146D01*
X0063950Y0106723D01*
X0064770Y0105903D02*
X0072572Y0105903D01*
X0072572Y0106084D02*
X0072572Y0104215D01*
X0073288Y0102487D01*
X0074610Y0101165D01*
X0076338Y0100450D01*
X0078207Y0100450D01*
X0079935Y0101165D01*
X0081257Y0102487D01*
X0081972Y0104215D01*
X0081972Y0106084D01*
X0081257Y0107812D01*
X0079935Y0109134D01*
X0078207Y0109849D01*
X0076338Y0109849D01*
X0074610Y0109134D01*
X0073288Y0107812D01*
X0072572Y0106084D01*
X0073159Y0107502D02*
X0026331Y0107502D01*
X0026331Y0109100D02*
X0048563Y0109100D01*
X0047328Y0110335D02*
X0050140Y0107523D01*
X0051928Y0107523D01*
X0051928Y0112123D01*
X0052328Y0112123D01*
X0052328Y0112523D01*
X0056928Y0112523D01*
X0056928Y0114311D01*
X0054116Y0117123D01*
X0052328Y0117123D01*
X0052328Y0112523D01*
X0051928Y0112523D01*
X0051928Y0112123D01*
X0047328Y0112123D01*
X0047328Y0110335D01*
X0047328Y0110699D02*
X0026331Y0110699D01*
X0026331Y0112297D02*
X0051928Y0112297D01*
X0051928Y0112523D02*
X0047328Y0112523D01*
X0047328Y0114311D01*
X0050140Y0117123D01*
X0051928Y0117123D01*
X0051928Y0112523D01*
X0052328Y0112297D02*
X0057728Y0112297D01*
X0056928Y0112123D02*
X0052328Y0112123D01*
X0052328Y0107523D01*
X0054116Y0107523D01*
X0056928Y0110335D01*
X0056928Y0112123D01*
X0056928Y0110699D02*
X0057728Y0110699D01*
X0059128Y0109100D02*
X0055693Y0109100D01*
X0053950Y0106723D02*
X0056528Y0104146D01*
X0056528Y0100501D01*
X0053950Y0097923D01*
X0050305Y0097923D01*
X0048573Y0099656D01*
X0046996Y0098079D01*
X0046996Y0088569D01*
X0049927Y0085638D01*
X0049928Y0088301D01*
X0047728Y0090501D01*
X0047728Y0094146D01*
X0050305Y0096723D01*
X0053950Y0096723D01*
X0056528Y0094146D01*
X0056528Y0090501D01*
X0054328Y0088300D01*
X0054327Y0085237D01*
X0060372Y0079192D01*
X0093213Y0079192D01*
X0096590Y0082570D01*
X0096590Y0127579D01*
X0097879Y0128867D01*
X0102764Y0133752D01*
X0102572Y0134215D01*
X0102572Y0136084D01*
X0103288Y0137812D01*
X0104610Y0139134D01*
X0106338Y0139849D01*
X0108207Y0139849D01*
X0109935Y0139134D01*
X0111257Y0137812D01*
X0111972Y0136084D01*
X0111972Y0134215D01*
X0111257Y0132487D01*
X0109935Y0131165D01*
X0108207Y0130450D01*
X0106338Y0130450D01*
X0105875Y0130641D01*
X0100990Y0125756D01*
X0100990Y0080747D01*
X0096324Y0076081D01*
X0095102Y0074859D01*
X0095597Y0074859D01*
X0099265Y0078246D01*
X0099879Y0078859D01*
X0099930Y0078859D01*
X0099967Y0078894D01*
X0100834Y0078859D01*
X0110878Y0078859D01*
X0111589Y0079570D01*
X0111589Y0083288D01*
X0111257Y0082487D01*
X0109935Y0081165D01*
X0108207Y0080450D01*
X0106338Y0080450D01*
X0104610Y0081165D01*
X0103288Y0082487D01*
X0102572Y0084215D01*
X0102572Y0086084D01*
X0103288Y0087812D01*
X0104610Y0089134D01*
X0106338Y0089849D01*
X0108207Y0089849D01*
X0109935Y0089134D01*
X0111257Y0087812D01*
X0111589Y0087011D01*
X0111589Y0093288D01*
X0111257Y0092487D01*
X0109935Y0091165D01*
X0108207Y0090450D01*
X0106338Y0090450D01*
X0104610Y0091165D01*
X0103288Y0092487D01*
X0102572Y0094215D01*
X0102572Y0096084D01*
X0103288Y0097812D01*
X0104610Y0099134D01*
X0106338Y0099849D01*
X0108207Y0099849D01*
X0109935Y0099134D01*
X0111257Y0097812D01*
X0111589Y0097011D01*
X0111589Y0099215D01*
X0109307Y0100905D01*
X0108207Y0100450D01*
X0106338Y0100450D01*
X0104610Y0101165D01*
X0103288Y0102487D01*
X0102572Y0104215D01*
X0102572Y0106084D01*
X0103288Y0107812D01*
X0104610Y0109134D01*
X0106338Y0109849D01*
X0108207Y0109849D01*
X0109935Y0109134D01*
X0111257Y0107812D01*
X0111972Y0106084D01*
X0111972Y0104406D01*
X0114515Y0102523D01*
X0114700Y0102523D01*
X0115229Y0101994D01*
X0115255Y0101975D01*
X0115255Y0158406D01*
X0111216Y0162446D01*
X0109935Y0161165D01*
X0108207Y0160450D01*
X0106338Y0160450D01*
X0104610Y0161165D01*
X0103288Y0162487D01*
X0102572Y0164215D01*
X0102572Y0166084D01*
X0103288Y0167812D01*
X0104610Y0169134D01*
X0106338Y0169849D01*
X0108207Y0169849D01*
X0109935Y0169134D01*
X0111257Y0167812D01*
X0111448Y0167349D01*
X0112534Y0167349D01*
X0119655Y0160229D01*
X0119655Y0076748D01*
X0118366Y0075459D01*
X0113132Y0070225D01*
X0113126Y0070133D01*
X0112497Y0069589D01*
X0111909Y0069001D01*
X0111817Y0069001D01*
X0111747Y0068941D01*
X0111146Y0068985D01*
X0111146Y0068901D01*
X0110348Y0068103D01*
X0111146Y0067305D01*
X0111146Y0066956D01*
X0113938Y0066956D01*
X0116700Y0064194D01*
X0117989Y0062905D01*
X0117989Y0055704D01*
X0117955Y0055671D01*
X0117955Y0036388D01*
X0119555Y0034788D01*
X0119555Y0031640D01*
X0117329Y0029414D01*
X0114181Y0029414D01*
X0111955Y0031640D01*
X0111955Y0034788D01*
X0113555Y0036388D01*
X0113555Y0057493D01*
X0113589Y0057526D01*
X0113589Y0061083D01*
X0112115Y0062556D01*
X0111146Y0062556D01*
X0111146Y0062208D01*
X0110326Y0061388D01*
X0104836Y0061388D01*
X0104016Y0062208D01*
X0104016Y0067305D01*
X0104814Y0068103D01*
X0104016Y0068901D01*
X0104016Y0073997D01*
X0104477Y0074459D01*
X0101650Y0074459D01*
X0097982Y0071073D01*
X0097368Y0070459D01*
X0097317Y0070459D01*
X0097280Y0070425D01*
X0096413Y0070459D01*
X0058883Y0070459D01*
X0043884Y0085458D01*
X0042596Y0086747D01*
X0042596Y0099901D01*
X0045930Y0103236D01*
X0045930Y0103236D01*
X0046563Y0103868D01*
X0047218Y0104524D01*
X0047219Y0104524D01*
X0047219Y0104524D01*
X0048106Y0104524D01*
X0050305Y0106723D01*
X0053950Y0106723D01*
X0054770Y0105903D02*
X0059485Y0105903D01*
X0057887Y0104305D02*
X0056369Y0104305D01*
X0056528Y0102706D02*
X0057728Y0102706D01*
X0057728Y0101108D02*
X0056528Y0101108D01*
X0055536Y0099509D02*
X0058719Y0099509D01*
X0060305Y0096723D02*
X0057728Y0094146D01*
X0057728Y0090501D01*
X0060305Y0087923D01*
X0063950Y0087923D01*
X0066528Y0090501D01*
X0066528Y0094146D01*
X0063950Y0096723D01*
X0060305Y0096723D01*
X0059894Y0096312D02*
X0054361Y0096312D01*
X0055960Y0094714D02*
X0058296Y0094714D01*
X0057728Y0093115D02*
X0056528Y0093115D01*
X0056528Y0091517D02*
X0057728Y0091517D01*
X0058310Y0089918D02*
X0055945Y0089918D01*
X0054347Y0088320D02*
X0059909Y0088320D01*
X0057639Y0081925D02*
X0073850Y0081925D01*
X0073288Y0082487D02*
X0074610Y0081165D01*
X0076338Y0080450D01*
X0078207Y0080450D01*
X0079935Y0081165D01*
X0081257Y0082487D01*
X0081972Y0084215D01*
X0081972Y0086084D01*
X0081257Y0087812D01*
X0079935Y0089134D01*
X0078207Y0089849D01*
X0076338Y0089849D01*
X0074610Y0089134D01*
X0073288Y0087812D01*
X0072572Y0086084D01*
X0072572Y0084215D01*
X0073288Y0082487D01*
X0072859Y0083524D02*
X0056041Y0083524D01*
X0054442Y0085122D02*
X0072572Y0085122D01*
X0072836Y0086721D02*
X0054327Y0086721D01*
X0052127Y0084326D02*
X0052128Y0092323D01*
X0049894Y0096312D02*
X0046996Y0096312D01*
X0046996Y0094714D02*
X0048296Y0094714D01*
X0047728Y0093115D02*
X0046996Y0093115D01*
X0046996Y0091517D02*
X0047728Y0091517D01*
X0048310Y0089918D02*
X0046996Y0089918D01*
X0047245Y0088320D02*
X0049909Y0088320D01*
X0049927Y0086721D02*
X0048844Y0086721D01*
X0047417Y0081925D02*
X0026331Y0081925D01*
X0026331Y0080327D02*
X0049015Y0080327D01*
X0050614Y0078728D02*
X0026331Y0078728D01*
X0026331Y0077130D02*
X0052212Y0077130D01*
X0053811Y0075531D02*
X0026331Y0075531D01*
X0026331Y0073933D02*
X0055410Y0073933D01*
X0057008Y0072334D02*
X0026331Y0072334D01*
X0026331Y0070736D02*
X0058607Y0070736D01*
X0059794Y0072659D02*
X0044796Y0087658D01*
X0044796Y0098990D01*
X0048130Y0102324D01*
X0052128Y0102323D01*
X0049485Y0105903D02*
X0026331Y0105903D01*
X0026331Y0104305D02*
X0046999Y0104305D01*
X0045400Y0102706D02*
X0026331Y0102706D01*
X0026331Y0101108D02*
X0043802Y0101108D01*
X0042596Y0099509D02*
X0026331Y0099509D01*
X0026331Y0097911D02*
X0042596Y0097911D01*
X0042596Y0096312D02*
X0026331Y0096312D01*
X0026331Y0094714D02*
X0042596Y0094714D01*
X0042596Y0093115D02*
X0026331Y0093115D01*
X0026331Y0091517D02*
X0042596Y0091517D01*
X0042596Y0089918D02*
X0026331Y0089918D01*
X0026331Y0088320D02*
X0042596Y0088320D01*
X0042621Y0086721D02*
X0026331Y0086721D01*
X0026331Y0085122D02*
X0044220Y0085122D01*
X0045818Y0083524D02*
X0026331Y0083524D01*
X0021931Y0081925D02*
X0004100Y0081925D01*
X0004100Y0080327D02*
X0021931Y0080327D01*
X0026331Y0069137D02*
X0040074Y0069137D01*
X0037460Y0067539D02*
X0026331Y0067539D01*
X0026331Y0065940D02*
X0036341Y0065940D01*
X0035782Y0064342D02*
X0026331Y0064342D01*
X0026331Y0062743D02*
X0035782Y0062743D01*
X0036237Y0061145D02*
X0026331Y0061145D01*
X0026331Y0059546D02*
X0037209Y0059546D01*
X0039469Y0057948D02*
X0026331Y0057948D01*
X0024131Y0054917D02*
X0011682Y0054917D01*
X0015397Y0059546D02*
X0021931Y0059546D01*
X0021931Y0057948D02*
X0016813Y0057948D01*
X0021931Y0061145D02*
X0004100Y0061145D01*
X0004100Y0062743D02*
X0021931Y0062743D01*
X0021931Y0064342D02*
X0004100Y0064342D01*
X0004100Y0065940D02*
X0021931Y0065940D01*
X0011691Y0083524D02*
X0004100Y0083524D01*
X0004100Y0085122D02*
X0008566Y0085122D01*
X0006967Y0086721D02*
X0004100Y0086721D01*
X0004100Y0088320D02*
X0006175Y0088320D01*
X0005512Y0089918D02*
X0004100Y0089918D01*
X0004100Y0091517D02*
X0005478Y0091517D01*
X0005478Y0093115D02*
X0004100Y0093115D01*
X0004100Y0094714D02*
X0006058Y0094714D01*
X0006720Y0096312D02*
X0004100Y0096312D01*
X0004100Y0097911D02*
X0008284Y0097911D01*
X0011009Y0099509D02*
X0004100Y0099509D01*
X0004100Y0149063D02*
X0008726Y0149063D01*
X0008211Y0150661D02*
X0004100Y0150661D01*
X0004100Y0152260D02*
X0008211Y0152260D01*
X0008332Y0153858D02*
X0004100Y0153858D01*
X0004100Y0165048D02*
X0008211Y0165048D01*
X0008211Y0166647D02*
X0004100Y0166647D01*
X0004100Y0168245D02*
X0008211Y0168245D01*
X0004100Y0169844D02*
X0021931Y0169844D01*
X0020894Y0171442D02*
X0004100Y0171442D01*
X0015927Y0182632D02*
X0021547Y0182632D01*
X0019948Y0184230D02*
X0015665Y0184230D01*
X0015665Y0185829D02*
X0019249Y0185829D01*
X0019249Y0184929D02*
X0023233Y0180946D01*
X0025849Y0180946D01*
X0025849Y0187546D01*
X0019249Y0187546D01*
X0019249Y0184929D01*
X0019249Y0187427D02*
X0015665Y0187427D01*
X0015665Y0189026D02*
X0019249Y0189026D01*
X0019249Y0187946D02*
X0025849Y0187946D01*
X0025849Y0194546D01*
X0023233Y0194546D01*
X0019249Y0190562D01*
X0019249Y0187946D01*
X0019311Y0190624D02*
X0015665Y0190624D01*
X0015665Y0192223D02*
X0020910Y0192223D01*
X0022508Y0193821D02*
X0015665Y0193821D01*
X0015665Y0195420D02*
X0040579Y0195420D01*
X0042177Y0193821D02*
X0029590Y0193821D01*
X0028866Y0194546D02*
X0026249Y0194546D01*
X0026249Y0187946D01*
X0025849Y0187946D01*
X0025849Y0187546D01*
X0026249Y0187546D01*
X0026249Y0187946D01*
X0032849Y0187946D01*
X0032849Y0190562D01*
X0028866Y0194546D01*
X0031189Y0192223D02*
X0043776Y0192223D01*
X0045374Y0190624D02*
X0032787Y0190624D01*
X0032849Y0189026D02*
X0046973Y0189026D01*
X0048571Y0187427D02*
X0032849Y0187427D01*
X0032849Y0187546D02*
X0026249Y0187546D01*
X0026249Y0180946D01*
X0028866Y0180946D01*
X0032849Y0184929D01*
X0032849Y0187546D01*
X0032849Y0185829D02*
X0050170Y0185829D01*
X0051768Y0184230D02*
X0032150Y0184230D01*
X0030552Y0182632D02*
X0053367Y0182632D01*
X0053629Y0181033D02*
X0028953Y0181033D01*
X0026249Y0181033D02*
X0025849Y0181033D01*
X0025849Y0182632D02*
X0026249Y0182632D01*
X0026249Y0184230D02*
X0025849Y0184230D01*
X0025849Y0185829D02*
X0026249Y0185829D01*
X0026249Y0187427D02*
X0025849Y0187427D01*
X0025849Y0189026D02*
X0026249Y0189026D01*
X0026249Y0190624D02*
X0025849Y0190624D01*
X0025849Y0192223D02*
X0026249Y0192223D01*
X0026249Y0193821D02*
X0025849Y0193821D01*
X0030767Y0203412D02*
X0032586Y0203412D01*
X0035463Y0203646D02*
X0043463Y0211647D01*
X0043463Y0240975D01*
X0045663Y0233784D02*
X0065593Y0233784D01*
X0065593Y0232186D02*
X0045663Y0232186D01*
X0045663Y0230587D02*
X0065593Y0230587D01*
X0065593Y0228989D02*
X0045663Y0228989D01*
X0045663Y0227390D02*
X0065593Y0227390D01*
X0065593Y0225791D02*
X0045663Y0225791D01*
X0045663Y0224193D02*
X0065593Y0224193D01*
X0065593Y0222594D02*
X0045663Y0222594D01*
X0045663Y0220996D02*
X0065593Y0220996D01*
X0065593Y0219397D02*
X0045663Y0219397D01*
X0045663Y0217799D02*
X0065593Y0217799D01*
X0065593Y0216200D02*
X0060710Y0216200D01*
X0059126Y0217785D02*
X0062875Y0214036D01*
X0062875Y0208734D01*
X0059126Y0204985D01*
X0053824Y0204985D01*
X0050075Y0208734D01*
X0050075Y0214036D01*
X0053824Y0217785D01*
X0059126Y0217785D01*
X0062309Y0214602D02*
X0065593Y0214602D01*
X0065593Y0213003D02*
X0062875Y0213003D01*
X0062875Y0211405D02*
X0065593Y0211405D01*
X0065593Y0209806D02*
X0062875Y0209806D01*
X0062348Y0208208D02*
X0065593Y0208208D01*
X0065593Y0206609D02*
X0060750Y0206609D01*
X0059151Y0205011D02*
X0065593Y0205011D01*
X0065593Y0203412D02*
X0038809Y0203412D01*
X0039939Y0205011D02*
X0053798Y0205011D01*
X0052200Y0206609D02*
X0041538Y0206609D01*
X0043136Y0208208D02*
X0050601Y0208208D01*
X0050075Y0209806D02*
X0044735Y0209806D01*
X0045663Y0211405D02*
X0050075Y0211405D01*
X0050075Y0213003D02*
X0045663Y0213003D01*
X0045663Y0214602D02*
X0050641Y0214602D01*
X0052239Y0216200D02*
X0045663Y0216200D01*
X0040407Y0201814D02*
X0065593Y0201814D01*
X0065593Y0200215D02*
X0059168Y0200215D01*
X0060767Y0198617D02*
X0065593Y0198617D01*
X0065593Y0197018D02*
X0062111Y0197018D01*
X0062111Y0195420D02*
X0065593Y0195420D01*
X0065593Y0193821D02*
X0062111Y0193821D01*
X0062111Y0192223D02*
X0065593Y0192223D01*
X0065593Y0190624D02*
X0060765Y0190624D01*
X0059166Y0189026D02*
X0065593Y0189026D01*
X0065593Y0187427D02*
X0054794Y0187427D01*
X0056392Y0185829D02*
X0065593Y0185829D01*
X0065593Y0184230D02*
X0057991Y0184230D01*
X0058029Y0182632D02*
X0065593Y0182632D01*
X0065593Y0181033D02*
X0058029Y0181033D01*
X0055829Y0177633D02*
X0055829Y0177614D01*
X0052264Y0177836D02*
X0020723Y0177836D01*
X0022321Y0176238D02*
X0052264Y0176238D01*
X0052709Y0174639D02*
X0023920Y0174639D01*
X0025518Y0173041D02*
X0052264Y0173041D01*
X0052264Y0171442D02*
X0026331Y0171442D01*
X0026331Y0169844D02*
X0030948Y0169844D01*
X0030916Y0169835D02*
X0030506Y0169598D01*
X0030171Y0169263D01*
X0029934Y0168852D01*
X0029811Y0168395D01*
X0029811Y0166658D01*
X0034611Y0166658D01*
X0034611Y0169958D01*
X0031374Y0169958D01*
X0030916Y0169835D01*
X0029811Y0168245D02*
X0026331Y0168245D01*
X0026331Y0166647D02*
X0029811Y0166647D01*
X0029811Y0166658D02*
X0029811Y0164921D01*
X0029934Y0164463D01*
X0030171Y0164052D01*
X0030506Y0163717D01*
X0030916Y0163480D01*
X0031374Y0163358D01*
X0034611Y0163358D01*
X0037848Y0163358D01*
X0038306Y0163480D01*
X0038716Y0163717D01*
X0039051Y0164052D01*
X0039288Y0164463D01*
X0039411Y0164921D01*
X0039411Y0166658D01*
X0039411Y0168395D01*
X0039288Y0168852D01*
X0039051Y0169263D01*
X0038716Y0169598D01*
X0038306Y0169835D01*
X0037848Y0169958D01*
X0034611Y0169958D01*
X0034611Y0166658D01*
X0034611Y0166658D01*
X0034611Y0166658D01*
X0039411Y0166658D01*
X0034611Y0166658D01*
X0034611Y0166658D01*
X0029811Y0166658D01*
X0029811Y0165048D02*
X0026331Y0165048D01*
X0026331Y0163450D02*
X0031031Y0163450D01*
X0034611Y0163450D02*
X0034611Y0163450D01*
X0034611Y0163358D02*
X0034611Y0166658D01*
X0034611Y0166658D01*
X0034611Y0163358D01*
X0034611Y0165048D02*
X0034611Y0165048D01*
X0034611Y0166647D02*
X0034611Y0166647D01*
X0034611Y0168245D02*
X0034611Y0168245D01*
X0034611Y0169844D02*
X0034611Y0169844D01*
X0038274Y0169844D02*
X0052264Y0169844D01*
X0052410Y0168245D02*
X0039411Y0168245D01*
X0039411Y0166647D02*
X0053674Y0166647D01*
X0053675Y0165048D02*
X0039411Y0165048D01*
X0038191Y0163450D02*
X0053676Y0163450D01*
X0059248Y0168245D02*
X0061377Y0168245D01*
X0061645Y0169844D02*
X0059395Y0169844D01*
X0059395Y0171442D02*
X0061927Y0171442D01*
X0061927Y0173041D02*
X0059395Y0173041D01*
X0058950Y0174639D02*
X0061359Y0174639D01*
X0062786Y0179435D02*
X0065593Y0179435D01*
X0065593Y0177836D02*
X0064385Y0177836D01*
X0069993Y0177836D02*
X0073312Y0177836D01*
X0073288Y0177812D02*
X0072572Y0176084D01*
X0072572Y0174215D01*
X0073288Y0172487D01*
X0074610Y0171165D01*
X0076338Y0170450D01*
X0078207Y0170450D01*
X0079935Y0171165D01*
X0081257Y0172487D01*
X0081972Y0174215D01*
X0081972Y0176084D01*
X0081257Y0177812D01*
X0079935Y0179134D01*
X0078207Y0179849D01*
X0076338Y0179849D01*
X0074610Y0179134D01*
X0073288Y0177812D01*
X0072636Y0176238D02*
X0069993Y0176238D01*
X0069993Y0174639D02*
X0072572Y0174639D01*
X0073059Y0173041D02*
X0069993Y0173041D01*
X0069993Y0171442D02*
X0074333Y0171442D01*
X0074610Y0169134D02*
X0073288Y0167812D01*
X0072572Y0166084D01*
X0072572Y0164215D01*
X0073288Y0162487D01*
X0074610Y0161165D01*
X0076338Y0160450D01*
X0078207Y0160450D01*
X0079935Y0161165D01*
X0081257Y0162487D01*
X0081972Y0164215D01*
X0081972Y0166084D01*
X0081257Y0167812D01*
X0079935Y0169134D01*
X0078207Y0169849D01*
X0076338Y0169849D01*
X0074610Y0169134D01*
X0073721Y0168245D02*
X0069993Y0168245D01*
X0069993Y0166647D02*
X0072805Y0166647D01*
X0072572Y0165048D02*
X0069993Y0165048D01*
X0069993Y0163450D02*
X0072889Y0163450D01*
X0073924Y0161851D02*
X0069993Y0161851D01*
X0069993Y0160253D02*
X0096257Y0160253D01*
X0096257Y0161851D02*
X0080621Y0161851D01*
X0081656Y0163450D02*
X0096257Y0163450D01*
X0096257Y0165048D02*
X0081972Y0165048D01*
X0081740Y0166647D02*
X0096257Y0166647D01*
X0096257Y0168245D02*
X0080824Y0168245D01*
X0078222Y0169844D02*
X0096257Y0169844D01*
X0096257Y0171442D02*
X0080212Y0171442D01*
X0081486Y0173041D02*
X0096257Y0173041D01*
X0096257Y0174639D02*
X0081972Y0174639D01*
X0081909Y0176238D02*
X0096257Y0176238D01*
X0096257Y0177836D02*
X0081233Y0177836D01*
X0079935Y0181165D02*
X0081257Y0182487D01*
X0081972Y0184215D01*
X0081972Y0186084D01*
X0081257Y0187812D01*
X0079935Y0189134D01*
X0078207Y0189849D01*
X0076338Y0189849D01*
X0074610Y0189134D01*
X0073288Y0187812D01*
X0072572Y0186084D01*
X0072572Y0184215D01*
X0073288Y0182487D01*
X0074610Y0181165D01*
X0076338Y0180450D01*
X0078207Y0180450D01*
X0079935Y0181165D01*
X0079616Y0181033D02*
X0096257Y0181033D01*
X0096257Y0179435D02*
X0079209Y0179435D01*
X0081317Y0182632D02*
X0096257Y0182632D01*
X0096257Y0184230D02*
X0081972Y0184230D01*
X0081972Y0185829D02*
X0096257Y0185829D01*
X0096257Y0187427D02*
X0081416Y0187427D01*
X0080043Y0189026D02*
X0096257Y0189026D01*
X0096257Y0190624D02*
X0078629Y0190624D01*
X0078207Y0190450D02*
X0079935Y0191165D01*
X0081257Y0192487D01*
X0081972Y0194215D01*
X0081972Y0196084D01*
X0081257Y0197812D01*
X0079935Y0199134D01*
X0078207Y0199849D01*
X0076338Y0199849D01*
X0074610Y0199134D01*
X0073288Y0197812D01*
X0072572Y0196084D01*
X0072572Y0194215D01*
X0073288Y0192487D01*
X0074610Y0191165D01*
X0076338Y0190450D01*
X0078207Y0190450D01*
X0075916Y0190624D02*
X0069993Y0190624D01*
X0069993Y0189026D02*
X0074502Y0189026D01*
X0073129Y0187427D02*
X0069993Y0187427D01*
X0069993Y0185829D02*
X0072572Y0185829D01*
X0072572Y0184230D02*
X0069993Y0184230D01*
X0069993Y0182632D02*
X0073228Y0182632D01*
X0074928Y0181033D02*
X0069993Y0181033D01*
X0069993Y0179435D02*
X0075336Y0179435D01*
X0076323Y0169844D02*
X0069993Y0169844D01*
X0069993Y0158654D02*
X0074130Y0158654D01*
X0074610Y0159134D02*
X0073288Y0157812D01*
X0072572Y0156084D01*
X0072572Y0154215D01*
X0073288Y0152487D01*
X0074610Y0151165D01*
X0076338Y0150450D01*
X0078207Y0150450D01*
X0079935Y0151165D01*
X0081257Y0152487D01*
X0081972Y0154215D01*
X0081972Y0156084D01*
X0081257Y0157812D01*
X0079935Y0159134D01*
X0078207Y0159849D01*
X0076338Y0159849D01*
X0074610Y0159134D01*
X0072975Y0157055D02*
X0069993Y0157055D01*
X0069993Y0155457D02*
X0072572Y0155457D01*
X0072720Y0153858D02*
X0069993Y0153858D01*
X0069993Y0152260D02*
X0073515Y0152260D01*
X0074599Y0149511D02*
X0073950Y0149040D01*
X0073382Y0148472D01*
X0072911Y0147822D01*
X0072546Y0147107D01*
X0072298Y0146344D01*
X0072172Y0145551D01*
X0072172Y0145450D01*
X0076972Y0145450D01*
X0076972Y0150249D01*
X0076871Y0150249D01*
X0076078Y0150124D01*
X0075315Y0149876D01*
X0074599Y0149511D01*
X0073982Y0149063D02*
X0069993Y0149063D01*
X0069993Y0150661D02*
X0075826Y0150661D01*
X0077572Y0150249D02*
X0077572Y0145450D01*
X0076972Y0145450D01*
X0076972Y0144849D01*
X0077572Y0144849D01*
X0077572Y0140050D01*
X0077674Y0140050D01*
X0078467Y0140175D01*
X0079230Y0140423D01*
X0079945Y0140788D01*
X0080595Y0141259D01*
X0081162Y0141827D01*
X0081634Y0142477D01*
X0081999Y0143192D01*
X0082247Y0143955D01*
X0082372Y0144748D01*
X0082372Y0144849D01*
X0077573Y0144849D01*
X0077573Y0145450D01*
X0082372Y0145450D01*
X0082372Y0145551D01*
X0082247Y0146344D01*
X0081999Y0147107D01*
X0081634Y0147822D01*
X0081162Y0148472D01*
X0080595Y0149040D01*
X0079945Y0149511D01*
X0079230Y0149876D01*
X0078467Y0150124D01*
X0077674Y0150249D01*
X0077572Y0150249D01*
X0077572Y0149063D02*
X0076972Y0149063D01*
X0076972Y0147464D02*
X0077572Y0147464D01*
X0077572Y0145866D02*
X0076972Y0145866D01*
X0076972Y0144849D02*
X0072172Y0144849D01*
X0072172Y0144748D01*
X0072298Y0143955D01*
X0072546Y0143192D01*
X0072911Y0142477D01*
X0073382Y0141827D01*
X0073950Y0141259D01*
X0074599Y0140788D01*
X0075315Y0140423D01*
X0076078Y0140175D01*
X0076871Y0140050D01*
X0076972Y0140050D01*
X0076972Y0144849D01*
X0076972Y0144267D02*
X0077572Y0144267D01*
X0077572Y0142669D02*
X0076972Y0142669D01*
X0076972Y0141070D02*
X0077572Y0141070D01*
X0078207Y0139849D02*
X0076338Y0139849D01*
X0074610Y0139134D01*
X0073288Y0137812D01*
X0072572Y0136084D01*
X0072572Y0134215D01*
X0073288Y0132487D01*
X0074610Y0131165D01*
X0076338Y0130450D01*
X0078207Y0130450D01*
X0079935Y0131165D01*
X0081257Y0132487D01*
X0081448Y0132950D01*
X0089199Y0132950D01*
X0100657Y0144408D01*
X0100657Y0217067D01*
X0101701Y0218111D01*
X0103588Y0218111D01*
X0103288Y0217812D01*
X0102572Y0216084D01*
X0102572Y0214215D01*
X0103288Y0212487D01*
X0104610Y0211165D01*
X0106338Y0210450D01*
X0108207Y0210450D01*
X0109935Y0211165D01*
X0111257Y0212487D01*
X0111972Y0214215D01*
X0111972Y0216084D01*
X0111257Y0217812D01*
X0109935Y0219134D01*
X0108207Y0219849D01*
X0107772Y0219849D01*
X0109503Y0221580D01*
X0109503Y0223067D01*
X0110048Y0223067D01*
X0110869Y0223887D01*
X0110869Y0224236D01*
X0113492Y0224236D01*
X0116655Y0227399D01*
X0116655Y0243453D01*
X0125620Y0243453D01*
X0126440Y0244274D01*
X0126440Y0253033D01*
X0125620Y0253853D01*
X0103460Y0253853D01*
X0102640Y0253033D01*
X0102640Y0244274D01*
X0103460Y0243453D01*
X0112255Y0243453D01*
X0112255Y0229222D01*
X0111669Y0228636D01*
X0110869Y0228636D01*
X0110869Y0228984D01*
X0110048Y0229804D01*
X0104558Y0229804D01*
X0104233Y0229480D01*
X0104216Y0229509D01*
X0103881Y0229845D01*
X0103470Y0230082D01*
X0103013Y0230204D01*
X0100795Y0230204D01*
X0100795Y0226620D01*
X0100426Y0226620D01*
X0100426Y0226252D01*
X0096645Y0226252D01*
X0096645Y0224230D01*
X0096768Y0223772D01*
X0097005Y0223362D01*
X0097340Y0223027D01*
X0097750Y0222790D01*
X0098208Y0222667D01*
X0100426Y0222667D01*
X0100426Y0226251D01*
X0100795Y0226251D01*
X0100795Y0222667D01*
X0103013Y0222667D01*
X0103470Y0222790D01*
X0103881Y0223027D01*
X0104216Y0223362D01*
X0104233Y0223392D01*
X0104558Y0223067D01*
X0104768Y0223067D01*
X0104212Y0222511D01*
X0099879Y0222511D01*
X0097546Y0220178D01*
X0096257Y0218890D01*
X0096257Y0146230D01*
X0087376Y0137349D01*
X0081448Y0137349D01*
X0081257Y0137812D01*
X0079935Y0139134D01*
X0078207Y0139849D01*
X0079119Y0139472D02*
X0089499Y0139472D01*
X0091097Y0141070D02*
X0080335Y0141070D01*
X0081732Y0142669D02*
X0092696Y0142669D01*
X0094294Y0144267D02*
X0082296Y0144267D01*
X0082323Y0145866D02*
X0095893Y0145866D01*
X0096257Y0147464D02*
X0081817Y0147464D01*
X0080563Y0149063D02*
X0096257Y0149063D01*
X0096257Y0150661D02*
X0078719Y0150661D01*
X0081030Y0152260D02*
X0096257Y0152260D01*
X0096257Y0153858D02*
X0081825Y0153858D01*
X0081972Y0155457D02*
X0096257Y0155457D01*
X0096257Y0157055D02*
X0081570Y0157055D01*
X0080415Y0158654D02*
X0096257Y0158654D01*
X0100657Y0158654D02*
X0103564Y0158654D01*
X0103382Y0158472D02*
X0102911Y0157822D01*
X0102546Y0157107D01*
X0102298Y0156344D01*
X0102172Y0155551D01*
X0102172Y0155450D01*
X0106972Y0155450D01*
X0106972Y0160249D01*
X0106871Y0160249D01*
X0106078Y0160124D01*
X0105315Y0159876D01*
X0104599Y0159511D01*
X0103950Y0159040D01*
X0103382Y0158472D01*
X0102529Y0157055D02*
X0100657Y0157055D01*
X0100657Y0155457D02*
X0102172Y0155457D01*
X0102172Y0154849D02*
X0102172Y0154748D01*
X0102298Y0153955D01*
X0102546Y0153192D01*
X0102911Y0152477D01*
X0103382Y0151827D01*
X0103950Y0151259D01*
X0104599Y0150788D01*
X0105315Y0150423D01*
X0106078Y0150175D01*
X0106871Y0150050D01*
X0106972Y0150050D01*
X0106972Y0154849D01*
X0107572Y0154849D01*
X0107572Y0150050D01*
X0107674Y0150050D01*
X0108467Y0150175D01*
X0109230Y0150423D01*
X0109945Y0150788D01*
X0110595Y0151259D01*
X0111162Y0151827D01*
X0111634Y0152477D01*
X0111999Y0153192D01*
X0112247Y0153955D01*
X0112372Y0154748D01*
X0112372Y0154849D01*
X0107573Y0154849D01*
X0107573Y0155450D01*
X0112372Y0155450D01*
X0112372Y0155551D01*
X0112247Y0156344D01*
X0111999Y0157107D01*
X0111634Y0157822D01*
X0111162Y0158472D01*
X0110595Y0159040D01*
X0109945Y0159511D01*
X0109230Y0159876D01*
X0108467Y0160124D01*
X0107674Y0160249D01*
X0107572Y0160249D01*
X0107572Y0155450D01*
X0106972Y0155450D01*
X0106972Y0154849D01*
X0102172Y0154849D01*
X0102329Y0153858D02*
X0100657Y0153858D01*
X0100657Y0152260D02*
X0103068Y0152260D01*
X0104847Y0150661D02*
X0100657Y0150661D01*
X0100657Y0149063D02*
X0104539Y0149063D01*
X0104610Y0149134D02*
X0103288Y0147812D01*
X0102572Y0146084D01*
X0102572Y0144215D01*
X0103288Y0142487D01*
X0104610Y0141165D01*
X0106338Y0140450D01*
X0108207Y0140450D01*
X0109935Y0141165D01*
X0111257Y0142487D01*
X0111972Y0144215D01*
X0111972Y0146084D01*
X0111257Y0147812D01*
X0109935Y0149134D01*
X0108207Y0149849D01*
X0106338Y0149849D01*
X0104610Y0149134D01*
X0103144Y0147464D02*
X0100657Y0147464D01*
X0100657Y0145866D02*
X0102572Y0145866D01*
X0102572Y0144267D02*
X0100517Y0144267D01*
X0098918Y0142669D02*
X0103213Y0142669D01*
X0104839Y0141070D02*
X0097320Y0141070D01*
X0095721Y0139472D02*
X0105426Y0139472D01*
X0103349Y0137873D02*
X0094123Y0137873D01*
X0092524Y0136275D02*
X0102651Y0136275D01*
X0102572Y0134676D02*
X0090926Y0134676D01*
X0089327Y0133078D02*
X0102090Y0133078D01*
X0100491Y0131479D02*
X0080249Y0131479D01*
X0080786Y0128282D02*
X0097294Y0128282D01*
X0096590Y0126684D02*
X0081724Y0126684D01*
X0081972Y0125085D02*
X0096590Y0125085D01*
X0096590Y0123487D02*
X0081671Y0123487D01*
X0080658Y0121888D02*
X0096590Y0121888D01*
X0096590Y0120290D02*
X0064327Y0120290D01*
X0064327Y0121888D02*
X0073887Y0121888D01*
X0074610Y0119134D02*
X0073288Y0117812D01*
X0072572Y0116084D01*
X0072572Y0114215D01*
X0073288Y0112487D01*
X0074610Y0111165D01*
X0076338Y0110450D01*
X0078207Y0110450D01*
X0079935Y0111165D01*
X0081257Y0112487D01*
X0081972Y0114215D01*
X0081972Y0116084D01*
X0081257Y0117812D01*
X0079935Y0119134D01*
X0078207Y0119849D01*
X0076338Y0119849D01*
X0074610Y0119134D01*
X0074167Y0118691D02*
X0064327Y0118691D01*
X0064327Y0117093D02*
X0072990Y0117093D01*
X0072572Y0115494D02*
X0065179Y0115494D01*
X0066528Y0113896D02*
X0072705Y0113896D01*
X0073478Y0112297D02*
X0066528Y0112297D01*
X0066528Y0110699D02*
X0075736Y0110699D01*
X0074576Y0109100D02*
X0065127Y0109100D01*
X0066369Y0104305D02*
X0072572Y0104305D01*
X0073197Y0102706D02*
X0066528Y0102706D01*
X0066528Y0101108D02*
X0074749Y0101108D01*
X0075516Y0099509D02*
X0065536Y0099509D01*
X0064361Y0096312D02*
X0072667Y0096312D01*
X0072572Y0096084D02*
X0073288Y0097812D01*
X0074610Y0099134D01*
X0076338Y0099849D01*
X0078207Y0099849D01*
X0079935Y0099134D01*
X0081257Y0097812D01*
X0081972Y0096084D01*
X0081972Y0094215D01*
X0081257Y0092487D01*
X0079935Y0091165D01*
X0078207Y0090450D01*
X0076338Y0090450D01*
X0074610Y0091165D01*
X0073288Y0092487D01*
X0072572Y0094215D01*
X0072572Y0096084D01*
X0072572Y0094714D02*
X0065960Y0094714D01*
X0066528Y0093115D02*
X0073028Y0093115D01*
X0074259Y0091517D02*
X0066528Y0091517D01*
X0065945Y0089918D02*
X0096590Y0089918D01*
X0096590Y0088320D02*
X0080749Y0088320D01*
X0081709Y0086721D02*
X0096590Y0086721D01*
X0096590Y0085122D02*
X0081972Y0085122D01*
X0081686Y0083524D02*
X0096590Y0083524D01*
X0095946Y0081925D02*
X0080695Y0081925D01*
X0080286Y0091517D02*
X0096590Y0091517D01*
X0096590Y0093115D02*
X0081517Y0093115D01*
X0081972Y0094714D02*
X0096590Y0094714D01*
X0096590Y0096312D02*
X0081878Y0096312D01*
X0081158Y0097911D02*
X0096590Y0097911D01*
X0096590Y0099509D02*
X0079029Y0099509D01*
X0079796Y0101108D02*
X0096590Y0101108D01*
X0096590Y0102706D02*
X0081348Y0102706D01*
X0081972Y0104305D02*
X0096590Y0104305D01*
X0096590Y0105903D02*
X0081972Y0105903D01*
X0081385Y0107502D02*
X0096590Y0107502D01*
X0096590Y0109100D02*
X0079969Y0109100D01*
X0078809Y0110699D02*
X0096590Y0110699D01*
X0096590Y0112297D02*
X0081067Y0112297D01*
X0081840Y0113896D02*
X0096590Y0113896D01*
X0096590Y0115494D02*
X0081972Y0115494D01*
X0081555Y0117093D02*
X0096590Y0117093D01*
X0096590Y0118691D02*
X0080378Y0118691D01*
X0077272Y0125150D02*
X0071964Y0125150D01*
X0067793Y0128321D01*
X0067793Y0128962D01*
X0067793Y0238310D01*
X0069793Y0240309D01*
X0073459Y0240309D01*
X0082955Y0230814D01*
X0082955Y0226102D01*
X0083125Y0226273D01*
X0086182Y0228989D02*
X0096738Y0228989D01*
X0096768Y0229099D02*
X0096645Y0228641D01*
X0096645Y0226620D01*
X0100426Y0226620D01*
X0100426Y0230204D01*
X0098208Y0230204D01*
X0097750Y0230082D01*
X0097340Y0229845D01*
X0097005Y0229509D01*
X0096768Y0229099D01*
X0096645Y0227390D02*
X0086520Y0227390D01*
X0086520Y0225791D02*
X0096645Y0225791D01*
X0096655Y0224193D02*
X0086520Y0224193D01*
X0085155Y0230587D02*
X0112255Y0230587D01*
X0112255Y0232186D02*
X0084695Y0232186D01*
X0083096Y0233784D02*
X0112255Y0233784D01*
X0112255Y0235383D02*
X0081498Y0235383D01*
X0079899Y0236981D02*
X0112255Y0236981D01*
X0112255Y0238580D02*
X0078301Y0238580D01*
X0077106Y0240178D02*
X0112255Y0240178D01*
X0112255Y0241777D02*
X0078705Y0241777D01*
X0078740Y0243375D02*
X0112255Y0243375D01*
X0114455Y0248569D02*
X0114540Y0248653D01*
X0114455Y0248569D02*
X0114455Y0228311D01*
X0112581Y0226436D01*
X0107303Y0226436D01*
X0107303Y0222492D01*
X0105123Y0220311D01*
X0100790Y0220311D01*
X0098457Y0217978D01*
X0098457Y0145319D01*
X0088288Y0135150D01*
X0077272Y0135150D01*
X0075426Y0139472D02*
X0069993Y0139472D01*
X0069993Y0141070D02*
X0074210Y0141070D01*
X0072813Y0142669D02*
X0069993Y0142669D01*
X0069993Y0144267D02*
X0072249Y0144267D01*
X0072222Y0145866D02*
X0069993Y0145866D01*
X0069993Y0147464D02*
X0072728Y0147464D01*
X0073349Y0137873D02*
X0069993Y0137873D01*
X0069993Y0136275D02*
X0072651Y0136275D01*
X0072572Y0134676D02*
X0069993Y0134676D01*
X0069993Y0133078D02*
X0073043Y0133078D01*
X0074296Y0131479D02*
X0069993Y0131479D01*
X0069993Y0129881D02*
X0098892Y0129881D01*
X0098790Y0126667D02*
X0098790Y0081659D01*
X0094124Y0076992D01*
X0059461Y0076992D01*
X0052127Y0084326D01*
X0046996Y0097911D02*
X0073387Y0097911D01*
X0073796Y0088320D02*
X0064347Y0088320D01*
X0059238Y0080327D02*
X0094347Y0080327D01*
X0095774Y0075531D02*
X0096325Y0075531D01*
X0097373Y0077130D02*
X0098057Y0077130D01*
X0098971Y0078728D02*
X0099748Y0078728D01*
X0100570Y0080327D02*
X0111589Y0080327D01*
X0111589Y0081925D02*
X0110695Y0081925D01*
X0113789Y0078659D02*
X0111789Y0076659D01*
X0100790Y0076659D01*
X0096457Y0072659D01*
X0059794Y0072659D01*
X0064819Y0057948D02*
X0098098Y0057948D01*
X0097071Y0056349D02*
X0065847Y0056349D01*
X0066159Y0054751D02*
X0096759Y0054751D01*
X0096997Y0053152D02*
X0065921Y0053152D01*
X0064998Y0051554D02*
X0097919Y0051554D01*
X0099259Y0049955D02*
X0063803Y0049955D01*
X0063803Y0048357D02*
X0099259Y0048357D01*
X0102134Y0043561D02*
X0113555Y0043561D01*
X0113555Y0041963D02*
X0088870Y0041963D01*
X0087271Y0040364D02*
X0113555Y0040364D01*
X0113555Y0038766D02*
X0085673Y0038766D01*
X0084074Y0037167D02*
X0103769Y0037167D01*
X0104016Y0037414D02*
X0101555Y0034954D01*
X0101555Y0033214D01*
X0101555Y0031474D01*
X0104016Y0029014D01*
X0105755Y0029014D01*
X0105755Y0033214D01*
X0105755Y0033214D01*
X0101555Y0033214D01*
X0105755Y0033214D01*
X0105755Y0037414D01*
X0104016Y0037414D01*
X0102170Y0035569D02*
X0083488Y0035569D01*
X0084690Y0033970D02*
X0101555Y0033970D01*
X0101555Y0032372D02*
X0085805Y0032372D01*
X0086213Y0030773D02*
X0102257Y0030773D01*
X0103855Y0029175D02*
X0086213Y0029175D01*
X0086213Y0027576D02*
X0132820Y0027576D01*
X0132820Y0025978D02*
X0086213Y0025978D01*
X0086213Y0024379D02*
X0132820Y0024379D01*
X0132820Y0022781D02*
X0086213Y0022781D01*
X0085718Y0021182D02*
X0121799Y0021182D01*
X0122133Y0021320D02*
X0119074Y0020053D01*
X0116733Y0017712D01*
X0115467Y0014654D01*
X0115467Y0011344D01*
X0116733Y0008285D01*
X0119074Y0005944D01*
X0122133Y0004678D01*
X0125443Y0004678D01*
X0128501Y0005944D01*
X0130842Y0008285D01*
X0132109Y0011344D01*
X0132109Y0014654D01*
X0130842Y0017712D01*
X0128501Y0020053D01*
X0125443Y0021320D01*
X0122133Y0021320D01*
X0125776Y0021182D02*
X0132820Y0021182D01*
X0132820Y0019584D02*
X0128971Y0019584D01*
X0130570Y0017985D02*
X0132820Y0017985D01*
X0132820Y0016387D02*
X0131391Y0016387D01*
X0132054Y0014788D02*
X0132820Y0014788D01*
X0132820Y0013189D02*
X0132109Y0013189D01*
X0132109Y0011591D02*
X0132820Y0011591D01*
X0132820Y0009992D02*
X0131549Y0009992D01*
X0130887Y0008394D02*
X0132820Y0008394D01*
X0132820Y0006795D02*
X0129352Y0006795D01*
X0126697Y0005197D02*
X0132820Y0005197D01*
X0120879Y0005197D02*
X0004100Y0005197D01*
X0004100Y0006795D02*
X0118223Y0006795D01*
X0116688Y0008394D02*
X0045486Y0008394D01*
X0046981Y0009992D02*
X0116026Y0009992D01*
X0115467Y0011591D02*
X0047713Y0011591D01*
X0047843Y0014788D02*
X0115522Y0014788D01*
X0115467Y0013189D02*
X0042161Y0013189D01*
X0041202Y0013189D02*
X0017582Y0013189D01*
X0017582Y0012244D02*
X0017582Y0014591D01*
X0016684Y0016759D01*
X0015024Y0018419D01*
X0012855Y0019317D01*
X0010508Y0019317D01*
X0008340Y0018419D01*
X0006680Y0016759D01*
X0005782Y0014591D01*
X0005782Y0012244D01*
X0006680Y0010075D01*
X0008340Y0008415D01*
X0010508Y0007517D01*
X0012855Y0007517D01*
X0015024Y0008415D01*
X0016684Y0010075D01*
X0017582Y0012244D01*
X0017312Y0011591D02*
X0035651Y0011591D01*
X0036383Y0009992D02*
X0016601Y0009992D01*
X0017500Y0014788D02*
X0035520Y0014788D01*
X0036124Y0016387D02*
X0016838Y0016387D01*
X0015458Y0017985D02*
X0037340Y0017985D01*
X0041202Y0017985D02*
X0042161Y0017985D01*
X0042161Y0016387D02*
X0041202Y0016387D01*
X0041202Y0014788D02*
X0042161Y0014788D01*
X0042161Y0011591D02*
X0041202Y0011591D01*
X0041202Y0009992D02*
X0042161Y0009992D01*
X0042161Y0008394D02*
X0041202Y0008394D01*
X0037878Y0008394D02*
X0014972Y0008394D01*
X0008392Y0008394D02*
X0004100Y0008394D01*
X0004100Y0009992D02*
X0006763Y0009992D01*
X0006052Y0011591D02*
X0004100Y0011591D01*
X0004100Y0013189D02*
X0005782Y0013189D01*
X0005864Y0014788D02*
X0004100Y0014788D01*
X0004100Y0016387D02*
X0006526Y0016387D01*
X0007906Y0017985D02*
X0004100Y0017985D01*
X0004100Y0035569D02*
X0059403Y0035569D01*
X0059403Y0037167D02*
X0004100Y0037167D01*
X0004100Y0038766D02*
X0059403Y0038766D01*
X0059403Y0040364D02*
X0004100Y0040364D01*
X0004100Y0041963D02*
X0059403Y0041963D01*
X0059403Y0043561D02*
X0004100Y0043561D01*
X0004100Y0045160D02*
X0059403Y0045160D01*
X0059403Y0046758D02*
X0004100Y0046758D01*
X0026331Y0113896D02*
X0047328Y0113896D01*
X0048511Y0115494D02*
X0026331Y0115494D01*
X0026331Y0117093D02*
X0050109Y0117093D01*
X0051928Y0117093D02*
X0052328Y0117093D01*
X0052328Y0115494D02*
X0051928Y0115494D01*
X0051928Y0113896D02*
X0052328Y0113896D01*
X0052328Y0110699D02*
X0051928Y0110699D01*
X0051928Y0109100D02*
X0052328Y0109100D01*
X0055745Y0115494D02*
X0059076Y0115494D01*
X0059927Y0117093D02*
X0054147Y0117093D01*
X0056928Y0113896D02*
X0057728Y0113896D01*
X0059927Y0118691D02*
X0026331Y0118691D01*
X0026331Y0120290D02*
X0059927Y0120290D01*
X0059449Y0121888D02*
X0026331Y0121888D01*
X0026331Y0123487D02*
X0057850Y0123487D01*
X0056252Y0125085D02*
X0026331Y0125085D01*
X0026331Y0142669D02*
X0048001Y0142669D01*
X0049267Y0141070D02*
X0049599Y0141070D01*
X0050088Y0139472D02*
X0053440Y0139472D01*
X0051128Y0142652D02*
X0058516Y0142652D01*
X0056278Y0142748D01*
X0060020Y0144267D02*
X0065593Y0144267D01*
X0065593Y0142669D02*
X0060718Y0142669D01*
X0060045Y0141070D02*
X0065593Y0141070D01*
X0065593Y0139472D02*
X0059116Y0139472D01*
X0059843Y0137873D02*
X0065593Y0137873D01*
X0065593Y0136275D02*
X0059843Y0136275D01*
X0059843Y0134676D02*
X0065593Y0134676D01*
X0065593Y0133078D02*
X0059414Y0133078D01*
X0058478Y0131479D02*
X0065593Y0131479D01*
X0065593Y0129881D02*
X0058478Y0129881D01*
X0059277Y0128282D02*
X0065578Y0128282D01*
X0066311Y0126684D02*
X0060876Y0126684D01*
X0062474Y0125085D02*
X0068414Y0125085D01*
X0070516Y0123487D02*
X0064073Y0123487D01*
X0069993Y0129874D02*
X0069993Y0129874D01*
X0071479Y0128282D02*
X0073758Y0128282D01*
X0081195Y0137873D02*
X0087900Y0137873D01*
X0098790Y0126667D02*
X0107272Y0135150D01*
X0106338Y0129849D02*
X0104610Y0129134D01*
X0103288Y0127812D01*
X0102572Y0126084D01*
X0102572Y0124215D01*
X0103288Y0122487D01*
X0104610Y0121165D01*
X0106338Y0120450D01*
X0108207Y0120450D01*
X0109935Y0121165D01*
X0111257Y0122487D01*
X0111972Y0124215D01*
X0111972Y0126084D01*
X0111257Y0127812D01*
X0109935Y0129134D01*
X0108207Y0129849D01*
X0106338Y0129849D01*
X0105115Y0129881D02*
X0115255Y0129881D01*
X0115255Y0131479D02*
X0110249Y0131479D01*
X0111502Y0133078D02*
X0115255Y0133078D01*
X0115255Y0134676D02*
X0111972Y0134676D01*
X0111894Y0136275D02*
X0115255Y0136275D01*
X0115255Y0137873D02*
X0111195Y0137873D01*
X0109706Y0141070D02*
X0115255Y0141070D01*
X0115255Y0139472D02*
X0109119Y0139472D01*
X0111332Y0142669D02*
X0115255Y0142669D01*
X0115255Y0144267D02*
X0111972Y0144267D01*
X0111972Y0145866D02*
X0115255Y0145866D01*
X0115255Y0147464D02*
X0111401Y0147464D01*
X0110006Y0149063D02*
X0115255Y0149063D01*
X0115255Y0150661D02*
X0109698Y0150661D01*
X0111477Y0152260D02*
X0115255Y0152260D01*
X0115255Y0153858D02*
X0112215Y0153858D01*
X0112372Y0155457D02*
X0115255Y0155457D01*
X0115255Y0157055D02*
X0112016Y0157055D01*
X0110980Y0158654D02*
X0115007Y0158654D01*
X0113409Y0160253D02*
X0100657Y0160253D01*
X0100657Y0161851D02*
X0103924Y0161851D01*
X0102889Y0163450D02*
X0100657Y0163450D01*
X0100657Y0165048D02*
X0102572Y0165048D01*
X0102805Y0166647D02*
X0100657Y0166647D01*
X0100657Y0168245D02*
X0103721Y0168245D01*
X0104610Y0171165D02*
X0103288Y0172487D01*
X0102572Y0174215D01*
X0102572Y0176084D01*
X0103288Y0177812D01*
X0104610Y0179134D01*
X0106338Y0179849D01*
X0108207Y0179849D01*
X0109935Y0179134D01*
X0111257Y0177812D01*
X0111972Y0176084D01*
X0111972Y0174215D01*
X0111257Y0172487D01*
X0109935Y0171165D01*
X0108207Y0170450D01*
X0106338Y0170450D01*
X0104610Y0171165D01*
X0104333Y0171442D02*
X0100657Y0171442D01*
X0100657Y0169844D02*
X0106323Y0169844D01*
X0108222Y0169844D02*
X0132820Y0169844D01*
X0132820Y0171442D02*
X0110212Y0171442D01*
X0111486Y0173041D02*
X0132820Y0173041D01*
X0132820Y0174639D02*
X0111972Y0174639D01*
X0111909Y0176238D02*
X0132820Y0176238D01*
X0132820Y0177836D02*
X0111233Y0177836D01*
X0109935Y0181165D02*
X0111257Y0182487D01*
X0111972Y0184215D01*
X0111972Y0186084D01*
X0111257Y0187812D01*
X0109935Y0189134D01*
X0108207Y0189849D01*
X0106338Y0189849D01*
X0104610Y0189134D01*
X0103288Y0187812D01*
X0102572Y0186084D01*
X0102572Y0184215D01*
X0103288Y0182487D01*
X0104610Y0181165D01*
X0106338Y0180450D01*
X0108207Y0180450D01*
X0109935Y0181165D01*
X0109616Y0181033D02*
X0132820Y0181033D01*
X0132820Y0179435D02*
X0109209Y0179435D01*
X0111317Y0182632D02*
X0132820Y0182632D01*
X0132820Y0184230D02*
X0111972Y0184230D01*
X0111972Y0185829D02*
X0132820Y0185829D01*
X0132820Y0187427D02*
X0111416Y0187427D01*
X0110043Y0189026D02*
X0132820Y0189026D01*
X0132820Y0190624D02*
X0108629Y0190624D01*
X0108207Y0190450D02*
X0109935Y0191165D01*
X0111257Y0192487D01*
X0111972Y0194215D01*
X0111972Y0196084D01*
X0111257Y0197812D01*
X0109935Y0199134D01*
X0108207Y0199849D01*
X0106338Y0199849D01*
X0104610Y0199134D01*
X0103288Y0197812D01*
X0102572Y0196084D01*
X0102572Y0194215D01*
X0103288Y0192487D01*
X0104610Y0191165D01*
X0106338Y0190450D01*
X0108207Y0190450D01*
X0105916Y0190624D02*
X0100657Y0190624D01*
X0100657Y0189026D02*
X0104502Y0189026D01*
X0103129Y0187427D02*
X0100657Y0187427D01*
X0100657Y0185829D02*
X0102572Y0185829D01*
X0102572Y0184230D02*
X0100657Y0184230D01*
X0100657Y0182632D02*
X0103228Y0182632D01*
X0104928Y0181033D02*
X0100657Y0181033D01*
X0100657Y0179435D02*
X0105336Y0179435D01*
X0103312Y0177836D02*
X0100657Y0177836D01*
X0100657Y0176238D02*
X0102636Y0176238D01*
X0102572Y0174639D02*
X0100657Y0174639D01*
X0100657Y0173041D02*
X0103059Y0173041D01*
X0107272Y0165150D02*
X0111623Y0165150D01*
X0117455Y0159318D01*
X0117455Y0077659D01*
X0110997Y0071201D01*
X0107581Y0071449D01*
X0104250Y0067539D02*
X0045904Y0067539D01*
X0047023Y0065940D02*
X0104016Y0065940D01*
X0104016Y0064342D02*
X0101220Y0064342D01*
X0100990Y0064572D02*
X0100990Y0064572D01*
X0102819Y0062743D02*
X0104016Y0062743D01*
X0103659Y0061145D02*
X0113526Y0061145D01*
X0113589Y0059546D02*
X0103659Y0059546D01*
X0104819Y0057948D02*
X0113589Y0057948D01*
X0113555Y0056349D02*
X0105847Y0056349D01*
X0106159Y0054751D02*
X0113555Y0054751D01*
X0113555Y0053152D02*
X0105921Y0053152D01*
X0104998Y0051554D02*
X0113555Y0051554D01*
X0113555Y0049955D02*
X0103659Y0049955D01*
X0103659Y0048357D02*
X0113555Y0048357D01*
X0113555Y0046758D02*
X0103659Y0046758D01*
X0103659Y0045160D02*
X0113555Y0045160D01*
X0113555Y0037167D02*
X0107742Y0037167D01*
X0107495Y0037414D02*
X0105755Y0037414D01*
X0105755Y0033214D01*
X0105755Y0033214D01*
X0105755Y0033214D01*
X0105755Y0029014D01*
X0107495Y0029014D01*
X0109955Y0031474D01*
X0109955Y0033214D01*
X0109955Y0034954D01*
X0107495Y0037414D01*
X0105755Y0037167D02*
X0105755Y0037167D01*
X0105755Y0035569D02*
X0105755Y0035569D01*
X0105755Y0033970D02*
X0105755Y0033970D01*
X0105755Y0033214D02*
X0109955Y0033214D01*
X0105755Y0033214D01*
X0105755Y0033214D01*
X0105755Y0032372D02*
X0105755Y0032372D01*
X0105755Y0030773D02*
X0105755Y0030773D01*
X0105755Y0029175D02*
X0105755Y0029175D01*
X0107656Y0029175D02*
X0132820Y0029175D01*
X0132820Y0030773D02*
X0118688Y0030773D01*
X0119555Y0032372D02*
X0132820Y0032372D01*
X0132820Y0033970D02*
X0119555Y0033970D01*
X0118775Y0035569D02*
X0132820Y0035569D01*
X0132820Y0037167D02*
X0117955Y0037167D01*
X0117955Y0038766D02*
X0132820Y0038766D01*
X0132820Y0040364D02*
X0117955Y0040364D01*
X0117955Y0041963D02*
X0132820Y0041963D01*
X0132820Y0043561D02*
X0117955Y0043561D01*
X0117955Y0045160D02*
X0132820Y0045160D01*
X0132820Y0046758D02*
X0117955Y0046758D01*
X0117955Y0048357D02*
X0132820Y0048357D01*
X0132820Y0049955D02*
X0117955Y0049955D01*
X0117955Y0051554D02*
X0132820Y0051554D01*
X0132820Y0053152D02*
X0117955Y0053152D01*
X0117955Y0054751D02*
X0132820Y0054751D01*
X0132820Y0056349D02*
X0117989Y0056349D01*
X0117989Y0057948D02*
X0132820Y0057948D01*
X0132820Y0059546D02*
X0117989Y0059546D01*
X0117989Y0061145D02*
X0132820Y0061145D01*
X0132820Y0062743D02*
X0117989Y0062743D01*
X0116552Y0064342D02*
X0132820Y0064342D01*
X0132820Y0065940D02*
X0114953Y0065940D01*
X0113026Y0064756D02*
X0115789Y0061994D01*
X0115789Y0056615D01*
X0115755Y0056582D01*
X0115755Y0033214D01*
X0112822Y0030773D02*
X0109254Y0030773D01*
X0109955Y0032372D02*
X0111955Y0032372D01*
X0111955Y0033970D02*
X0109955Y0033970D01*
X0109340Y0035569D02*
X0112736Y0035569D01*
X0118604Y0019584D02*
X0084480Y0019584D01*
X0081288Y0026882D02*
X0081288Y0037492D01*
X0081049Y0040364D02*
X0063803Y0040364D01*
X0063803Y0041963D02*
X0082647Y0041963D01*
X0084246Y0043561D02*
X0063803Y0043561D01*
X0063803Y0045160D02*
X0085844Y0045160D01*
X0087443Y0046758D02*
X0063803Y0046758D01*
X0047127Y0061145D02*
X0098195Y0061145D01*
X0099259Y0059546D02*
X0046155Y0059546D01*
X0043290Y0069137D02*
X0104016Y0069137D01*
X0104016Y0070736D02*
X0097645Y0070736D01*
X0099348Y0072334D02*
X0104016Y0072334D01*
X0104016Y0073933D02*
X0101080Y0073933D01*
X0100990Y0081925D02*
X0103850Y0081925D01*
X0102859Y0083524D02*
X0100990Y0083524D01*
X0100990Y0085122D02*
X0102572Y0085122D01*
X0102836Y0086721D02*
X0100990Y0086721D01*
X0100990Y0088320D02*
X0103796Y0088320D01*
X0104259Y0091517D02*
X0100990Y0091517D01*
X0100990Y0093115D02*
X0103028Y0093115D01*
X0102572Y0094714D02*
X0100990Y0094714D01*
X0100990Y0096312D02*
X0102667Y0096312D01*
X0103387Y0097911D02*
X0100990Y0097911D01*
X0100990Y0099509D02*
X0105516Y0099509D01*
X0104749Y0101108D02*
X0100990Y0101108D01*
X0100990Y0102706D02*
X0103197Y0102706D01*
X0102572Y0104305D02*
X0100990Y0104305D01*
X0100990Y0105903D02*
X0102572Y0105903D01*
X0103159Y0107502D02*
X0100990Y0107502D01*
X0100990Y0109100D02*
X0104576Y0109100D01*
X0105736Y0110699D02*
X0100990Y0110699D01*
X0100990Y0112297D02*
X0103478Y0112297D01*
X0103288Y0112487D02*
X0104610Y0111165D01*
X0106338Y0110450D01*
X0108207Y0110450D01*
X0109935Y0111165D01*
X0111257Y0112487D01*
X0111972Y0114215D01*
X0111972Y0116084D01*
X0111257Y0117812D01*
X0109935Y0119134D01*
X0108207Y0119849D01*
X0106338Y0119849D01*
X0104610Y0119134D01*
X0103288Y0117812D01*
X0102572Y0116084D01*
X0102572Y0114215D01*
X0103288Y0112487D01*
X0102705Y0113896D02*
X0100990Y0113896D01*
X0100990Y0115494D02*
X0102572Y0115494D01*
X0102990Y0117093D02*
X0100990Y0117093D01*
X0100990Y0118691D02*
X0104167Y0118691D01*
X0103887Y0121888D02*
X0100990Y0121888D01*
X0100990Y0120290D02*
X0115255Y0120290D01*
X0115255Y0121888D02*
X0110658Y0121888D01*
X0111671Y0123487D02*
X0115255Y0123487D01*
X0115255Y0125085D02*
X0111972Y0125085D01*
X0111724Y0126684D02*
X0115255Y0126684D01*
X0115255Y0128282D02*
X0110786Y0128282D01*
X0110378Y0118691D02*
X0115255Y0118691D01*
X0115255Y0117093D02*
X0111555Y0117093D01*
X0111972Y0115494D02*
X0115255Y0115494D01*
X0115255Y0113896D02*
X0111840Y0113896D01*
X0111067Y0112297D02*
X0115255Y0112297D01*
X0115255Y0110699D02*
X0108809Y0110699D01*
X0109969Y0109100D02*
X0115255Y0109100D01*
X0115255Y0107502D02*
X0111385Y0107502D01*
X0111972Y0105903D02*
X0115255Y0105903D01*
X0115255Y0104305D02*
X0112110Y0104305D01*
X0114268Y0102706D02*
X0115255Y0102706D01*
X0113789Y0100323D02*
X0113789Y0078659D01*
X0116840Y0073933D02*
X0132820Y0073933D01*
X0132820Y0075531D02*
X0118439Y0075531D01*
X0119655Y0077130D02*
X0132820Y0077130D01*
X0132820Y0078728D02*
X0119655Y0078728D01*
X0119655Y0080327D02*
X0132820Y0080327D01*
X0132820Y0081925D02*
X0119655Y0081925D01*
X0119655Y0083524D02*
X0132820Y0083524D01*
X0132820Y0085122D02*
X0119655Y0085122D01*
X0119655Y0086721D02*
X0132820Y0086721D01*
X0132820Y0088320D02*
X0119655Y0088320D01*
X0119655Y0089918D02*
X0132820Y0089918D01*
X0132820Y0091517D02*
X0119655Y0091517D01*
X0119655Y0093115D02*
X0132820Y0093115D01*
X0132820Y0094714D02*
X0119655Y0094714D01*
X0119655Y0096312D02*
X0132820Y0096312D01*
X0132820Y0097911D02*
X0119655Y0097911D01*
X0119655Y0099509D02*
X0132820Y0099509D01*
X0132820Y0101108D02*
X0119655Y0101108D01*
X0119655Y0102706D02*
X0132820Y0102706D01*
X0132820Y0104305D02*
X0119655Y0104305D01*
X0119655Y0105903D02*
X0132820Y0105903D01*
X0132820Y0107502D02*
X0119655Y0107502D01*
X0119655Y0109100D02*
X0132820Y0109100D01*
X0132820Y0110699D02*
X0119655Y0110699D01*
X0119655Y0112297D02*
X0132820Y0112297D01*
X0132820Y0113896D02*
X0119655Y0113896D01*
X0119655Y0115494D02*
X0132820Y0115494D01*
X0132820Y0117093D02*
X0119655Y0117093D01*
X0119655Y0118691D02*
X0132820Y0118691D01*
X0132820Y0120290D02*
X0119655Y0120290D01*
X0119655Y0121888D02*
X0132820Y0121888D01*
X0132820Y0123487D02*
X0119655Y0123487D01*
X0119655Y0125085D02*
X0132820Y0125085D01*
X0132820Y0126684D02*
X0119655Y0126684D01*
X0119655Y0128282D02*
X0132820Y0128282D01*
X0132820Y0129881D02*
X0119655Y0129881D01*
X0119655Y0131479D02*
X0132820Y0131479D01*
X0132820Y0133078D02*
X0119655Y0133078D01*
X0119655Y0134676D02*
X0132820Y0134676D01*
X0132820Y0136275D02*
X0119655Y0136275D01*
X0119655Y0137873D02*
X0132820Y0137873D01*
X0132820Y0139472D02*
X0119655Y0139472D01*
X0119655Y0141070D02*
X0132820Y0141070D01*
X0132820Y0142669D02*
X0119655Y0142669D01*
X0119655Y0144267D02*
X0132820Y0144267D01*
X0132820Y0145866D02*
X0119655Y0145866D01*
X0119655Y0147464D02*
X0132820Y0147464D01*
X0132820Y0149063D02*
X0119655Y0149063D01*
X0119655Y0150661D02*
X0132820Y0150661D01*
X0132820Y0152260D02*
X0119655Y0152260D01*
X0119655Y0153858D02*
X0132820Y0153858D01*
X0132820Y0155457D02*
X0119655Y0155457D01*
X0119655Y0157055D02*
X0132820Y0157055D01*
X0132820Y0158654D02*
X0119655Y0158654D01*
X0119631Y0160253D02*
X0132820Y0160253D01*
X0132820Y0161851D02*
X0118033Y0161851D01*
X0116434Y0163450D02*
X0132820Y0163450D01*
X0132820Y0165048D02*
X0114836Y0165048D01*
X0113237Y0166647D02*
X0132820Y0166647D01*
X0132820Y0168245D02*
X0110824Y0168245D01*
X0110621Y0161851D02*
X0111810Y0161851D01*
X0107572Y0158654D02*
X0106972Y0158654D01*
X0106972Y0157055D02*
X0107572Y0157055D01*
X0107572Y0155457D02*
X0106972Y0155457D01*
X0106972Y0153858D02*
X0107572Y0153858D01*
X0107572Y0152260D02*
X0106972Y0152260D01*
X0106972Y0150661D02*
X0107572Y0150661D01*
X0103758Y0128282D02*
X0103516Y0128282D01*
X0102821Y0126684D02*
X0101918Y0126684D01*
X0102572Y0125085D02*
X0100990Y0125085D01*
X0100990Y0123487D02*
X0102874Y0123487D01*
X0107272Y0105150D02*
X0113789Y0100323D01*
X0111192Y0099509D02*
X0109029Y0099509D01*
X0111158Y0097911D02*
X0111589Y0097911D01*
X0111517Y0093115D02*
X0111589Y0093115D01*
X0111589Y0091517D02*
X0110286Y0091517D01*
X0111589Y0089918D02*
X0100990Y0089918D01*
X0110749Y0088320D02*
X0111589Y0088320D01*
X0115242Y0072334D02*
X0132820Y0072334D01*
X0132820Y0070736D02*
X0113643Y0070736D01*
X0112045Y0069137D02*
X0132820Y0069137D01*
X0132820Y0067539D02*
X0110912Y0067539D01*
X0113026Y0064756D02*
X0107581Y0064756D01*
X0117006Y0017985D02*
X0046024Y0017985D01*
X0047240Y0016387D02*
X0116184Y0016387D01*
X0065593Y0145866D02*
X0059274Y0145866D01*
X0056278Y0136055D02*
X0056278Y0128171D01*
X0056278Y0136055D02*
X0050393Y0136055D01*
X0047129Y0139320D01*
X0049428Y0147464D02*
X0065593Y0147464D01*
X0065593Y0149063D02*
X0047829Y0149063D01*
X0046231Y0150661D02*
X0065593Y0150661D01*
X0065593Y0152260D02*
X0044632Y0152260D01*
X0042123Y0151658D02*
X0051128Y0142652D01*
X0051026Y0145866D02*
X0053282Y0145866D01*
X0047498Y0153858D02*
X0038890Y0153858D01*
X0038496Y0149063D02*
X0041607Y0149063D01*
X0042123Y0151658D02*
X0034611Y0151658D01*
X0023145Y0181033D02*
X0017525Y0181033D01*
X0019124Y0179435D02*
X0052264Y0179435D01*
X0049311Y0193821D02*
X0048400Y0193821D01*
X0049311Y0195420D02*
X0046801Y0195420D01*
X0045203Y0197018D02*
X0049311Y0197018D01*
X0050655Y0198617D02*
X0043604Y0198617D01*
X0042006Y0200215D02*
X0052254Y0200215D01*
X0038980Y0197018D02*
X0015665Y0197018D01*
X0015665Y0198617D02*
X0037382Y0198617D01*
X0035783Y0200215D02*
X0015665Y0200215D01*
X0019384Y0233784D02*
X0022084Y0233784D01*
X0024843Y0233784D02*
X0031116Y0233784D01*
X0029414Y0235383D02*
X0027094Y0235383D01*
X0027814Y0236981D02*
X0028761Y0236981D01*
X0028663Y0238580D02*
X0027863Y0238580D01*
X0027863Y0240178D02*
X0028663Y0240178D01*
X0028663Y0241175D02*
X0033263Y0241175D01*
X0033263Y0248775D01*
X0033086Y0248775D01*
X0032339Y0248657D01*
X0031621Y0248423D01*
X0030948Y0248080D01*
X0030337Y0247636D01*
X0029802Y0247102D01*
X0029358Y0246491D01*
X0029015Y0245818D01*
X0028782Y0245099D01*
X0028663Y0244353D01*
X0028663Y0241175D01*
X0028663Y0241777D02*
X0027863Y0241777D01*
X0027863Y0243375D02*
X0028663Y0243375D01*
X0028762Y0244974D02*
X0027812Y0244974D01*
X0027089Y0246572D02*
X0029417Y0246572D01*
X0031125Y0248171D02*
X0025663Y0248171D01*
X0025663Y0249769D02*
X0064640Y0249769D01*
X0064640Y0248171D02*
X0044832Y0248171D01*
X0047089Y0246572D02*
X0064640Y0246572D01*
X0064640Y0244974D02*
X0047812Y0244974D01*
X0047863Y0243375D02*
X0074081Y0243375D01*
X0076540Y0242723D02*
X0074126Y0240309D01*
X0073459Y0240309D01*
X0073677Y0236981D02*
X0069993Y0236981D01*
X0069993Y0235383D02*
X0075275Y0235383D01*
X0076874Y0233784D02*
X0069993Y0233784D01*
X0069993Y0232186D02*
X0078472Y0232186D01*
X0080071Y0230587D02*
X0069993Y0230587D01*
X0069993Y0228989D02*
X0072548Y0228989D01*
X0072656Y0229176D02*
X0072419Y0228766D01*
X0072296Y0228308D01*
X0072296Y0226287D01*
X0076077Y0226287D01*
X0076077Y0229871D01*
X0073859Y0229871D01*
X0073402Y0229748D01*
X0072991Y0229511D01*
X0072656Y0229176D01*
X0072296Y0227390D02*
X0069993Y0227390D01*
X0069993Y0225791D02*
X0072296Y0225791D01*
X0072296Y0224193D02*
X0069993Y0224193D01*
X0069993Y0222594D02*
X0073163Y0222594D01*
X0073393Y0219849D02*
X0072572Y0219029D01*
X0072572Y0211270D01*
X0073393Y0210450D01*
X0081152Y0210450D01*
X0081972Y0211270D01*
X0081972Y0219029D01*
X0081152Y0219849D01*
X0073393Y0219849D01*
X0072940Y0219397D02*
X0069993Y0219397D01*
X0069993Y0217799D02*
X0072572Y0217799D01*
X0072572Y0216200D02*
X0069993Y0216200D01*
X0069993Y0214602D02*
X0072572Y0214602D01*
X0072572Y0213003D02*
X0069993Y0213003D01*
X0069993Y0211405D02*
X0072572Y0211405D01*
X0069993Y0209806D02*
X0076233Y0209806D01*
X0076338Y0209849D02*
X0074610Y0209134D01*
X0073288Y0207812D01*
X0072572Y0206084D01*
X0072572Y0204215D01*
X0073288Y0202487D01*
X0074610Y0201165D01*
X0076338Y0200450D01*
X0078207Y0200450D01*
X0079935Y0201165D01*
X0081257Y0202487D01*
X0081972Y0204215D01*
X0081972Y0206084D01*
X0081257Y0207812D01*
X0079935Y0209134D01*
X0078207Y0209849D01*
X0076338Y0209849D01*
X0078311Y0209806D02*
X0096257Y0209806D01*
X0096257Y0208208D02*
X0080861Y0208208D01*
X0081755Y0206609D02*
X0096257Y0206609D01*
X0096257Y0205011D02*
X0081972Y0205011D01*
X0081640Y0203412D02*
X0096257Y0203412D01*
X0096257Y0201814D02*
X0080584Y0201814D01*
X0080452Y0198617D02*
X0096257Y0198617D01*
X0096257Y0200215D02*
X0069993Y0200215D01*
X0069993Y0198617D02*
X0074093Y0198617D01*
X0072959Y0197018D02*
X0069993Y0197018D01*
X0069993Y0195420D02*
X0072572Y0195420D01*
X0072735Y0193821D02*
X0069993Y0193821D01*
X0069993Y0192223D02*
X0073552Y0192223D01*
X0073961Y0201814D02*
X0069993Y0201814D01*
X0069993Y0203412D02*
X0072905Y0203412D01*
X0072572Y0205011D02*
X0069993Y0205011D01*
X0069993Y0206609D02*
X0072790Y0206609D01*
X0073684Y0208208D02*
X0069993Y0208208D01*
X0069993Y0220996D02*
X0098363Y0220996D01*
X0096765Y0219397D02*
X0081604Y0219397D01*
X0081972Y0217799D02*
X0096257Y0217799D01*
X0096257Y0216200D02*
X0081972Y0216200D01*
X0081972Y0214602D02*
X0096257Y0214602D01*
X0096257Y0213003D02*
X0081972Y0213003D01*
X0081972Y0211405D02*
X0096257Y0211405D01*
X0100657Y0211405D02*
X0104370Y0211405D01*
X0103074Y0213003D02*
X0100657Y0213003D01*
X0100657Y0214602D02*
X0102572Y0214602D01*
X0102621Y0216200D02*
X0100657Y0216200D01*
X0101389Y0217799D02*
X0103283Y0217799D01*
X0104295Y0222594D02*
X0079361Y0222594D01*
X0076446Y0222594D02*
X0076077Y0222594D01*
X0076077Y0224193D02*
X0076446Y0224193D01*
X0076446Y0225791D02*
X0076077Y0225791D01*
X0076077Y0227390D02*
X0076446Y0227390D01*
X0076446Y0228989D02*
X0076077Y0228989D01*
X0076540Y0242723D02*
X0076540Y0248653D01*
X0076540Y0247056D01*
X0068149Y0241777D02*
X0047863Y0241777D01*
X0047863Y0240178D02*
X0066551Y0240178D01*
X0065593Y0238580D02*
X0047863Y0238580D01*
X0047814Y0236981D02*
X0065593Y0236981D01*
X0065593Y0235383D02*
X0047094Y0235383D01*
X0047630Y0264156D02*
X0132820Y0264156D01*
X0132820Y0265754D02*
X0047022Y0265754D01*
X0045683Y0267353D02*
X0132820Y0267353D01*
X0132820Y0268951D02*
X0038219Y0268951D01*
X0043015Y0273747D02*
X0132820Y0273747D01*
X0132820Y0275345D02*
X0044329Y0275345D01*
X0044329Y0276944D02*
X0132820Y0276944D01*
X0132820Y0278542D02*
X0044329Y0278542D01*
X0044329Y0280141D02*
X0132820Y0280141D01*
X0132820Y0281739D02*
X0045439Y0281739D01*
X0046751Y0283338D02*
X0132820Y0283338D01*
X0132820Y0256163D02*
X0025663Y0256163D01*
X0025663Y0254565D02*
X0132820Y0254565D01*
X0132820Y0252966D02*
X0126440Y0252966D01*
X0126440Y0251368D02*
X0132820Y0251368D01*
X0132820Y0249769D02*
X0126440Y0249769D01*
X0126440Y0248171D02*
X0132820Y0248171D01*
X0132820Y0246572D02*
X0126440Y0246572D01*
X0126440Y0244974D02*
X0132820Y0244974D01*
X0132820Y0243375D02*
X0116655Y0243375D01*
X0116655Y0241777D02*
X0132820Y0241777D01*
X0132820Y0240178D02*
X0116655Y0240178D01*
X0116655Y0238580D02*
X0132820Y0238580D01*
X0132820Y0236981D02*
X0116655Y0236981D01*
X0116655Y0235383D02*
X0132820Y0235383D01*
X0132820Y0233784D02*
X0116655Y0233784D01*
X0116655Y0232186D02*
X0132820Y0232186D01*
X0132820Y0230587D02*
X0116655Y0230587D01*
X0116655Y0228989D02*
X0132820Y0228989D01*
X0132820Y0227390D02*
X0116646Y0227390D01*
X0115048Y0225791D02*
X0132820Y0225791D01*
X0132820Y0224193D02*
X0110869Y0224193D01*
X0109503Y0222594D02*
X0132820Y0222594D01*
X0132820Y0220996D02*
X0108919Y0220996D01*
X0109299Y0219397D02*
X0132820Y0219397D01*
X0132820Y0217799D02*
X0111262Y0217799D01*
X0111924Y0216200D02*
X0132820Y0216200D01*
X0132820Y0214602D02*
X0111972Y0214602D01*
X0111471Y0213003D02*
X0132820Y0213003D01*
X0132820Y0211405D02*
X0110175Y0211405D01*
X0109935Y0209134D02*
X0108207Y0209849D01*
X0106338Y0209849D01*
X0104610Y0209134D01*
X0103288Y0207812D01*
X0102572Y0206084D01*
X0102572Y0204215D01*
X0103288Y0202487D01*
X0104610Y0201165D01*
X0106338Y0200450D01*
X0108207Y0200450D01*
X0109935Y0201165D01*
X0111257Y0202487D01*
X0111972Y0204215D01*
X0111972Y0206084D01*
X0111257Y0207812D01*
X0109935Y0209134D01*
X0110861Y0208208D02*
X0132820Y0208208D01*
X0132820Y0209806D02*
X0108311Y0209806D01*
X0106233Y0209806D02*
X0100657Y0209806D01*
X0100657Y0208208D02*
X0103684Y0208208D01*
X0102790Y0206609D02*
X0100657Y0206609D01*
X0100657Y0205011D02*
X0102572Y0205011D01*
X0102905Y0203412D02*
X0100657Y0203412D01*
X0100657Y0201814D02*
X0103961Y0201814D01*
X0104093Y0198617D02*
X0100657Y0198617D01*
X0100657Y0200215D02*
X0132820Y0200215D01*
X0132820Y0198617D02*
X0110452Y0198617D01*
X0111586Y0197018D02*
X0132820Y0197018D01*
X0132820Y0195420D02*
X0111972Y0195420D01*
X0111809Y0193821D02*
X0132820Y0193821D01*
X0132820Y0192223D02*
X0110992Y0192223D01*
X0110584Y0201814D02*
X0132820Y0201814D01*
X0132820Y0203412D02*
X0111640Y0203412D01*
X0111972Y0205011D02*
X0132820Y0205011D01*
X0132820Y0206609D02*
X0111755Y0206609D01*
X0102959Y0197018D02*
X0100657Y0197018D01*
X0100657Y0195420D02*
X0102572Y0195420D01*
X0102735Y0193821D02*
X0100657Y0193821D01*
X0100657Y0192223D02*
X0103552Y0192223D01*
X0096257Y0192223D02*
X0080992Y0192223D01*
X0081809Y0193821D02*
X0096257Y0193821D01*
X0096257Y0195420D02*
X0081972Y0195420D01*
X0081586Y0197018D02*
X0096257Y0197018D01*
X0100426Y0224193D02*
X0100795Y0224193D01*
X0100795Y0225791D02*
X0100426Y0225791D01*
X0100426Y0227390D02*
X0100795Y0227390D01*
X0100795Y0228989D02*
X0100426Y0228989D01*
X0102640Y0244974D02*
X0088440Y0244974D01*
X0088440Y0246572D02*
X0102640Y0246572D01*
X0102640Y0248171D02*
X0088440Y0248171D01*
X0088440Y0249769D02*
X0102640Y0249769D01*
X0102640Y0251368D02*
X0088440Y0251368D01*
X0088440Y0252966D02*
X0102640Y0252966D01*
X0110864Y0228989D02*
X0112022Y0228989D01*
X0116624Y0302520D02*
X0020963Y0302520D01*
X0021625Y0304119D02*
X0115962Y0304119D01*
X0115467Y0305717D02*
X0022120Y0305717D01*
X0022120Y0307316D02*
X0115467Y0307316D01*
X0115586Y0308914D02*
X0022000Y0308914D01*
X0021338Y0310513D02*
X0116249Y0310513D01*
X0117161Y0312111D02*
X0020425Y0312111D01*
X0018827Y0313710D02*
X0118760Y0313710D01*
X0080272Y0297724D02*
X0004100Y0297724D01*
X0004100Y0296126D02*
X0078742Y0296126D01*
X0078080Y0294527D02*
X0004100Y0294527D01*
X0004100Y0292929D02*
X0077816Y0292929D01*
X0077822Y0291330D02*
X0004100Y0291330D01*
X0004100Y0289732D02*
X0038615Y0289732D01*
X0037397Y0288133D02*
X0004100Y0288133D01*
X0004100Y0286535D02*
X0036868Y0286535D01*
X0036868Y0284936D02*
X0004100Y0284936D01*
X0004100Y0283338D02*
X0037463Y0283338D01*
X0038775Y0281739D02*
X0004100Y0281739D01*
X0004100Y0299323D02*
X0010514Y0299323D01*
X0008079Y0300922D02*
X0004100Y0300922D01*
X0004100Y0302520D02*
X0006635Y0302520D01*
X0005973Y0304119D02*
X0004100Y0304119D01*
X0004100Y0305717D02*
X0005478Y0305717D01*
X0005478Y0307316D02*
X0004100Y0307316D01*
X0004100Y0308914D02*
X0005597Y0308914D01*
X0006260Y0310513D02*
X0004100Y0310513D01*
X0004100Y0312111D02*
X0007172Y0312111D01*
X0008771Y0313710D02*
X0004100Y0313710D01*
X0025663Y0252966D02*
X0064640Y0252966D01*
X0064640Y0251368D02*
X0025663Y0251368D01*
X0033263Y0248171D02*
X0033663Y0248171D01*
X0033663Y0246572D02*
X0033263Y0246572D01*
X0033263Y0244974D02*
X0033663Y0244974D01*
X0033663Y0243375D02*
X0033263Y0243375D01*
X0033263Y0241777D02*
X0033663Y0241777D01*
X0033663Y0240178D02*
X0033263Y0240178D01*
X0033263Y0238580D02*
X0033663Y0238580D01*
X0033663Y0236981D02*
X0033263Y0236981D01*
X0033263Y0235383D02*
X0033663Y0235383D01*
X0033663Y0233784D02*
X0033263Y0233784D01*
X0048426Y0099509D02*
X0048719Y0099509D01*
D25*
X0045796Y0124321D03*
X0010466Y0175649D03*
X0008466Y0111989D03*
X0031130Y0028331D03*
X0074126Y0014665D03*
X0125121Y0053328D03*
X0128121Y0120655D03*
X0125121Y0196647D03*
X0125121Y0224644D03*
X0115455Y0272640D03*
X0067793Y0270306D03*
X0059461Y0239976D03*
X0010799Y0289305D03*
X0009133Y0240309D03*
D26*
X0055829Y0170940D02*
X0055672Y0170782D01*
X0055679Y0157107D01*
D27*
X0064127Y0168650D03*
X0047129Y0139320D03*
D28*
X0013799Y0091658D03*
X0013799Y0306969D03*
X0123788Y0306969D03*
X0123788Y0012999D03*
M02*
