G75*
%MOIN*%
%OFA0B0*%
%FSLAX25Y25*%
%IPPOS*%
%LPD*%
%AMOC8*
5,1,8,0,0,1.08239X$1,22.5*
%
%ADD10R,0.04831X0.04437*%
%ADD11C,0.10500*%
%ADD12OC8,0.10500*%
%ADD13C,0.07550*%
%ADD14C,0.08177*%
%ADD15R,0.03650X0.03650*%
%ADD16OC8,0.05300*%
%ADD17R,0.21500X0.08100*%
%ADD18R,0.06500X0.03500*%
%ADD19C,0.09500*%
%ADD20R,0.07100X0.07100*%
%ADD21C,0.07100*%
%ADD22OC8,0.06500*%
%ADD23C,0.06500*%
%ADD24C,0.04262*%
%ADD25C,0.03200*%
%ADD26C,0.14343*%
D10*
X0056278Y0136055D03*
X0056278Y0142748D03*
X0055829Y0170940D03*
X0055829Y0177633D03*
X0076262Y0226102D03*
X0082955Y0226102D03*
X0100610Y0226436D03*
X0107303Y0226436D03*
X0107581Y0071449D03*
X0107581Y0064756D03*
D11*
X0026049Y0207746D03*
X0084216Y0292617D03*
D12*
X0104216Y0292617D03*
X0056475Y0211385D03*
X0055711Y0194622D03*
X0026049Y0187746D03*
D13*
X0061603Y0030407D02*
X0061603Y0023357D01*
X0081288Y0023357D02*
X0081288Y0030407D01*
D14*
X0042107Y0262981D03*
X0042107Y0285816D03*
X0023209Y0274792D03*
D15*
X0049774Y0157107D03*
X0055679Y0157107D03*
D16*
X0105755Y0033214D03*
X0115755Y0033214D03*
D17*
X0114540Y0248653D03*
X0076540Y0248653D03*
D18*
X0034611Y0166658D03*
X0034611Y0151658D03*
X0012611Y0151658D03*
X0012611Y0166658D03*
D19*
X0011682Y0013417D03*
X0011682Y0054917D03*
X0011682Y0073417D03*
X0041682Y0063417D03*
X0041682Y0013417D03*
D20*
X0077272Y0215150D03*
D21*
X0077272Y0205150D03*
X0077272Y0195150D03*
X0077272Y0185150D03*
X0077272Y0175150D03*
X0077272Y0165150D03*
X0077272Y0155150D03*
X0077272Y0145150D03*
X0077272Y0135150D03*
X0077272Y0125150D03*
X0077272Y0115150D03*
X0077272Y0105150D03*
X0077272Y0095150D03*
X0077272Y0085150D03*
X0061459Y0054661D03*
X0101459Y0054661D03*
X0107272Y0085150D03*
X0107272Y0095150D03*
X0107272Y0105150D03*
X0107272Y0115150D03*
X0107272Y0125150D03*
X0107272Y0135150D03*
X0107272Y0145150D03*
X0107272Y0155150D03*
X0107272Y0165150D03*
X0107272Y0175150D03*
X0107272Y0185150D03*
X0107272Y0195150D03*
X0107272Y0205150D03*
X0107272Y0215150D03*
D22*
X0062128Y0112323D03*
X0062128Y0102323D03*
X0062128Y0092323D03*
X0052128Y0092323D03*
X0052128Y0102323D03*
X0052128Y0112323D03*
D23*
X0043463Y0237975D02*
X0043463Y0243975D01*
X0033463Y0243975D02*
X0033463Y0237975D01*
X0023463Y0237975D02*
X0023463Y0243975D01*
D24*
X0009133Y0240309D03*
X0010799Y0289305D03*
X0010466Y0175649D03*
X0008466Y0111989D03*
X0031130Y0028331D03*
X0045796Y0124321D03*
X0074126Y0014665D03*
X0125121Y0053328D03*
X0128121Y0120655D03*
X0125121Y0196647D03*
X0125121Y0224644D03*
X0115455Y0272640D03*
X0067793Y0270306D03*
X0059461Y0239976D03*
D25*
X0064127Y0168650D03*
X0047129Y0139320D03*
D26*
X0013799Y0091658D03*
X0013799Y0306969D03*
X0123788Y0306969D03*
X0123788Y0012999D03*
M02*
